<svg width="50" height="50" viewBox="0 0 50 50" fill="none" xmlns="http://www.w3.org/2000/svg">
<path fill-rule="evenodd" clip-rule="evenodd" d="M25 50C38.8071 50 50 38.8071 50 25C50 11.1929 38.8071 0 25 0C11.1929 0 0 11.1929 0 25C0 38.8071 11.1929 50 25 50ZM25 46C36.5979 46 46 36.5981 46 25C46 13.4019 36.5979 4 25 4C13.4021 4 4 13.4019 4 25C4 36.5981 13.4021 46 25 46Z" fill="white"/>
<mask id="path-2-inside-1_301_26" fill="white">
<path d="M33.8115 14.1173C33.6769 14.0097 33.5154 13.9828 33.3538 14.0097L20.4308 16.7008C20.1885 16.7546 20 16.9699 20 17.239V28.2185C19.2731 27.4112 18.2231 26.9268 17.0385 26.9268C14.8038 26.9268 13 28.7298 13 30.9634C13 33.197 14.8038 35 17.0385 35C19.2731 35 21.0769 33.197 21.0769 30.9634V21.4101L32.9231 18.9344V25.5005C32.1962 24.6932 31.1192 24.2088 29.9615 24.2088C27.7269 24.2088 25.9231 26.0118 25.9231 28.2454C25.9231 30.479 27.7269 32.282 29.9615 32.282C32.1962 32.282 34 30.479 34 28.2454V14.521C34 14.3595 33.9192 14.1981 33.8115 14.1173ZM17.0385 33.8967C15.3962 33.8967 14.0769 32.578 14.0769 30.9365C14.0769 29.2949 15.3962 27.9763 17.0385 27.9763C18.6808 27.9763 20 29.2949 20 30.9365C20 32.578 18.6808 33.8967 17.0385 33.8967ZM29.9615 31.2056C28.3192 31.2056 27 29.887 27 28.2454C27 26.6039 28.3192 25.2853 29.9615 25.2853C31.6038 25.2853 32.9231 26.6039 32.9231 28.2454C32.9231 29.887 31.6038 31.2056 29.9615 31.2056ZM32.9231 17.8579L21.0769 20.3337V17.6696L32.9231 15.1938V17.8579Z"/>
</mask>
<path d="M33.8115 14.1173C33.6769 14.0097 33.5154 13.9828 33.3538 14.0097L20.4308 16.7008C20.1885 16.7546 20 16.9699 20 17.239V28.2185C19.2731 27.4112 18.2231 26.9268 17.0385 26.9268C14.8038 26.9268 13 28.7298 13 30.9634C13 33.197 14.8038 35 17.0385 35C19.2731 35 21.0769 33.197 21.0769 30.9634V21.4101L32.9231 18.9344V25.5005C32.1962 24.6932 31.1192 24.2088 29.9615 24.2088C27.7269 24.2088 25.9231 26.0118 25.9231 28.2454C25.9231 30.479 27.7269 32.282 29.9615 32.282C32.1962 32.282 34 30.479 34 28.2454V14.521C34 14.3595 33.9192 14.1981 33.8115 14.1173ZM17.0385 33.8967C15.3962 33.8967 14.0769 32.578 14.0769 30.9365C14.0769 29.2949 15.3962 27.9763 17.0385 27.9763C18.6808 27.9763 20 29.2949 20 30.9365C20 32.578 18.6808 33.8967 17.0385 33.8967ZM29.9615 31.2056C28.3192 31.2056 27 29.887 27 28.2454C27 26.6039 28.3192 25.2853 29.9615 25.2853C31.6038 25.2853 32.9231 26.6039 32.9231 28.2454C32.9231 29.887 31.6038 31.2056 29.9615 31.2056ZM32.9231 17.8579L21.0769 20.3337V17.6696L32.9231 15.1938V17.8579Z" fill="white"/>
<path d="M33.8115 14.1173L30.6889 18.0224L30.7499 18.0712L30.8124 18.118L33.8115 14.1173ZM33.3538 14.0097L32.5322 9.07767L32.433 9.0942L32.3345 9.11471L33.3538 14.0097ZM20.4308 16.7008L19.4115 11.8058L19.379 11.8125L19.3466 11.8197L20.4308 16.7008ZM20 28.2185L16.2843 31.5642L25 41.2438V28.2185H20ZM21.0769 21.4101L20.0541 16.5159L16.0769 17.3471V21.4101H21.0769ZM32.9231 18.9344H37.9231V12.7814L31.9002 14.0401L32.9231 18.9344ZM32.9231 25.5005L29.2074 28.8462L37.9231 38.5259V25.5005H32.9231ZM32.9231 17.8579L33.9459 22.7522L37.9231 21.921V17.8579H32.9231ZM21.0769 20.3337H16.0769V26.4867L22.0998 25.228L21.0769 20.3337ZM21.0769 17.6696L20.0541 12.7753L16.0769 13.6065V17.6696H21.0769ZM32.9231 15.1938H37.9231V9.04077L31.9002 10.2995L32.9231 15.1938ZM36.9341 10.2123C35.4686 9.0404 33.7879 8.8685 32.5322 9.07767L34.1755 18.9417C33.2429 19.0971 31.8853 18.979 30.6889 18.0224L36.9341 10.2123ZM32.3345 9.11471L19.4115 11.8058L21.4501 21.5958L34.3732 18.9047L32.3345 9.11471ZM19.3466 11.8197C16.9154 12.3597 15 14.5262 15 17.239H25C25 19.4135 23.4615 21.1494 21.5149 21.5818L19.3466 11.8197ZM15 17.239V28.2185H25V17.239H15ZM23.7157 24.8728C22.0305 23.0013 19.625 21.9268 17.0385 21.9268V31.9268C16.9436 31.9268 16.8118 31.9061 16.6667 31.8419C16.5232 31.7784 16.3913 31.6831 16.2843 31.5642L23.7157 24.8728ZM17.0385 21.9268C12.0446 21.9268 8 25.9662 8 30.9634H18C18 31.4934 17.5631 31.9268 17.0385 31.9268V21.9268ZM8 30.9634C8 35.9606 12.0446 40 17.0385 40V30C17.5631 30 18 30.4334 18 30.9634H8ZM17.0385 40C22.0323 40 26.0769 35.9606 26.0769 30.9634H16.0769C16.0769 30.4334 16.5138 30 17.0385 30V40ZM26.0769 30.9634V21.4101H16.0769V30.9634H26.0769ZM22.0998 26.3044L33.9459 23.8286L31.9002 14.0401L20.0541 16.5159L22.0998 26.3044ZM27.9231 18.9344V25.5005H37.9231V18.9344H27.9231ZM36.6388 22.1549C34.9416 20.27 32.503 19.2088 29.9615 19.2088V29.2088C29.7355 29.2088 29.4507 29.1165 29.2074 28.8462L36.6388 22.1549ZM29.9615 19.2088C24.9677 19.2088 20.9231 23.2482 20.9231 28.2454H30.9231C30.9231 28.7755 30.4862 29.2088 29.9615 29.2088V19.2088ZM20.9231 28.2454C20.9231 33.2426 24.9677 37.282 29.9615 37.282V27.282C30.4862 27.282 30.9231 27.7154 30.9231 28.2454H20.9231ZM29.9615 37.282C34.9554 37.282 39 33.2426 39 28.2454H29C29 27.7154 29.4369 27.282 29.9615 27.282V37.282ZM39 28.2454V14.521H29V28.2454H39ZM39 14.521C39 12.9309 38.29 11.2257 36.8107 10.1167L30.8124 18.118C30.1047 17.5875 29.6793 16.9579 29.4322 16.4394C29.1762 15.9019 29 15.2518 29 14.521H39ZM17.0385 28.8967C18.1554 28.8967 19.0769 29.8144 19.0769 30.9365H9.07692C9.07692 35.3416 12.6369 38.8967 17.0385 38.8967V28.8967ZM19.0769 30.9365C19.0769 32.0585 18.1554 32.9763 17.0385 32.9763V22.9763C12.6369 22.9763 9.07692 26.5313 9.07692 30.9365H19.0769ZM17.0385 32.9763C15.9215 32.9763 15 32.0585 15 30.9365H25C25 26.5313 21.44 22.9763 17.0385 22.9763V32.9763ZM15 30.9365C15 29.8144 15.9215 28.8967 17.0385 28.8967V38.8967C21.44 38.8967 25 35.3416 25 30.9365H15ZM29.9615 26.2056C31.0785 26.2056 32 27.1234 32 28.2454H22C22 32.6506 25.56 36.2056 29.9615 36.2056V26.2056ZM32 28.2454C32 29.3675 31.0785 30.2853 29.9615 30.2853V20.2853C25.56 20.2853 22 23.8403 22 28.2454H32ZM29.9615 30.2853C28.8446 30.2853 27.9231 29.3675 27.9231 28.2454H37.9231C37.9231 23.8403 34.3631 20.2853 29.9615 20.2853V30.2853ZM27.9231 28.2454C27.9231 27.1234 28.8446 26.2056 29.9615 26.2056V36.2056C34.3631 36.2056 37.9231 32.6506 37.9231 28.2454H27.9231ZM31.9002 12.9637L20.0541 15.4394L22.0998 25.228L33.9459 22.7522L31.9002 12.9637ZM26.0769 20.3337V17.6696H16.0769V20.3337H26.0769ZM22.0998 22.5638L33.9459 20.088L31.9002 10.2995L20.0541 12.7753L22.0998 22.5638ZM27.9231 15.1938V17.8579H37.9231V15.1938H27.9231Z" fill="white" mask="url(#path-2-inside-1_301_26)"/>
</svg>
