<svg width="980" height="981" viewBox="0 0 980 981" fill="none" xmlns="http://www.w3.org/2000/svg">
<circle cx="490.5" cy="489.5" r="475.5" fill="white"/>
<path d="M327.9 360C327.9 453.7 403.8 529.6 497.5 529.6C591.2 529.6 667.1 453.7 667.1 360C667.1 266.3 591.2 190.4 497.5 190.4C403.9 190.3 327.9 266.3 327.9 360Z" fill="#767676"/>
<path d="M490 0C220.5 0 0 220.5 0 490C0 650.2 77.3 791.5 196 882C197.9 882 197.9 883.9 199.8 883.9C205.5 887.7 213 893.3 218.6 897.1C267.6 931 324.1 955.5 384.4 968.7C388.2 970.6 393.8 970.6 397.6 970.6C403.3 972.5 408.9 972.5 414.6 974.4C424 976.3 435.3 976.3 444.8 978.2C448.6 978.2 450.5 978.2 454.2 978.2C465.5 978.2 478.7 980.1 490 980.1C497.5 980.1 507 980.1 514.5 980.1C518.3 980.1 522 980.1 525.8 980.1C529.6 980.1 533.3 980.1 537.1 980.1C542.8 980.1 548.4 978.2 554.1 978.2C556 978.2 557.9 978.2 559.8 978.2C567.3 976.3 573 976.3 578.6 974.4H580.5C808.5 931 980 731.2 980 493.8C980 220.5 759.5 0 490 0ZM812.3 831.1C810.4 661.5 672.8 529.6 503.2 529.6C331.7 529.6 192.2 669.1 192.2 840.6C192.2 844.4 192.2 850 192.2 853.8C86.7 767 18.8 635.1 18.8 488.1C18.8 228 229.9 17 490 17C750.1 17 961.2 228 961.2 488.1C961.2 623.8 904.6 746.3 812.3 831.1Z" fill="#767676"/>
</svg>
