<svg xmlns="http://www.w3.org/2000/svg" width="32" height="32" viewBox="0 0 32 32">
  <g id="Group_661" data-name="Group 661" transform="translate(-1239.982 -471.437)">
    <g id="icons_Arrow_Down_Simple_Line_3" data-name="icons/Arrow Down Simple/Line_3">
      <path id="Shape_38" data-name="Shape 38" d="M1260.189,485.227a1,1,0,0,0-1.414,0l-2.793,2.8-2.793-2.8a1,1,0,1,0-1.414,1.42l3.5,3.5a1,1,0,0,0,1.414,0l3.5-3.5A1.006,1.006,0,0,0,1260.189,485.227Z" fill="#777e91" fill-rule="evenodd"/>
    </g>
    <path id="Path_359" data-name="Path 359" d="M1255.982,472.437h0a15,15,0,0,1,15,15h0a15,15,0,0,1-15,15h0a15,15,0,0,1-15-15h0A15,15,0,0,1,1255.982,472.437Z" fill="none" stroke="#353945" stroke-width="2"/>
  </g>
</svg>
