<svg width="50" height="50" viewBox="0 0 50 50" fill="none" xmlns="http://www.w3.org/2000/svg">
<path fill-rule="evenodd" clip-rule="evenodd" d="M25 50C38.8071 50 50 38.8071 50 25C50 11.1929 38.8071 0 25 0C11.1929 0 0 11.1929 0 25C0 38.8071 11.1929 50 25 50ZM25 46C36.598 46 46 36.598 46 25C46 13.402 36.598 4 25 4C13.402 4 4 13.402 4 25C4 36.598 13.402 46 25 46Z" fill="white"/>
<rect x="17" y="16" width="6" height="19" fill="white"/>
<rect x="27" y="16" width="6" height="19" fill="white"/>
</svg>
