<?xml version="1.0" encoding="UTF-8"?>
<!DOCTYPE svg  PUBLIC '-//W3C//DTD SVG 1.1//EN'  'http://www.w3.org/Graphics/SVG/1.1/DTD/svg11.dtd'>
<svg version="1.1" xmlns="http://www.w3.org/2000/svg">
<defs>
<font id="Shapiro-45Welter" horiz-adv-x="255">
<font-face font-family="Shapiro 45 Welter" font-weight="350" ascent="790" bbox="-57 -227 1021 962" cap-height="714" descent="-210" panose-1="2 11 5 3 5 0 0 2 0 4" underline-position="-100" underline-thickness="50" unicode-range="U+0020-00FE" units-per-em="1000" x-height="527"/>
<missing-glyph/>
<glyph glyph-name="space" horiz-adv-x="240" unicode=" "/>
<glyph d="M163 199h-71l-15 317v198h101v-198zM69 0v117h117v-117h-117z" glyph-name="exclam" horiz-adv-x="256" unicode="!"/>
<glyph d="M142 456h-92v258h92v-258zM324 456h-92v258h92v-258z" glyph-name="quotedbl" horiz-adv-x="374" unicode='"'/>
<glyph d="M582 427h-104l-30 -153h103l-14 -75h-104l-40 -199h-78l40 199h-144l-39 -199h-78l40 199h-105l16 75h104l30 153h-104l15 75h104l40 199h77l-39 -199h143l40 199h78l-40 -199h104zM370 274l30 153h-143l-31 -153h144z" glyph-name="numbersign" horiz-adv-x="627" unicode="#"/>
<glyph d="M328 -13v-97h-48v97q-171 10 -228 127q-24 51 -24 117h102q9 -150 150 -163v255l-66 17q-74 20 -119 58q-43 40 -43 123q1 85 63 136q65 53 165 57v74h48v-74q103 -8 167 -64q66 -57 65 -151h-101q-6 95 -90 125q-19 7 -41 9v-223l66 -16q105 -24 143 -72q36 -47 38 -130 q0 -123 -112 -176q-58 -26 -135 -29zM256 426l24 -5v213q-83 -8 -114 -63q-13 -23 -13 -48q0 -63 76 -89q13 -5 27 -8zM474 189q0 69 -67 98q-21 10 -51 17l-28 7v-244q110 6 138 79q8 20 8 43z" glyph-name="dollar" horiz-adv-x="622" unicode="$"/>
<glyph d="M374 514q0 -145 -92 -187q-31 -14 -68 -14q-105 0 -143 96q-18 45 -18 105q0 143 91 186q31 15 70 15q106 0 143 -98q17 -45 17 -103zM625 701h68l-399 -701h-68zM295 514q0 124 -63 136q-9 2 -18 2q-65 0 -78 -85q-3 -23 -3 -53q0 -124 63 -136q9 -2 18 -2q65 0 78 85 q3 23 3 53zM866 187q0 -143 -91 -186q-31 -15 -70 -15q-106 0 -143 98q-17 45 -17 103q0 145 92 187q31 14 68 14q105 0 143 -96q18 -45 18 -105zM786 187q0 124 -63 136q-9 2 -18 2q-65 0 -78 -85q-3 -23 -3 -53q0 -124 63 -136q9 -2 18 -2q65 0 78 85q3 23 3 53z" glyph-name="percent" horiz-adv-x="919" unicode="%"/>
<glyph d="M712 0h-116l-79 86q-87 -98 -219 -98q-130 0 -199 75q-48 53 -48 127q1 129 153 208l19 9q-73 84 -81 144q-1 11 -1 21q0 80 69 125q49 33 116 33q100 0 153 -66q33 -41 33 -92q0 -78 -88 -138q-21 -14 -48 -29l-24 -13l150 -163q22 64 22 135h86q0 -114 -44 -205z M302 447l25 13q75 38 88 79q4 12 4 25q0 56 -46 81q-22 11 -47 11q-60 0 -84 -50q-9 -20 -9 -42q0 -36 43 -88q11 -13 26 -29zM459 149l-184 200l-20 -11q-108 -62 -109 -145q0 -82 76 -113q34 -14 76 -14q97 1 161 83z" glyph-name="ampersand" horiz-adv-x="724" unicode="&amp;"/>
<glyph d="M142 456h-92v258h92v-258z" glyph-name="quotesingle" horiz-adv-x="192" unicode="'"/>
<glyph d="M344 -172h-79q-43 29 -92 85q-99 116 -118 296q-4 36 -4 73q0 126 37 219q64 161 177 235h79q-68 -45 -123 -148q-74 -139 -72 -306q-3 -210 108 -365q43 -60 87 -89z" glyph-name="parenleft" horiz-adv-x="354" unicode="("/>
<glyph d="M9 736h79q43 -27 91 -84q48 -56 86 -151q37 -94 37 -219q0 -126 -37 -219q-62 -158 -170 -231q-4 -2 -7 -4h-79q69 45 123 149q73 138 72 305q2 210 -108 365q-43 60 -87 89z" glyph-name="parenright" horiz-adv-x="354" unicode=")"/>
<glyph d="M349 610l-107 -68l107 -68l-38 -54l-89 66l4 -116h-69l4 116l-89 -66l-38 54l107 68l-107 68l38 54l89 -66l-4 116h69l-4 -116l89 66z" glyph-name="asterisk" horiz-adv-x="382" unicode="*"/>
<glyph d="M501 365v-79h-175v-186h-80v186h-175v79h175v185h80v-185h175z" glyph-name="plus" horiz-adv-x="572" unicode="+"/>
<glyph d="M186 117v-95q-1 -161 -113 -163v51q40 3 48 49q3 18 3 41h-55v117h117z" glyph-name="comma" unicode=","/>
<glyph d="M321 244h-276v85h276v-85z" glyph-name="hyphen" horiz-adv-x="367" unicode="-"/>
<glyph d="M69 0v117h117v-117h-117z" glyph-name="period" unicode="."/>
<glyph d="M282 714h95l-260 -714h-94z" glyph-name="slash" horiz-adv-x="399" unicode="/"/>
<glyph d="M584 350q-1 -192 -75 -278q-76 -86 -191 -86q-115 1 -192 86q-75 87 -75 278q0 194 75 279q76 86 192 86q116 -1 191 -86t75 -279zM486 350q0 159 -47 223q-47 63 -121 64q-76 -1 -122 -63q-46 -63 -46 -224t46 -223q47 -62 122 -63q167 2 168 286z" glyph-name="zero" horiz-adv-x="635" unicode="0"/>
<glyph d="M178 701h80v-701h-93v545h-145v64h10q131 1 148 92z" glyph-name="one" horiz-adv-x="356" unicode="1"/>
<glyph d="M140 84h368v-84h-471v41q0 72 27 123q29 52 65 83q46 38 92 67l88 56q86 55 101 112q4 16 4 32q0 87 -76 113q-26 9 -58 9q-130 0 -143 -141q-1 -7 -1 -14h-95q2 120 68 176q67 57 171 57q126 0 189 -74q43 -51 43 -123q0 -56 -22 -95q-28 -49 -90 -92q-14 -10 -38 -25 l-23 -14l-80 -52q-120 -80 -119 -155z" glyph-name="two" horiz-adv-x="559" unicode="2"/>
<glyph d="M218 397h63q86 0 122 58q16 27 16 61q0 72 -63 104q-32 16 -70 16q-79 0 -115 -57q-17 -29 -18 -65h-95q0 112 93 166q58 34 135 34q122 0 186 -75q43 -51 43 -123q0 -85 -75 -134q-14 -9 -28 -15v-4q87 -28 116 -107q10 -30 10 -62q0 -121 -106 -176q-63 -32 -146 -32 q-140 0 -207 82q-45 56 -43 137h97q-3 -85 69 -122q37 -19 84 -19q90 0 131 58q22 32 22 72q0 95 -94 121q-30 8 -65 8h-62v74z" glyph-name="three" horiz-adv-x="589" unicode="3"/>
<glyph d="M461 259h90v-76h-90v-183h-93v183h-335v82l329 436h99v-442zM127 259h241v319h-4l-237 -315v-4z" glyph-name="four" horiz-adv-x="589" unicode="4"/>
<glyph d="M537 234q0 -135 -99 -204q-65 -44 -152 -44q-129 0 -195 76q-43 51 -44 121h96q5 -78 77 -107q30 -12 66 -12q85 0 127 69q25 43 25 101q0 110 -75 152q-33 18 -73 18q-83 -1 -143 -60h-88l31 357h401v-82h-325l-18 -193h4q57 56 150 56q112 0 179 -79q56 -68 56 -169z " glyph-name="five" horiz-adv-x="583" unicode="5"/>
<glyph d="M556 222q0 -126 -96 -192q-64 -44 -142 -44q-140 1 -209 101q-58 84 -58 264q1 180 74 275q72 88 196 88q90 -1 152 -47q61 -47 66 -131h-97q-4 61 -59 89q-29 14 -62 14q-78 -1 -124 -63q-51 -68 -51 -200v-9h4q62 80 175 81q90 2 159 -59q74 -67 72 -167zM461 217 q0 92 -68 135q-35 22 -77 22q-80 0 -125 -61q-30 -42 -30 -96q0 -89 68 -132q39 -24 87 -24q74 0 116 60q29 41 29 96z" glyph-name="six" horiz-adv-x="602" unicode="6"/>
<glyph d="M28 701h471v-45q0 -47 -21 -92q-21 -43 -65 -113q-49 -78 -77 -132q-73 -143 -73 -319h-98q0 109 25 195q26 91 60 155q40 75 86 147q52 81 67 118v4h-375v82z" glyph-name="seven" horiz-adv-x="527" unicode="7"/>
<glyph d="M554 196q0 -122 -106 -177q-63 -33 -145 -33q-134 0 -203 76q-49 55 -49 134q0 112 89 164q16 10 34 16v4q-91 38 -101 128q-1 10 -1 19q0 105 97 156q59 31 134 31q116 0 182 -66q48 -50 48 -121q0 -95 -86 -140q-8 -4 -15 -7v-4q96 -34 117 -131q5 -24 5 -49zM439 525 q0 71 -66 101q-32 14 -70 14q-81 0 -118 -53q-19 -27 -19 -62q0 -70 66 -100q32 -15 71 -15q81 0 118 54q18 27 18 61zM456 199q0 87 -75 122q-35 16 -78 16q-92 0 -133 -62q-21 -33 -21 -76q0 -86 75 -121q35 -17 79 -17q89 0 131 61q22 33 22 77z" glyph-name="eight" horiz-adv-x="605" unicode="8"/>
<glyph d="M47 478q0 127 98 194q63 42 140 42q139 -1 209 -101q57 -83 57 -264q-1 -181 -73 -275q-72 -88 -196 -88q-115 0 -176 70q-39 46 -42 108h97q3 -60 58 -88q29 -15 63 -15q78 1 124 63q51 68 51 200v9h-4q-64 -81 -176 -81q-89 -2 -158 59q-74 66 -72 167zM142 483 q0 -92 67 -135q35 -22 77 -22q81 0 127 62q29 41 29 95q0 88 -68 131q-40 25 -88 25q-74 0 -116 -59q-28 -41 -28 -97z" glyph-name="nine" horiz-adv-x="602" unicode="9"/>
<glyph d="M69 373v117h117v-117h-117zM69 0v117h117v-117h-117z" glyph-name="colon" unicode=":"/>
<glyph d="M69 373v117h117v-117h-117zM186 117v-95q-1 -161 -113 -163v51q40 3 48 49q3 18 3 41h-55v117h117z" glyph-name="semicolon" unicode=";"/>
<glyph d="M71 279v86l430 212v-87l-338 -166v-4l338 -166v-87z" glyph-name="less" horiz-adv-x="571" unicode="&lt;"/>
<glyph d="M501 372h-430v79h430v-79zM501 200h-430v79h430v-79z" glyph-name="equal" horiz-adv-x="571" unicode="="/>
<glyph d="M501 365v-86l-430 -212v87l338 166v4l-338 166v87z" glyph-name="greater" horiz-adv-x="571" unicode="&gt;"/>
<glyph d="M118 500h-90q4 112 75 171q72 59 179 59q128 0 192 -76q40 -49 40 -115q-3 -91 -58 -142q-18 -15 -48 -36q-62 -41 -75 -91q-7 -25 -7 -58v-13h-91v41q0 91 61 146q18 17 42 33q61 41 71 91q3 16 3 32q0 68 -65 94q-28 12 -64 12q-138 0 -163 -137q-1 -6 -2 -11zM222 0 v117h116v-117h-116z" glyph-name="question" horiz-adv-x="542" unicode="?"/>
<glyph d="M894 347q0 140 -105 233q-109 95 -279 95q-142 3 -256 -97t-136 -248q-5 -34 -4 -68q-2 -172 122 -273q114 -91 285 -90q139 1 243 66h88q-138 -119 -335 -119q-196 -2 -327 108q-132 111 -139 289v24q-3 168 108 300q106 124 261 155q47 9 94 8q181 3 310 -104 q113 -93 130 -225q3 -23 3 -46q0 -139 -88 -225q-77 -74 -190 -74q-78 0 -86 57q-1 7 -1 13h-4q-37 -58 -122 -68q-14 -2 -27 -2q-91 0 -142 74q-33 49 -33 110q-2 106 63 188q71 88 180 86q81 0 117 -60l6 -12h4l10 56h91l-71 -337l-2 -14q2 -37 49 -38q79 0 134 77 q49 69 49 161zM613 319q0 94 -65 116q-17 6 -36 6q-78 2 -126 -80q-31 -54 -31 -110q0 -91 63 -115q18 -7 39 -7q79 -2 126 80q30 54 30 110z" glyph-name="at" horiz-adv-x="1008" unicode="@"/>
<glyph d="M591 0l-78 199h-313l-79 -199h-110l297 714h98l296 -714h-111zM233 284h246q-69 176 -121 318h-4q-75 -201 -121 -318z" glyph-name="A" horiz-adv-x="714" unicode="A"/>
<glyph d="M73 714h311q143 0 193 -97q21 -42 21 -96q-1 -105 -91 -141v-4q113 -42 114 -172q0 -126 -100 -177q-53 -27 -126 -27h-322v714zM174 629v-221h196q111 0 124 90q1 10 1 21q0 94 -94 108q-15 2 -31 2h-196zM518 207q0 107 -109 119q-14 2 -28 2h-207v-241h207 q130 0 137 108v12z" glyph-name="B" horiz-adv-x="664" unicode="B"/>
<glyph d="M389 -16q-168 0 -261 120q-77 100 -77 254q0 191 115 293q90 79 223 79q153 2 238 -95q55 -64 55 -138h-105q-10 60 -51 103q-44 44 -137 44q-136 0 -197 -113q-38 -71 -38 -173q0 -177 104 -250q56 -38 131 -38q97 1 142 50q46 50 54 121h105q2 -96 -71 -170 q-88 -89 -230 -87z" glyph-name="C" horiz-adv-x="734" unicode="C"/>
<glyph d="M679 357q0 -214 -140 -305q-82 -52 -198 -52h-268v714h268q190 0 278 -132q60 -89 60 -225zM576 357q0 188 -129 248q-51 24 -119 24h-154v-544h154q167 0 223 134q25 59 25 138z" glyph-name="D" horiz-adv-x="731" unicode="D"/>
<glyph d="M174 629v-210h373v-84h-373v-247h389v-88h-490v714h490v-85h-389z" glyph-name="E" horiz-adv-x="612" unicode="E"/>
<glyph d="M563 629h-389v-219h373v-84h-373v-326h-101v714h490v-85z" glyph-name="F" horiz-adv-x="602" unicode="F"/>
<glyph d="M400 284v85h290v-369h-83v93q-71 -108 -220 -109q-172 0 -263 123q-73 99 -73 251q0 201 125 301q91 71 224 71q150 3 237 -91q57 -62 57 -130h-105q-10 52 -52 93q-43 42 -137 42q-159 0 -217 -132q-29 -65 -29 -154q0 -185 110 -255q53 -33 123 -33q98 1 154 59 q56 61 56 155h-197z" glyph-name="G" horiz-adv-x="759" unicode="G"/>
<glyph d="M546 714h101v-714h-101v323h-372v-323h-101v714h101v-306h372v306z" glyph-name="H" horiz-adv-x="721" unicode="H"/>
<glyph d="M178 0h-101v714h101v-714z" glyph-name="I" unicode="I"/>
<glyph d="M528 714v-482q0 -164 -123 -222q-56 -26 -129 -26q-133 0 -205 86q-53 64 -53 158v40h95v-28q0 -140 115 -164q23 -5 48 -5q128 0 147 117q4 24 4 52v474h101z" glyph-name="J" horiz-adv-x="602" unicode="J"/>
<glyph d="M531 0l-255 375l-102 -106v-269h-101v714h101v-328l314 328h123l-262 -272l305 -442h-123z" glyph-name="K" horiz-adv-x="655" unicode="K"/>
<glyph d="M566 0h-493v714h101v-626h392v-88z" glyph-name="L" horiz-adv-x="605" unicode="L"/>
<glyph d="M609 714h161v-714h-98v606h-4l-208 -606h-81l-208 606h-4v-606h-94v714h162l185 -557h4z" glyph-name="M" horiz-adv-x="843" unicode="M"/>
<glyph d="M653 714v-714h-107l-375 569h-4v-569h-94v714h112l370 -562h4v562h94z" glyph-name="N" horiz-adv-x="727" unicode="N"/>
<glyph d="M720 357q0 -198 -119 -299q-88 -74 -215 -74q-169 0 -260 120q-75 99 -75 253q0 199 120 300q87 73 215 73q166 0 257 -118q77 -100 77 -255zM617 357q0 184 -108 254q-53 33 -123 33q-138 0 -197 -118q-35 -70 -35 -169q0 -183 108 -253q53 -34 124 -34q139 0 197 119 q34 69 34 168z" glyph-name="O" horiz-adv-x="772" unicode="O"/>
<glyph d="M620 505q0 -136 -108 -187q-52 -24 -123 -24h-215v-294h-101v714h316q153 0 207 -104q24 -45 24 -105zM519 504q0 104 -103 122q-19 3 -41 3h-201v-250h201q124 0 141 95q3 15 3 30z" glyph-name="P" horiz-adv-x="660" unicode="P"/>
<glyph d="M619 76l57 -79l-73 -44l-53 72q-72 -41 -164 -41q-169 0 -260 120q-75 99 -75 253q0 199 120 300q87 73 215 73q166 0 257 -118q77 -100 77 -255q-1 -182 -101 -281zM498 97l-81 110l74 45l71 -98q55 75 55 203q0 184 -108 254q-53 33 -123 33q-138 0 -197 -118 q-35 -70 -35 -169q0 -183 108 -253q53 -34 124 -34q64 0 112 27z" glyph-name="Q" horiz-adv-x="772" unicode="Q"/>
<glyph d="M652 0h-118l-188 303h-172v-303h-101v714h337q156 0 210 -104q22 -44 22 -101q0 -129 -106 -180q-35 -16 -77 -22zM174 629v-241h224q127 0 141 99q1 11 1 22q0 97 -97 116q-21 4 -45 4h-224z" glyph-name="R" horiz-adv-x="679" unicode="R"/>
<glyph d="M317 647q-97 0 -139 -55q-21 -26 -21 -59q0 -61 73 -88q18 -6 39 -11l146 -33q109 -24 149 -69q42 -48 44 -137q-1 -102 -78 -157q-79 -54 -206 -54q-189 0 -261 114q-35 58 -35 137h104q11 -167 194 -168q131 0 168 74q11 23 11 51q0 69 -67 99q-25 10 -60 19l-152 37 q-80 19 -126 58q-46 41 -46 126q0 104 97 160q70 39 167 39q144 0 220 -81q54 -58 54 -140h-104q-5 95 -96 126q-34 12 -75 12z" glyph-name="S" horiz-adv-x="655" unicode="S"/>
<glyph d="M611 714v-88h-240v-626h-101v626h-241v88h582z" glyph-name="T" horiz-adv-x="640" unicode="T"/>
<glyph d="M642 714v-456q0 -158 -115 -230q-71 -44 -169 -44q-155 0 -232 100q-53 70 -53 174v456h101v-446q0 -190 171 -197h13q168 0 182 165q1 16 1 32v446h101z" glyph-name="U" horiz-adv-x="715" unicode="U"/>
<glyph d="M561 714h109l-278 -714h-98l-279 714h111l169 -459q29 -81 46 -138h4q20 62 47 138z" glyph-name="V" horiz-adv-x="686" unicode="V"/>
<glyph d="M711 0h-102l-114 428q-16 62 -33 143h-4q-20 -98 -32 -144l-113 -427h-104l-190 714h105l106 -435q12 -52 31 -145h4q17 81 33 144l112 436h99l112 -436q17 -63 33 -144h4q19 95 31 145l107 435h106z" glyph-name="W" horiz-adv-x="921" unicode="W"/>
<glyph d="M616 0h-117l-188 293l-187 -293h-113l244 370l-226 344h117l169 -268l171 268h112l-228 -342z" glyph-name="X" horiz-adv-x="627" unicode="X"/>
<glyph d="M524 714h110l-259 -432v-282h-101v281l-259 433h112l199 -346z" glyph-name="Y" horiz-adv-x="650" unicode="Y"/>
<glyph d="M578 626l-415 -538h414v-88h-540v88l417 538h-390v88h514v-88z" glyph-name="Z" horiz-adv-x="616" unicode="Z"/>
<glyph d="M163 678v-734h106v-77h-196v888h196v-77h-106z" glyph-name="bracketleft" horiz-adv-x="288" unicode="["/>
<glyph d="M118 714l259 -714h-94l-260 714h95z" glyph-name="backslash" horiz-adv-x="399" unicode="\"/>
<glyph d="M125 678h-106v77h196v-888h-196v77h106v734z" glyph-name="bracketright" horiz-adv-x="288" unicode="]"/>
<glyph d="M459 353h-86l-123 259h-4l-122 -259h-86l169 348h83z" glyph-name="asciicircum" horiz-adv-x="497" unicode="^"/>
<glyph d="M548 -160h-550v50h550v-50z" glyph-name="underscore" horiz-adv-x="546" unicode="_"/>
<glyph d="M67 739h108l78 -150h-76z" glyph-name="grave" horiz-adv-x="320" unicode="`"/>
<glyph d="M503 0h-91q-19 20 -19 70v2q-41 -65 -139 -81q-21 -3 -42 -3q-88 0 -138 60q-35 42 -35 97q2 139 173 165l102 14q71 9 77 55q1 6 1 12q0 49 -62 65q-22 6 -48 6q-113 0 -125 -83q-1 -5 -1 -10h-93q0 110 105 151q50 19 114 19q146 0 189 -85q15 -30 15 -66v-304 q1 -67 17 -84zM309 251l-68 -11q-105 -18 -106 -95q0 -66 66 -79q14 -3 29 -3q83 0 129 53q33 38 33 93v66q-15 -14 -83 -24z" glyph-name="a" horiz-adv-x="553" unicode="a"/>
<glyph d="M566 264q0 -143 -88 -221q-63 -55 -150 -55q-96 0 -149 58q-11 13 -19 27h-4v-73h-89v724h94v-264h4q36 61 123 76q20 3 40 3q117 0 184 -93q54 -74 54 -182zM470 264q0 127 -78 176q-35 22 -80 22q-96 0 -136 -88q-21 -47 -21 -110q0 -128 77 -177q35 -22 80 -22 q95 0 136 87q22 48 22 112z" glyph-name="b" horiz-adv-x="610" unicode="b"/>
<glyph d="M417 163h98q-4 -85 -77 -135q-59 -40 -142 -40q-137 0 -205 102q-48 72 -48 174q0 149 95 224q66 51 158 51q120 0 181 -75q33 -42 36 -91h-98q-21 88 -119 89q-98 0 -137 -91q-20 -46 -20 -107q0 -132 80 -179q34 -20 77 -20q104 2 121 98z" glyph-name="c" horiz-adv-x="550" unicode="c"/>
<glyph d="M445 460h4v264h94v-724h-90v73h-4q-33 -64 -120 -81q-23 -4 -47 -4q-117 0 -185 93q-54 75 -54 183q0 143 88 220q64 55 151 55q95 0 147 -57q10 -11 16 -22zM455 264q0 123 -74 174q-37 24 -83 24q-97 0 -138 -88q-21 -47 -21 -110q0 -127 77 -176q36 -23 82 -23 q93 0 134 85q23 49 23 114z" glyph-name="d" horiz-adv-x="610" unicode="d"/>
<glyph d="M297 -12q-137 0 -206 102q-48 71 -48 173q0 148 91 224q63 52 152 52q127 0 194 -95q50 -71 50 -175v-5l-1 -22h-390q-1 -107 70 -153q38 -24 88 -24q109 1 130 91h95q-6 -79 -74 -126q-60 -42 -151 -42zM140 315h293q-4 74 -59 118q-39 29 -88 29q-78 0 -121 -68 q-22 -37 -25 -79z" glyph-name="e" horiz-adv-x="573" unicode="e"/>
<glyph d="M201 593v-66h118v-71h-118v-456h-94v456h-88v71h88v75q2 133 145 134q48 0 80 -7v-76q-27 4 -66 4q-52 0 -62 -37q-3 -12 -3 -27z" glyph-name="f" horiz-adv-x="348" unicode="f"/>
<glyph d="M443 527h90v-521q0 -168 -158 -196q-35 -6 -76 -6q-156 0 -209 88q-21 37 -21 85h96q6 -95 134 -96q101 0 127 58q13 29 13 72v90h-4q-38 -59 -125 -71q-17 -2 -33 -2q-117 0 -183 88q-51 69 -51 168q0 130 85 202q63 53 149 53q96 0 146 -56q10 -11 16 -22h4v66z M445 284q0 107 -69 154q-37 24 -83 24q-90 0 -131 -77q-23 -44 -23 -101q0 -108 70 -156q37 -25 84 -25q86 0 128 76q24 45 24 105z" glyph-name="g" horiz-adv-x="600" unicode="g"/>
<glyph d="M161 724v-268h4q59 80 163 83q79 -1 131 -48q53 -49 53 -141v-350h-94v320q0 116 -78 135q-19 5 -42 5q-63 0 -104 -60q-33 -49 -33 -117v-283h-94v724h94z" glyph-name="h" horiz-adv-x="579" unicode="h"/>
<glyph d="M67 0v527h94v-527h-94zM66 618v106h95v-106h-95z" glyph-name="i" horiz-adv-x="228" unicode="i"/>
<glyph d="M68 -64v591h94v-607q0 -85 -52 -106q-26 -10 -68 -10q-35 0 -67 2v81q38 -2 47 -2q38 0 44 31q2 9 2 20zM67 618v106h95v-106h-95z" glyph-name="j" horiz-adv-x="229" unicode="j"/>
<glyph d="M227 264l-66 -62v-202h-94v724h94v-414l224 217h118l-211 -202l235 -325h-112z" glyph-name="k" horiz-adv-x="525" unicode="k"/>
<glyph d="M69 0v724h94v-724h-94z" glyph-name="l" horiz-adv-x="233" unicode="l"/>
<glyph d="M819 350v-350h-94v320q0 120 -79 137q-15 3 -32 3q-64 0 -99 -62q-25 -43 -25 -105v-293h-94v320q0 120 -79 137q-15 3 -32 3q-65 0 -100 -64q-24 -43 -24 -105v-291h-94v527h89v-72h4q56 83 154 84q92 0 140 -65q8 -12 14 -24q69 89 175 89q93 0 142 -70q34 -48 34 -119 z" glyph-name="m" horiz-adv-x="885" unicode="m"/>
<glyph d="M156 527v-71h4q55 82 165 83q81 -1 133 -48q54 -48 54 -141v-350h-94v320q0 116 -78 135q-19 5 -42 5q-70 0 -109 -62q-28 -44 -28 -107v-291h-94v527h89z" glyph-name="n" horiz-adv-x="579" unicode="n"/>
<glyph d="M548 264q0 -150 -95 -226q-65 -50 -157 -50q-133 0 -202 99q-51 72 -51 177q0 146 94 222q66 53 159 53q134 0 203 -101q49 -72 49 -174zM452 264q0 130 -78 177q-35 21 -78 21q-96 0 -136 -88q-21 -47 -21 -110q0 -130 78 -178q35 -21 79 -21q97 0 136 90q20 47 20 109z " glyph-name="o" horiz-adv-x="592" unicode="o"/>
<glyph d="M165 67h-4v-251h-94v711h89v-73h4q38 69 131 82q19 3 37 3q117 0 184 -93q54 -74 54 -182q0 -143 -88 -221q-63 -55 -150 -55q-98 0 -148 59q-9 10 -15 20zM155 264q0 -128 77 -177q35 -22 80 -22q95 0 136 87q22 48 22 112q0 127 -78 176q-35 22 -80 22q-96 0 -136 -88 q-21 -47 -21 -110z" glyph-name="p" horiz-adv-x="610" unicode="p"/>
<glyph d="M43 264q0 143 88 220q64 55 151 55q101 0 152 -63q9 -11 15 -22h4v73h90v-711h-94v251h-4q-36 -63 -125 -76q-19 -3 -38 -3q-117 0 -185 93q-54 75 -54 183zM139 264q0 -127 77 -176q36 -23 82 -23q93 0 134 85q23 49 23 114q0 123 -74 174q-37 24 -83 24q-97 0 -138 -88 q-21 -47 -21 -110z" glyph-name="q" horiz-adv-x="610" unicode="q"/>
<glyph d="M67 527h89v-83h4q34 71 115 90q22 5 46 5q22 0 46 -5v-90q-23 4 -51 4q-126 0 -150 -117q-5 -25 -5 -54v-277h-94v527z" glyph-name="r" horiz-adv-x="386" unicode="r"/>
<glyph d="M243 466q-73 0 -98 -43q-9 -15 -9 -32q0 -49 78 -66l100 -22q90 -19 121 -49q33 -35 35 -104q0 -117 -123 -150q-43 -12 -97 -12q-146 0 -201 90q-25 41 -25 95h95q9 -112 133 -113q91 0 115 53q7 15 7 31q0 45 -52 66q-16 6 -36 11l-93 21q-92 20 -123 56q-28 33 -30 89 q0 89 87 129q50 23 117 23q95 -1 156 -44q62 -43 60 -126h-93q-5 77 -85 93q-19 4 -39 4z" glyph-name="s" horiz-adv-x="507" unicode="s"/>
<glyph d="M262 79l52 2v-81q-33 -2 -73 -2q-93 0 -119 43q-15 26 -15 73v342h-88v71h88v150h94v-150h118v-71h-118v-318q0 -45 23 -54q14 -5 38 -5z" glyph-name="t" horiz-adv-x="349" unicode="t"/>
<glyph d="M423 0v71h-4q-55 -82 -165 -83q-80 1 -134 48q-53 49 -53 141v350h94v-320q0 -116 78 -135q19 -5 42 -5q72 0 111 64q26 43 26 105v291h94v-527h-89z" glyph-name="u" horiz-adv-x="579" unicode="u"/>
<glyph d="M515 527l-208 -527h-93l-206 527h104l102 -276q22 -61 45 -137h4q21 64 47 137l104 276h101z" glyph-name="v" horiz-adv-x="523" unicode="v"/>
<glyph d="M709 527h100l-179 -527h-92l-87 264q-21 62 -42 143h-4q-22 -82 -42 -143l-87 -264h-88l-180 527h104l83 -271q20 -66 39 -142h4q20 81 39 140l86 273h95l86 -272q20 -63 39 -141h4q19 77 39 142z" glyph-name="w" horiz-adv-x="817" unicode="w"/>
<glyph d="M490 0h-111l-130 199l-136 -199h-105l185 268l-176 259h109l124 -190l125 190h105l-175 -258z" glyph-name="x" horiz-adv-x="499" unicode="x"/>
<glyph d="M414 527h101l-219 -556q-48 -117 -99 -147q-32 -19 -89 -20h-55v81h43q48 0 74 37q14 21 31 61l13 32l-206 512h104l102 -276q22 -61 45 -137h4q21 64 47 137z" glyph-name="y" horiz-adv-x="523" unicode="y"/>
<glyph d="M456 0h-417v86l301 359h-285v82h401v-86l-301 -359h301v-82z" glyph-name="z" horiz-adv-x="495" unicode="z"/>
<glyph d="M134 313v-4q76 -20 78 -112v-186q0 -53 28 -63q11 -4 27 -4h43v-77h-66q-94 0 -116 64q-8 25 -8 61v190q-6 84 -69 89v80q66 6 69 88v191q0 98 68 118q24 7 56 7h66v-77h-43q-44 0 -52 -33q-3 -14 -3 -34v-186q-1 -93 -78 -112z" glyph-name="braceleft" horiz-adv-x="329" unicode="{"/>
<glyph d="M164 799v-1026h-91v1026h91z" glyph-name="bar" horiz-adv-x="237" unicode="|"/>
<glyph d="M118 425v186q0 53 -28 63q-12 4 -28 4h-43v77h66q94 0 116 -64q8 -25 8 -61v-191q3 -86 69 -88v-80q-59 0 -68 -67q-1 -11 -1 -22v-190q0 -98 -68 -118q-24 -7 -56 -7h-66v77h43q45 0 53 35q3 13 3 32v186q1 97 77 112v4q-76 18 -77 112z" glyph-name="braceright" horiz-adv-x="329" unicode="}"/>
<glyph d="M501 385v-93q-51 -51 -105 -51q-38 1 -80 22l-70 34q-52 23 -70 21q-51 0 -101 -60q-2 -3 -4 -5v93q51 51 105 51q34 -1 80 -22l70 -34q41 -21 70 -21q51 0 101 60q2 3 4 5z" glyph-name="asciitilde" horiz-adv-x="571" unicode="~"/>
<glyph glyph-name="uni00A0" horiz-adv-x="168" unicode=" "/>
<glyph d="M69 534h114v-113h-114v113zM161 335l15 -318v-197h-101v197l16 318h70z" glyph-name="exclamdown" horiz-adv-x="253" unicode="¡"/>
<glyph d="M310 -12v-87h-47v89q-103 11 -161 84q-59 75 -59 190q1 115 59 189q59 73 161 84v77h47v-75q122 -5 178 -88q26 -38 27 -78h-98q-12 73 -86 87q-11 1 -21 2v-397q92 8 109 98h98q-2 -73 -64 -125q-57 -46 -143 -50zM263 68v391q-88 -17 -115 -117q-9 -36 -9 -78 q0 -135 82 -181q20 -11 42 -15z" glyph-name="cent" horiz-adv-x="552" unicode="¢"/>
<glyph d="M549 90v-91q-31 -13 -74 -13q-69 0 -164 63q-15 10 -33 23q-26 -74 -106 -85q-11 -1 -22 -1q-83 0 -110 60q-9 22 -9 48q0 77 64 101q22 8 46 8q32 0 68 -16q-2 52 -30 101h-151v61h117q-65 99 -68 172q0 108 93 161q59 33 137 33q135 0 198 -85q40 -55 40 -134h-90 q-5 94 -77 129q-32 16 -71 16q-95 0 -126 -71q-11 -26 -11 -57q0 -49 45 -118q6 -11 14 -22l17 -24h197v-61h-167q26 -51 26 -100q0 -28 -4 -45l22 -14q82 -57 123 -63q9 -1 18 -1q53 1 88 25zM207 118q-35 24 -58 24q-35 0 -44 -33q-2 -8 -2 -15q0 -35 33 -44q8 -2 15 -2 q37 0 52 49q2 11 4 21z" glyph-name="sterling" horiz-adv-x="596" unicode="£"/>
<glyph d="M457 246l56 -56l-49 -45l-54 55q-52 -39 -120 -39q-69 1 -121 39l-54 -55l-48 45l56 56q-40 54 -40 122q1 69 40 122l-56 56l48 45l54 -55q53 39 121 39t120 -39l54 55l49 -45l-56 -56q40 -54 40 -122q-1 -69 -40 -122zM418 368q0 67 -52 108q-35 27 -76 27 q-65 0 -103 -56q-25 -37 -25 -79q0 -67 52 -108q35 -27 76 -27q65 0 103 56q25 37 25 79z" glyph-name="currency" horiz-adv-x="580" unicode="¤"/>
<glyph d="M623 701l-175 -292h110v-62h-147l-42 -70h189v-61h-189v-216h-100v216h-189v61h188l-41 70h-147v62h110l-175 292h111l194 -340l195 340h108z" glyph-name="yen" horiz-adv-x="639" unicode="¥"/>
<glyph d="M164 799v-437h-91v437h91zM164 210v-437h-91v437h91z" glyph-name="brokenbar" horiz-adv-x="237" unicode="¦"/>
<glyph d="M472 103q39 -46 39 -118q0 -129 -135 -159q-36 -8 -79 -8q-141 0 -195 86q-25 42 -25 96h94q5 -103 113 -108h13q119 2 120 91q-3 57 -41 82q-14 9 -44 23l-177 76q-89 40 -114 94q-13 29 -13 67q0 91 98 130l12 4q-44 43 -44 111q0 98 90 139q46 21 107 21 q92 -1 150 -43q59 -45 59 -123h-92q-3 67 -72 86q-21 6 -45 6q-77 0 -96 -54q-5 -15 -5 -30q2 -56 64 -83l183 -81q64 -29 96 -64q33 -35 33 -103q0 -92 -82 -132q-6 -4 -12 -6zM419 144q47 31 52 88q-2 66 -78 98l-174 77q-5 2 -10 4.5l-11 5.5l-6 3q-67 -21 -68 -85 q0 -55 58 -85q4 -2 7 -3l167 -72q27 -12 63 -31z" glyph-name="section" horiz-adv-x="613" unicode="§"/>
<glyph d="M67 620v97h92v-97h-92zM262 620v97h92v-97h-92z" glyph-name="dieresis" horiz-adv-x="421" unicode="¨"/>
<glyph d="M51 357q-3 137 93 246q92 105 224 124q28 4 56 3q137 3 246 -93q105 -92 124 -224q4 -28 3 -56q3 -137 -93 -246q-92 -105 -224 -124q-28 -4 -56 -3q-137 -3 -246 93q-105 92 -124 224q-4 28 -3 56zM735 357q3 121 -84 214q-85 92 -204 99h-23q-122 3 -213 -86 q-90 -86 -97 -206v-21q-2 -122 85 -215q86 -92 205 -98h20q121 -3 213 85q91 86 98 205v23zM427 170q-106 0 -152 82q-25 45 -25 105q0 115 81 163q42 24 96 24q96 0 140 -63q20 -30 20 -62h-79q-11 62 -81 63q-74 0 -94 -75q-6 -23 -6 -50q0 -100 69 -121q15 -4 31 -4 q73 2 84 74h78q0 -70 -60 -109q-43 -27 -102 -27z" glyph-name="copyright" horiz-adv-x="849" unicode="©"/>
<glyph d="M356 363h-76q-13 14 -13 45v1q-28 -46 -98 -53q-9 -1 -17 -1q-69 0 -99 50q-15 24 -15 53q2 93 112 108l67 9q48 10 50 41q0 30 -40 39q-12 2 -24 2q-70 -1 -75 -55h-74q0 82 87 105q29 8 63 8q113 0 135 -70q5 -15 5 -31v-198q0 -41 12 -53zM218 522l-39 -6 q-63 -10 -63 -57q2 -47 56 -48q59 0 84 43q11 20 11 44v39q-12 -9 -49 -15zM366 75v-75h-342v75h342z" glyph-name="ordfeminine" horiz-adv-x="390" unicode="ª"/>
<glyph d="M49 322l177 155v-100l-112 -102v-4l112 -102v-100l-177 155v98zM265 322l176 155v-100l-111 -102v-4l111 -102v-100l-176 155v98z" glyph-name="guillemotleft" horiz-adv-x="491" unicode="«"/>
<glyph d="M501 401v-257h-77v178h-353v79h430z" glyph-name="logicalnot" horiz-adv-x="572" unicode="¬"/>
<glyph d="M797 357q3 -137 -93 -246q-92 -105 -224 -124q-28 -4 -56 -3q-137 -3 -246 93q-105 92 -124 224q-4 28 -3 56q-3 137 93 246q92 105 224 124q28 4 56 3q137 3 246 -93q105 -92 124 -224q4 -28 3 -56zM735 357q3 121 -84 214q-85 92 -204 99h-23q-120 3 -212 -85 q-91 -86 -98 -205v-23q-3 -121 84 -214q85 -91 202 -99h24q121 -3 213 85q91 86 98 205v23zM590 178h-89l-81 139h-67v-139h-76v358h180q93 0 118 -67q7 -20 7 -43q0 -74 -65 -98q-8 -3 -16 -5zM353 475v-97h93q56 5 59 48q0 42 -46 48q-7 1 -13 1h-93z" glyph-name="registered" horiz-adv-x="849" unicode="®"/>
<glyph d="M354 628h-287v71h287v-71z" glyph-name="overscore" horiz-adv-x="421" unicode="¯"/>
<glyph d="M30 568q0 76 61 119q40 28 88 28q74 0 118 -58q30 -40 30 -89q0 -75 -61 -119q-39 -27 -87 -27q-74 0 -119 57q-30 40 -30 89zM260 568q0 52 -42 75q-18 10 -39 10q-50 0 -72 -43q-10 -20 -10 -42q0 -51 42 -75q19 -10 40 -10q50 0 72 45q9 19 9 40z" glyph-name="degree" horiz-adv-x="358" unicode="°"/>
<glyph d="M501 365v-79h-175v-186h-80v186h-175v79h175v185h80v-185h175zM71 79h430v-79h-430v79z" glyph-name="plusminus" horiz-adv-x="572" unicode="±"/>
<glyph d="M110 360h211v-66h-298v23q0 49 16 79q22 43 73 78q10 7 25 17l49 32q55 41 58 75q0 57 -56 62q-6 1 -11 1q-69 -2 -74 -81h-75q0 107 92 134q27 8 57 8q101 0 133 -66q12 -24 12 -54q0 -38 -15 -63t-31 -37l-57 -38l-44 -28q-58 -38 -65 -76z" glyph-name="uni00B2" horiz-adv-x="355" unicode="²"/>
<glyph d="M137 538h36q54 0 69 40q4 11 4 22q0 44 -42 57q-13 4 -26 4q-51 0 -65 -42q-3 -10 -3 -21h-76q1 85 79 113q29 11 65 11q94 0 130 -60q16 -27 16 -60q0 -57 -56 -83q-3 -2 -6 -3v-4q63 -17 72 -81q1 -9 1 -17q0 -90 -88 -118q-31 -10 -70 -10q-111 0 -144 72 q-12 27 -11 61h78q-1 -49 43 -66q16 -6 34 -6q55 0 72 40q6 13 6 27q0 60 -66 67q-8 1 -16 1h-36v56z" glyph-name="uni00B3" horiz-adv-x="373" unicode="³"/>
<glyph d="M253 739l-110 -150h-76l78 150h108z" glyph-name="acute" horiz-adv-x="320" unicode="´"/>
<glyph d="M605 714v-898h-83v822h-129v-822h-84v460q-161 0 -230 96q-36 53 -36 123q0 123 102 181q67 38 164 38h296z" glyph-name="paragraph" horiz-adv-x="679" unicode="¶"/>
<glyph d="M69 316q0 42 37 61q16 8 32 8q43 0 62 -37q8 -15 8 -32q0 -43 -38 -61q-15 -8 -32 -8q-40 0 -60 36q-9 16 -9 33z" glyph-name="middot" horiz-adv-x="277" unicode="·"/>
<glyph d="M138 -165q33 0 42 26q2 7 2 13q-2 32 -44 33q-23 0 -39 -7v57l76 81l72 4l-73 -79v-4q10 0 16 -2q51 -11 62 -61q3 -11 3 -23q0 -65 -62 -87q-23 -8 -49 -8q-37 0 -77 14v62h1q36 -19 70 -19z" glyph-name="cedilla" horiz-adv-x="322" unicode="¸"/>
<glyph d="M119 714h65v-420h-76v306h-92v51h6q84 1 97 63z" glyph-name="uni00B9" horiz-adv-x="268" unicode="¹"/>
<glyph d="M366 535q0 -114 -81 -159q-39 -21 -90 -21q-102 0 -147 80q-24 43 -24 100q0 108 77 155q41 25 94 25q106 0 149 -83q22 -42 22 -97zM288 535q0 91 -59 114q-16 6 -34 6q-67 0 -86 -71q-6 -22 -6 -49q0 -90 58 -114q16 -7 34 -7q65 0 86 67q7 25 7 54zM366 75v-75h-342 v75h342z" glyph-name="ordmasculine" horiz-adv-x="390" unicode="º"/>
<glyph d="M226 322v-98l-177 -155v100l112 102v4l-112 102v100zM441 322v-98l-176 -155v100l111 102v4l-111 102v100z" glyph-name="guillemotright" horiz-adv-x="491" unicode="»"/>
<glyph d="M321 534v-117h-117v117h117zM424 33h90q-5 -112 -76 -171q-71 -58 -178 -58q-128 0 -192 76q-40 48 -40 114q0 90 64 146q17 15 42 32q62 41 75 91q7 25 7 58v14h91v-41q0 -90 -60 -146q-18 -17 -42 -33q-66 -44 -74 -103q-1 -10 -1 -20q0 -70 67 -96q28 -10 62 -10 q143 2 165 147z" glyph-name="questiondown" horiz-adv-x="542" unicode="¿"/>
<glyph d="M591 0l-78 199h-313l-79 -199h-110l297 714h98l296 -714h-111zM233 284h246q-69 176 -121 318h-4q-75 -201 -121 -318zM209 916h108l78 -150h-76z" glyph-name="Agrave" horiz-adv-x="714" unicode="À"/>
<glyph d="M591 0l-78 199h-313l-79 -199h-110l297 714h98l296 -714h-111zM233 284h246q-69 176 -121 318h-4q-75 -201 -121 -318zM505 916l-110 -150h-76l78 150h108z" glyph-name="Aacute" horiz-adv-x="714" unicode="Á"/>
<glyph d="M591 0l-78 199h-313l-79 -199h-110l297 714h98l296 -714h-111zM233 284h246q-69 176 -121 318h-4q-75 -201 -121 -318zM429 764l-70 86h-4l-69 -86h-100l130 151h82l131 -151h-100z" glyph-name="Acircumflex" horiz-adv-x="714" unicode="Â"/>
<glyph d="M591 0l-78 199h-313l-79 -199h-110l297 714h98l296 -714h-111zM233 284h246q-69 176 -121 318h-4q-75 -201 -121 -318zM340 811q-38 18 -51 18q-22 0 -26 -25q-1 -7 -1 -14h-69q9 106 89 111q27 0 90 -28h1q37 -18 51 -18q24 0 26 35v4h70q-1 -101 -77 -110q-7 -1 -13 -1 q-32 1 -90 28z" glyph-name="Atilde" horiz-adv-x="714" unicode="Ã"/>
<glyph d="M591 0l-78 199h-313l-79 -199h-110l297 714h98l296 -714h-111zM233 284h246q-69 176 -121 318h-4q-75 -201 -121 -318zM213 788v97h92v-97h-92zM408 788v97h92v-97h-92z" glyph-name="Adieresis" horiz-adv-x="714" unicode="Ä"/>
<glyph d="M591 0l-78 199h-313l-79 -199h-110l297 714h98l296 -714h-111zM233 284h246q-69 176 -121 318h-4q-75 -201 -121 -318zM249 856q0 59 50 90q27 16 59 16q59 0 91 -48q17 -27 17 -58q0 -58 -49 -89q-28 -16 -59 -16q-61 0 -92 48q-17 26 -17 57zM408 856q0 38 -32 50 q-9 3 -18 3q-39 0 -49 -36q-2 -9 -2 -17q0 -40 34 -50q9 -2 17 -2q35 0 47 32q3 10 3 20z" glyph-name="Aring" horiz-adv-x="714" unicode="Å"/>
<glyph d="M1021 629h-374v-210h358v-84h-358v-247h374v-88h-471v208h-309l-115 -208h-115l413 714h597v-85zM289 293h261v336h-74z" glyph-name="AE" horiz-adv-x="1070" unicode="Æ"/>
<glyph d="M418 -15l-21 -22v-4q10 0 16 -2q51 -11 62 -61q3 -11 3 -23q0 -65 -62 -87q-23 -8 -49 -8q-37 0 -77 14v62h1q36 -19 70 -19q33 0 43 25q2 7 2 14q-2 32 -45 33q-23 0 -39 -7v57l28 29q-157 16 -238 141q-61 95 -61 231q0 191 115 293q90 79 223 79q153 2 238 -95 q55 -64 55 -138h-105q-10 60 -51 103q-44 44 -137 44q-136 0 -197 -113q-38 -71 -38 -173q0 -177 104 -250q56 -38 131 -38q97 1 142 50q46 50 54 121h105q0 -104 -79 -178q-75 -70 -193 -78z" glyph-name="Ccedilla" horiz-adv-x="734" unicode="Ç"/>
<glyph d="M174 629v-210h373v-84h-373v-247h389v-88h-490v714h490v-85h-389zM170 916h108l78 -150h-76z" glyph-name="Egrave" horiz-adv-x="612" unicode="È"/>
<glyph d="M174 629v-210h373v-84h-373v-247h389v-88h-490v714h490v-85h-389zM466 916l-110 -150h-76l78 150h108z" glyph-name="Eacute" horiz-adv-x="612" unicode="É"/>
<glyph d="M174 629v-210h373v-84h-373v-247h389v-88h-490v714h490v-85h-389zM390 764l-70 86h-4l-69 -86h-100l130 151h82l131 -151h-100z" glyph-name="Ecircumflex" horiz-adv-x="612" unicode="Ê"/>
<glyph d="M174 629v-210h373v-84h-373v-247h389v-88h-490v714h490v-85h-389zM175 788v97h92v-97h-92zM370 788v97h92v-97h-92z" glyph-name="Edieresis" horiz-adv-x="612" unicode="Ë"/>
<glyph d="M178 0h-101v714h101v-714zM-20 916h108l78 -150h-76z" glyph-name="Igrave" unicode="Ì"/>
<glyph d="M178 0h-101v714h101v-714zM276 916l-110 -150h-76l78 150h108z" glyph-name="Iacute" unicode="Í"/>
<glyph d="M178 0h-101v714h101v-714zM199 764l-70 86h-4l-69 -86h-100l130 151h82l131 -151h-100z" glyph-name="Icircumflex" unicode="Î"/>
<glyph d="M178 0h-101v714h101v-714zM-16 788v97h92v-97h-92zM179 788v97h92v-97h-92z" glyph-name="Idieresis" unicode="Ï"/>
<glyph d="M679 357q0 -214 -140 -305q-82 -52 -198 -52h-268v327h-74v81h74v306h268q190 0 278 -132q60 -89 60 -225zM576 357q0 188 -129 248q-51 24 -119 24h-154v-221h161v-81h-161v-242h154q167 0 223 134q25 59 25 138z" glyph-name="Eth" horiz-adv-x="731" unicode="Ð"/>
<glyph d="M653 714v-714h-107l-375 569h-4v-569h-94v714h112l370 -562h4v562h94zM347 811q-37 18 -51 18q-22 0 -26 -25q-1 -7 -1 -14h-69q9 106 89 111q27 0 90 -28h1q38 -18 51 -18q24 0 26 35v4h70q-1 -101 -77 -110q-7 -1 -13 -1q-32 1 -90 28z" glyph-name="Ntilde" horiz-adv-x="727" unicode="Ñ"/>
<glyph d="M720 357q0 -198 -119 -299q-88 -74 -215 -74q-169 0 -260 120q-75 99 -75 253q0 199 120 300q87 73 215 73q166 0 257 -118q77 -100 77 -255zM617 357q0 184 -108 254q-53 33 -123 33q-138 0 -197 -118q-35 -70 -35 -169q0 -183 108 -253q53 -34 124 -34q139 0 197 119 q34 69 34 168zM238 916h108l78 -150h-76z" glyph-name="Ograve" horiz-adv-x="772" unicode="Ò"/>
<glyph d="M720 357q0 -198 -119 -299q-88 -74 -215 -74q-169 0 -260 120q-75 99 -75 253q0 199 120 300q87 73 215 73q166 0 257 -118q77 -100 77 -255zM617 357q0 184 -108 254q-53 33 -123 33q-138 0 -197 -118q-35 -70 -35 -169q0 -183 108 -253q53 -34 124 -34q139 0 197 119 q34 69 34 168zM534 916l-110 -150h-76l78 150h108z" glyph-name="Oacute" horiz-adv-x="772" unicode="Ó"/>
<glyph d="M720 357q0 -198 -119 -299q-88 -74 -215 -74q-169 0 -260 120q-75 99 -75 253q0 199 120 300q87 73 215 73q166 0 257 -118q77 -100 77 -255zM617 357q0 184 -108 254q-53 33 -123 33q-138 0 -197 -118q-35 -70 -35 -169q0 -183 108 -253q53 -34 124 -34q139 0 197 119 q34 69 34 168zM457 764l-70 86h-4l-69 -86h-100l130 151h82l131 -151h-100z" glyph-name="Ocircumflex" horiz-adv-x="772" unicode="Ô"/>
<glyph d="M720 357q0 -198 -119 -299q-88 -74 -215 -74q-169 0 -260 120q-75 99 -75 253q0 199 120 300q87 73 215 73q166 0 257 -118q77 -100 77 -255zM617 357q0 184 -108 254q-53 33 -123 33q-138 0 -197 -118q-35 -70 -35 -169q0 -183 108 -253q53 -34 124 -34q139 0 197 119 q34 69 34 168zM369 811q-37 18 -51 18q-22 0 -26 -25q-1 -7 -1 -14h-69q9 106 89 111q27 0 90 -28h1q38 -18 51 -18q24 0 26 35v4h70q-1 -101 -77 -110q-7 -1 -13 -1q-32 1 -90 28z" glyph-name="Otilde" horiz-adv-x="772" unicode="Õ"/>
<glyph d="M720 357q0 -198 -119 -299q-88 -74 -215 -74q-169 0 -260 120q-75 99 -75 253q0 199 120 300q87 73 215 73q166 0 257 -118q77 -100 77 -255zM617 357q0 184 -108 254q-53 33 -123 33q-138 0 -197 -118q-35 -70 -35 -169q0 -183 108 -253q53 -34 124 -34q139 0 197 119 q34 69 34 168zM242 788v97h92v-97h-92zM437 788v97h92v-97h-92z" glyph-name="Odieresis" horiz-adv-x="772" unicode="Ö"/>
<glyph d="M433 532l54 -54l-154 -153l154 -153l-55 -54l-153 153l-153 -153l-55 54l153 153l-153 153l54 54l154 -153z" glyph-name="multiply" horiz-adv-x="558" unicode="×"/>
<glyph d="M720 690l-73 -85q73 -97 73 -248q0 -189 -113 -292q-89 -81 -221 -81q-124 1 -212 72l-70 -81l-53 49l73 85q-73 99 -73 248q0 189 113 292q90 81 222 81q125 -1 211 -72l70 81zM191 186l346 401q-59 57 -151 57q-130 0 -191 -109q-41 -73 -41 -178q0 -103 37 -171z M580 528l-345 -401q59 -57 151 -57q128 0 190 108q41 73 41 179q0 103 -37 171z" glyph-name="Oslash" horiz-adv-x="772" unicode="Ø"/>
<glyph d="M642 714v-456q0 -158 -115 -230q-71 -44 -169 -44q-155 0 -232 100q-53 70 -53 174v456h101v-446q0 -190 171 -197h13q168 0 182 165q1 16 1 32v446h101zM210 916h108l78 -150h-76z" glyph-name="Ugrave" horiz-adv-x="715" unicode="Ù"/>
<glyph d="M642 714v-456q0 -158 -115 -230q-71 -44 -169 -44q-155 0 -232 100q-53 70 -53 174v456h101v-446q0 -190 171 -197h13q168 0 182 165q1 16 1 32v446h101zM506 916l-110 -150h-76l78 150h108z" glyph-name="Uacute" horiz-adv-x="715" unicode="Ú"/>
<glyph d="M642 714v-456q0 -158 -115 -230q-71 -44 -169 -44q-155 0 -232 100q-53 70 -53 174v456h101v-446q0 -190 171 -197h13q168 0 182 165q1 16 1 32v446h101zM429 764l-70 86h-4l-69 -86h-100l130 151h82l131 -151h-100z" glyph-name="Ucircumflex" horiz-adv-x="715" unicode="Û"/>
<glyph d="M642 714v-456q0 -158 -115 -230q-71 -44 -169 -44q-155 0 -232 100q-53 70 -53 174v456h101v-446q0 -190 171 -197h13q168 0 182 165q1 16 1 32v446h101zM214 788v97h92v-97h-92zM409 788v97h92v-97h-92z" glyph-name="Udieresis" horiz-adv-x="715" unicode="Ü"/>
<glyph d="M524 714h110l-259 -432v-282h-101v281l-259 433h112l199 -346zM474 916l-110 -150h-76l78 150h108z" glyph-name="Yacute" horiz-adv-x="650" unicode="Ý"/>
<glyph d="M620 374q0 -136 -109 -187q-52 -23 -122 -23h-215v-164h-101v714h101v-130h215q155 0 209 -106q22 -45 22 -104zM519 373q0 104 -103 122q-19 3 -41 3h-201v-250h201q118 0 140 88q4 18 4 37z" glyph-name="Thorn" horiz-adv-x="660" unicode="Þ"/>
<glyph d="M442 402v-4q141 -35 142 -189q0 -115 -72 -168t-188 -53q-38 0 -70 7v78q34 -8 69 -8q106 0 147 70q18 32 18 74q0 104 -96 134q-32 10 -70 10h-68v71h53q89 0 126 56q18 28 18 62q0 76 -74 105q-32 12 -71 12q-116 0 -140 -101q-5 -24 -5 -51v-507h-94v507 q0 159 126 209q49 20 113 20q108 -1 172 -51q66 -52 66 -140q0 -93 -80 -134q-11 -5 -22 -9z" glyph-name="germandbls" horiz-adv-x="627" unicode="ß"/>
<glyph d="M503 0h-91q-19 20 -19 70v2q-41 -65 -139 -81q-21 -3 -42 -3q-88 0 -138 60q-35 42 -35 97q2 139 173 165l102 14q71 9 77 55q1 6 1 12q0 49 -62 65q-22 6 -48 6q-113 0 -125 -83q-1 -5 -1 -10h-93q0 110 105 151q50 19 114 19q146 0 189 -85q15 -30 15 -66v-304 q1 -67 17 -84zM309 251l-68 -11q-105 -18 -106 -95q0 -66 66 -79q14 -3 29 -3q83 0 129 53q33 38 33 93v66q-15 -14 -83 -24zM134 739h108l78 -150h-76z" glyph-name="agrave" horiz-adv-x="553" unicode="à"/>
<glyph d="M503 0h-91q-19 20 -19 70v2q-41 -65 -139 -81q-21 -3 -42 -3q-88 0 -138 60q-35 42 -35 97q2 139 173 165l102 14q71 9 77 55q1 6 1 12q0 49 -62 65q-22 6 -48 6q-113 0 -125 -83q-1 -5 -1 -10h-93q0 110 105 151q50 19 114 19q146 0 189 -85q15 -30 15 -66v-304 q1 -67 17 -84zM309 251l-68 -11q-105 -18 -106 -95q0 -66 66 -79q14 -3 29 -3q83 0 129 53q33 38 33 93v66q-15 -14 -83 -24zM430 739l-110 -150h-76l78 150h108z" glyph-name="aacute" horiz-adv-x="553" unicode="á"/>
<glyph d="M503 0h-91q-19 20 -19 70v2q-41 -65 -139 -81q-21 -3 -42 -3q-88 0 -138 60q-35 42 -35 97q2 139 173 165l102 14q71 9 77 55q1 6 1 12q0 49 -62 65q-22 6 -48 6q-113 0 -125 -83q-1 -5 -1 -10h-93q0 110 105 151q50 19 114 19q146 0 189 -85q15 -30 15 -66v-304 q1 -67 17 -84zM309 251l-68 -11q-105 -18 -106 -95q0 -66 66 -79q14 -3 29 -3q83 0 129 53q33 38 33 93v66q-15 -14 -83 -24zM354 589l-70 86h-4l-69 -86h-100l130 150h82l131 -150h-100z" glyph-name="acircumflex" horiz-adv-x="553" unicode="â"/>
<glyph d="M503 0h-91q-19 20 -19 70v2q-41 -65 -139 -81q-21 -3 -42 -3q-88 0 -138 60q-35 42 -35 97q2 139 173 165l102 14q71 9 77 55q1 6 1 12q0 49 -62 65q-22 6 -48 6q-113 0 -125 -83q-1 -5 -1 -10h-93q0 110 105 151q50 19 114 19q146 0 189 -85q15 -30 15 -66v-304 q1 -67 17 -84zM309 251l-68 -11q-105 -18 -106 -95q0 -66 66 -79q14 -3 29 -3q83 0 129 53q33 38 33 93v66q-15 -14 -83 -24zM266 637q-38 18 -51 18q-22 0 -26 -25q-1 -7 -1 -14h-69q9 106 89 111q27 0 90 -28h1q37 -18 51 -18q24 0 26 35v4h70q-1 -101 -77 -110 q-7 -1 -13 -1q-32 1 -90 28z" glyph-name="atilde" horiz-adv-x="553" unicode="ã"/>
<glyph d="M503 0h-91q-19 20 -19 70v2q-41 -65 -139 -81q-21 -3 -42 -3q-88 0 -138 60q-35 42 -35 97q2 139 173 165l102 14q71 9 77 55q1 6 1 12q0 49 -62 65q-22 6 -48 6q-113 0 -125 -83q-1 -5 -1 -10h-93q0 110 105 151q50 19 114 19q146 0 189 -85q15 -30 15 -66v-304 q1 -67 17 -84zM309 251l-68 -11q-105 -18 -106 -95q0 -66 66 -79q14 -3 29 -3q83 0 129 53q33 38 33 93v66q-15 -14 -83 -24zM139 620v97h92v-97h-92zM334 620v97h92v-97h-92z" glyph-name="adieresis" horiz-adv-x="553" unicode="ä"/>
<glyph d="M503 0h-91q-19 20 -19 70v2q-41 -65 -139 -81q-21 -3 -42 -3q-88 0 -138 60q-35 42 -35 97q2 139 173 165l102 14q71 9 77 55q1 6 1 12q0 49 -62 65q-22 6 -48 6q-113 0 -125 -83q-1 -5 -1 -10h-93q0 110 105 151q50 19 114 19q146 0 189 -85q15 -30 15 -66v-304 q1 -67 17 -84zM309 251l-68 -11q-105 -18 -106 -95q0 -66 66 -79q14 -3 29 -3q83 0 129 53q33 38 33 93v66q-15 -14 -83 -24zM174 692q0 58 50 89q27 16 59 16q59 0 91 -48q17 -26 17 -57q0 -59 -49 -90q-27 -16 -59 -16q-61 0 -92 48q-17 27 -17 58zM333 692q0 37 -32 49 q-9 3 -18 3q-39 0 -49 -35q-2 -9 -2 -17q0 -42 36 -51q8 -2 15 -2q35 0 47 33q3 10 3 20z" glyph-name="aring" horiz-adv-x="553" unicode="å"/>
<glyph d="M848 242h-373q-1 -106 67 -153q36 -24 83 -24q101 2 121 91h95q-7 -85 -77 -131q-56 -37 -139 -37q-123 0 -186 102l-8 14q-27 -59 -85 -88q-58 -28 -124 -28q-80 0 -132 42q-51 44 -51 115q0 139 168 165l100 14q66 9 73 53q1 7 1 14q0 50 -59 66q-21 5 -45 5 q-111 0 -121 -85q-1 -5 -1 -8h-93q0 110 103 151q49 19 112 19q130 -1 179 -75q62 75 161 75q119 0 184 -95q48 -72 48 -179q0 -18 -1 -23zM477 315h276q-4 76 -57 119q-36 28 -82 28q-73 0 -113 -68q-21 -36 -24 -79zM381 209v66q-13 -14 -80 -24l-65 -11 q-100 -18 -101 -95q0 -71 72 -81q11 -1 22 -1q81 0 124 55q28 38 28 91z" glyph-name="ae" horiz-adv-x="893" unicode="æ"/>
<glyph d="M330 -10l-24 -27v-4q8 0 16 -2q51 -11 62 -61q3 -11 3 -23q0 -65 -62 -87q-23 -8 -50 -8q-36 0 -77 14v62h1q36 -19 71 -19q33 0 42 26q2 7 2 13q-2 32 -44 33q-24 0 -40 -7v57l32 33q-102 11 -160 84q-59 75 -59 190q0 149 95 224q66 51 158 51q120 0 181 -75 q33 -42 36 -91h-98q-21 88 -119 89q-98 0 -137 -91q-20 -46 -20 -107q0 -132 80 -179q34 -20 77 -20q104 2 121 98h98q-4 -66 -52 -115q-50 -49 -133 -58z" glyph-name="ccedilla" horiz-adv-x="550" unicode="ç"/>
<glyph d="M297 -12q-137 0 -206 102q-48 71 -48 173q0 148 91 224q63 52 152 52q127 0 194 -95q50 -71 50 -175v-5l-1 -22h-390q-1 -107 70 -153q38 -24 88 -24q109 1 130 91h95q-6 -79 -74 -126q-60 -42 -151 -42zM140 315h293q-4 74 -59 118q-39 29 -88 29q-78 0 -121 -68 q-22 -37 -25 -79zM140 739h108l78 -150h-76z" glyph-name="egrave" horiz-adv-x="576" unicode="è"/>
<glyph d="M297 -12q-137 0 -206 102q-48 71 -48 173q0 148 91 224q63 52 152 52q127 0 194 -95q50 -71 50 -175v-5l-1 -22h-390q-1 -107 70 -153q38 -24 88 -24q109 1 130 91h95q-6 -79 -74 -126q-60 -42 -151 -42zM140 315h293q-4 74 -59 118q-39 29 -88 29q-78 0 -121 -68 q-22 -37 -25 -79zM436 739l-110 -150h-76l78 150h108z" glyph-name="eacute" horiz-adv-x="576" unicode="é"/>
<glyph d="M297 -12q-137 0 -206 102q-48 71 -48 173q0 148 91 224q63 52 152 52q127 0 194 -95q50 -71 50 -175v-5l-1 -22h-390q-1 -107 70 -153q38 -24 88 -24q109 1 130 91h95q-6 -79 -74 -126q-60 -42 -151 -42zM140 315h293q-4 74 -59 118q-39 29 -88 29q-78 0 -121 -68 q-22 -37 -25 -79zM359 589l-70 86h-4l-69 -86h-100l130 150h82l131 -150h-100z" glyph-name="ecircumflex" horiz-adv-x="576" unicode="ê"/>
<glyph d="M297 -12q-137 0 -206 102q-48 71 -48 173q0 148 91 224q63 52 152 52q127 0 194 -95q50 -71 50 -175v-5l-1 -22h-390q-1 -107 70 -153q38 -24 88 -24q109 1 130 91h95q-6 -79 -74 -126q-60 -42 -151 -42zM140 315h293q-4 74 -59 118q-39 29 -88 29q-78 0 -121 -68 q-22 -37 -25 -79zM144 620v97h92v-97h-92zM339 620v97h92v-97h-92z" glyph-name="edieresis" horiz-adv-x="576" unicode="ë"/>
<glyph d="M67 0v527h94v-527h-94zM-34 739h108l78 -150h-76z" glyph-name="igrave" horiz-adv-x="228" unicode="ì"/>
<glyph d="M67 0v527h94v-527h-94zM262 739l-110 -150h-76l78 150h108z" glyph-name="iacute" horiz-adv-x="228" unicode="í"/>
<glyph d="M67 0v527h94v-527h-94zM186 589l-70 86h-4l-69 -86h-100l130 150h82l131 -150h-100z" glyph-name="icircumflex" horiz-adv-x="228" unicode="î"/>
<glyph d="M67 0v527h94v-527h-94zM-30 620v97h92v-97h-92zM165 620v97h92v-97h-92z" glyph-name="idieresis" horiz-adv-x="228" unicode="ï"/>
<glyph d="M551 259q0 -141 -93 -216q-67 -54 -160 -54q-124 0 -197 86q-58 68 -58 162q0 117 84 189q71 60 171 60q84 -1 142 -57h4q-35 100 -122 174l-88 -57l-46 45l80 52q-72 45 -157 77v4h140q47 -22 79 -41l89 58l45 -46l-78 -51q145 -114 162 -317q3 -33 3 -68zM455 237 q-1 74 -44 124q-44 49 -113 49q-73 -1 -116 -49q-44 -51 -44 -124q0 -97 68 -144q40 -28 92 -28q70 1 113 48q44 51 44 124z" glyph-name="eth" horiz-adv-x="595" unicode="ð"/>
<glyph d="M156 527v-71h4q55 82 165 83q81 -1 133 -48q54 -48 54 -141v-350h-94v320q0 116 -78 135q-19 5 -42 5q-70 0 -109 -62q-28 -44 -28 -107v-291h-94v527h89zM273 637q-37 18 -51 18q-22 0 -26 -25q-1 -7 -1 -14h-69q9 106 89 111q27 0 90 -28h1q38 -18 51 -18q24 0 26 35v4 h70q-1 -101 -77 -110q-7 -1 -13 -1q-32 1 -90 28z" glyph-name="ntilde" horiz-adv-x="579" unicode="ñ"/>
<glyph d="M548 264q0 -150 -95 -226q-65 -50 -157 -50q-133 0 -202 99q-51 72 -51 177q0 146 94 222q66 53 159 53q134 0 203 -101q49 -72 49 -174zM452 264q0 130 -78 177q-35 21 -78 21q-96 0 -136 -88q-21 -47 -21 -110q0 -130 78 -178q35 -21 79 -21q97 0 136 90q20 47 20 109z M148 739h108l78 -150h-76z" glyph-name="ograve" horiz-adv-x="592" unicode="ò"/>
<glyph d="M548 264q0 -150 -95 -226q-65 -50 -157 -50q-133 0 -202 99q-51 72 -51 177q0 146 94 222q66 53 159 53q134 0 203 -101q49 -72 49 -174zM452 264q0 130 -78 177q-35 21 -78 21q-96 0 -136 -88q-21 -47 -21 -110q0 -130 78 -178q35 -21 79 -21q97 0 136 90q20 47 20 109z M444 739l-110 -150h-76l78 150h108z" glyph-name="oacute" horiz-adv-x="592" unicode="ó"/>
<glyph d="M548 264q0 -150 -95 -226q-65 -50 -157 -50q-133 0 -202 99q-51 72 -51 177q0 146 94 222q66 53 159 53q134 0 203 -101q49 -72 49 -174zM452 264q0 130 -78 177q-35 21 -78 21q-96 0 -136 -88q-21 -47 -21 -110q0 -130 78 -178q35 -21 79 -21q97 0 136 90q20 47 20 109z M368 589l-70 86h-4l-69 -86h-100l130 150h82l131 -150h-100z" glyph-name="ocircumflex" horiz-adv-x="592" unicode="ô"/>
<glyph d="M548 264q0 -150 -95 -226q-65 -50 -157 -50q-133 0 -202 99q-51 72 -51 177q0 146 94 222q66 53 159 53q134 0 203 -101q49 -72 49 -174zM452 264q0 130 -78 177q-35 21 -78 21q-96 0 -136 -88q-21 -47 -21 -110q0 -130 78 -178q35 -21 79 -21q97 0 136 90q20 47 20 109z M279 637q-37 18 -51 18q-22 0 -26 -25q-1 -7 -1 -14h-69q9 106 89 111q27 0 90 -28h1q38 -18 51 -18q24 0 26 35v4h70q-1 -101 -77 -110q-7 -1 -13 -1q-32 1 -90 28z" glyph-name="otilde" horiz-adv-x="592" unicode="õ"/>
<glyph d="M548 264q0 -150 -95 -226q-65 -50 -157 -50q-133 0 -202 99q-51 72 -51 177q0 146 94 222q66 53 159 53q134 0 203 -101q49 -72 49 -174zM452 264q0 130 -78 177q-35 21 -78 21q-96 0 -136 -88q-21 -47 -21 -110q0 -130 78 -178q35 -21 79 -21q97 0 136 90q20 47 20 109z M152 620v97h92v-97h-92zM347 620v97h92v-97h-92z" glyph-name="odieresis" horiz-adv-x="592" unicode="ö"/>
<glyph d="M244 514q0 36 34 54q14 7 28 7q36 0 54 -32q7 -14 7 -29q0 -40 -35 -56q-12 -6 -26 -6q-40 0 -56 35q-6 13 -6 27zM71 365h470v-79h-470v79zM244 137q0 38 35 56q13 6 27 6q38 0 54 -34q7 -14 7 -28q0 -37 -33 -54q-13 -7 -28 -7q-39 0 -56 34q-6 13 -6 27z" glyph-name="divide" horiz-adv-x="611" unicode="÷"/>
<glyph d="M548 508l-54 -62q54 -74 54 -182q0 -150 -95 -226q-65 -50 -157 -50q-95 1 -160 53l-52 -59l-41 37l55 62q-55 74 -55 183q0 146 94 222q66 53 159 53q95 -1 160 -53l52 59zM161 152l238 270q-41 40 -103 40q-96 0 -136 -88q-21 -47 -21 -110q0 -64 22 -112zM431 375 l-238 -270q41 -40 103 -40q97 0 136 90q20 47 20 109q0 64 -21 111z" glyph-name="oslash" horiz-adv-x="592" unicode="ø"/>
<glyph d="M423 0v71h-4q-55 -82 -165 -83q-80 1 -134 48q-53 49 -53 141v350h94v-320q0 -116 78 -135q19 -5 42 -5q72 0 111 64q26 43 26 105v291h94v-527h-89zM142 739h108l78 -150h-76z" glyph-name="ugrave" horiz-adv-x="579" unicode="ù"/>
<glyph d="M423 0v71h-4q-55 -82 -165 -83q-80 1 -134 48q-53 49 -53 141v350h94v-320q0 -116 78 -135q19 -5 42 -5q72 0 111 64q26 43 26 105v291h94v-527h-89zM438 739l-110 -150h-76l78 150h108z" glyph-name="uacute" horiz-adv-x="579" unicode="ú"/>
<glyph d="M423 0v71h-4q-55 -82 -165 -83q-80 1 -134 48q-53 49 -53 141v350h94v-320q0 -116 78 -135q19 -5 42 -5q72 0 111 64q26 43 26 105v291h94v-527h-89zM361 589l-70 86h-4l-69 -86h-100l130 150h82l131 -150h-100z" glyph-name="ucircumflex" horiz-adv-x="579" unicode="û"/>
<glyph d="M423 0v71h-4q-55 -82 -165 -83q-80 1 -134 48q-53 49 -53 141v350h94v-320q0 -116 78 -135q19 -5 42 -5q72 0 111 64q26 43 26 105v291h94v-527h-89zM146 620v97h92v-97h-92zM341 620v97h92v-97h-92z" glyph-name="udieresis" horiz-adv-x="579" unicode="ü"/>
<glyph d="M414 527h101l-219 -556q-48 -117 -99 -147q-32 -19 -89 -20h-55v81h43q48 0 74 37q14 21 31 61l13 32l-206 512h104l102 -276q22 -61 45 -137h4q21 64 47 137zM411 739l-110 -150h-76l78 150h108z" glyph-name="yacute" horiz-adv-x="523" unicode="ý"/>
<glyph d="M566 264q0 -143 -88 -221q-63 -55 -150 -55q-98 0 -148 59q-9 10 -15 20h-4v-251h-94v908h94v-264h4q36 63 125 76q19 3 38 3q117 0 184 -93q54 -74 54 -182zM470 264q0 127 -78 176q-35 22 -80 22q-96 0 -136 -88q-21 -47 -21 -110q0 -128 77 -177q35 -22 80 -22 q95 0 136 87q22 48 22 112z" glyph-name="thorn" horiz-adv-x="610" unicode="þ"/>
</font>
</defs>
</svg>
