<?xml version="1.0" encoding="UTF-8"?>
<!DOCTYPE svg  PUBLIC '-//W3C//DTD SVG 1.1//EN'  'http://www.w3.org/Graphics/SVG/1.1/DTD/svg11.dtd'>
<svg version="1.1" xmlns="http://www.w3.org/2000/svg">
<defs>
<font id="Shapiro-95SuperExtd" horiz-adv-x="1176">
<font-face font-family="Shapiro 95 Super Extd" font-stretch="extra-expanded" font-weight="800" ascent="789" bbox="-162 -258 1590 1025" cap-height="714" descent="-211" panose-1="2 11 6 3 5 0 0 2 0 4" underline-position="-100" underline-thickness="50" unicode-range="U+0020-00FE" units-per-em="1000" x-height="542"/>
<missing-glyph/>
<glyph glyph-name="space" horiz-adv-x="351" unicode=" "/>
<glyph d="M350 282h-276l-42 305v127h361v-127zM49 0v229h326v-229h-326z" glyph-name="exclam" horiz-adv-x="425" unicode="!"/>
<glyph d="M223 354h-196v360h196v-360zM509 354h-197v360h197v-360z" glyph-name="quotedbl" horiz-adv-x="535" unicode='"'/>
<glyph d="M863 406h-134l-31 -111h139l-37 -128h-136l-46 -167h-188l46 167h-141l-46 -167h-188l46 167h-136l35 128h136l31 111h-140l36 128h139l45 165h188l-45 -165h140l45 165h187l-44 -165h136zM511 295l30 111h-140l-31 -111h141z" glyph-name="numbersign" horiz-adv-x="911" unicode="#"/>
<glyph d="M566 -11v-109h-101v109q-254 6 -350 59q-93 51 -105 174q-1 7 -1 14h358q18 -65 98 -77v105l-164 15q-190 17 -246 96q-30 44 -30 110q0 132 135 183q102 39 305 43v86h101v-87q274 -6 367 -85q60 -53 64 -144h-353q-12 47 -78 58v-90l183 -14q205 -15 256 -115 q19 -39 19 -92q-1 -94 -49 -144q-68 -71 -263 -88q-63 -5 -146 -7zM461 457h4v86q-89 -6 -90 -46q0 -25 36 -33q19 -5 50 -7zM662 208q0 30 -37 39q-19 5 -50 7l-9 1v-98q96 7 96 51z" glyph-name="dollar" horiz-adv-x="1041" unicode="$"/>
<glyph d="M534 509q0 -145 -117 -187q-56 -19 -140 -19q-190 0 -238 104q-19 42 -19 102q0 145 117 187q56 19 140 19q190 0 238 -104q19 -42 19 -102zM775 701h144l-468 -701h-144zM342 509q0 75 -50 82q-8 1 -15 1q-58 0 -64 -63q-1 -10 -1 -20q0 -77 55 -83h10q55 0 63 57 q2 12 2 26zM1205 192q0 -145 -117 -187q-56 -19 -140 -19q-190 0 -238 104q-19 42 -19 102q0 145 117 187q56 19 140 19q190 0 238 -104q19 -42 19 -102zM1013 192q0 77 -55 83h-10q-58 0 -64 -63q-1 -10 -1 -20q0 -77 55 -83h10q58 0 64 63q1 10 1 20z" glyph-name="percent" horiz-adv-x="1225" unicode="%"/>
<glyph d="M1214 0h-389l-54 37q-144 -53 -301 -53q-293 0 -389 77q-62 50 -62 137q0 125 111 176q29 13 66 23l39 10q-61 46 -74 95q-6 22 -6 50q0 112 131 152q89 26 254 26q268 0 347 -73q43 -40 43 -105q0 -98 -119 -144q-13 -6 -27 -10l-106 -35l110 -74q25 42 28 84h282 q-6 -120 -115 -217zM512 476l52 13q66 17 67 51q-2 46 -91 47q-87 0 -87 -48q0 -23 57 -62q1 -1 2 -1zM603 153l-183 126q-72 -34 -76 -72q2 -68 156 -68q52 0 103 14z" glyph-name="ampersand" horiz-adv-x="1201" unicode="&amp;"/>
<glyph d="M223 354h-196v360h196v-360z" glyph-name="quotesingle" horiz-adv-x="250" unicode="'"/>
<glyph d="M478 -172h-249q-44 29 -92 86q-50 58 -87 151q-38 96 -38 219t38 218q67 165 179 238h249q-60 -59 -118 -172q-58 -114 -58 -284q0 -171 58 -284q59 -114 118 -172z" glyph-name="parenleft" horiz-adv-x="488" unicode="("/>
<glyph d="M9 740h250q44 -29 92 -86q49 -57 87 -152q38 -96 38 -218q0 -124 -38 -219q-65 -160 -174 -234q-3 -2 -5 -3h-250q59 58 118 173q59 116 59 283q0 168 -59 283q-60 116 -118 173z" glyph-name="parenright" horiz-adv-x="488" unicode=")"/>
<glyph d="M575 545l-144 -90l144 -86l-90 -129l-105 84l1 -124h-168l2 124l-106 -84l-90 129l145 86l-145 90l90 124l106 -77l-2 122h168l-1 -122l105 77z" glyph-name="asterisk" horiz-adv-x="594" unicode="*"/>
<glyph d="M580 406v-157h-185v-190h-169v190h-185v157h185v190h169v-190h185z" glyph-name="plus" horiz-adv-x="622" unicode="+"/>
<glyph d="M368 268v-191q0 -179 -90 -246q-78 -58 -246 -58v101q135 2 136 126h-136v268h336z" glyph-name="comma" horiz-adv-x="401" unicode=","/>
<glyph d="M491 178h-459v208h459v-208z" glyph-name="hyphen" horiz-adv-x="524" unicode="-"/>
<glyph d="M32 0v268h336v-268h-336z" glyph-name="period" horiz-adv-x="401" unicode="."/>
<glyph d="M373 714h210l-361 -714h-210z" glyph-name="slash" horiz-adv-x="595" unicode="/"/>
<glyph d="M1071 351q0 -251 -218 -333q-119 -45 -308 -45q-375 0 -480 183q-45 79 -45 195q0 249 214 332q119 46 311 46q369 0 477 -175q49 -82 49 -203zM727 351q0 124 -120 150q-28 6 -62 6q-144 0 -174 -103q-7 -25 -7 -53q0 -119 111 -148q32 -8 70 -8q150 0 177 110 q5 22 5 46z" glyph-name="zero" horiz-adv-x="1091" unicode="0"/>
<glyph d="M607 702v-702h-327v362h-270v199h64q188 0 246 111q8 15 13 30h274z" glyph-name="one" horiz-adv-x="640" unicode="1"/>
<glyph d="M368 184h652v-184h-1005v28q1 115 50 186q53 72 134 109q84 37 213 69l150 36q88 21 101 47q5 10 5 21q-2 52 -117 52q-133 -1 -153 -83h-365q13 149 146 210q119 54 357 54q297 -1 402 -61q86 -51 89 -157q-3 -117 -82 -170q-66 -44 -225 -72l-261 -44q-68 -12 -91 -41z " glyph-name="two" horiz-adv-x="1049" unicode="2"/>
<glyph d="M1043 199q-3 -110 -81 -159q-100 -61 -397 -66q-20 -1 -41 -1q-297 2 -403 59q-85 45 -105 148q-5 24 -7 51h362q13 -61 103 -71q23 -3 51 -3q136 0 152 45q3 8 3 16q0 47 -67 57q-25 4 -59 4h-148v154h152q114 2 116 56q0 53 -122 58h-27q-126 -1 -146 -67h-339 q8 127 95 182q105 64 389 67q311 -1 415 -66q74 -48 77 -142q0 -108 -98 -143q-14 -4 -27 -7v-8q122 -20 145 -108q7 -26 7 -56z" glyph-name="three" horiz-adv-x="1061" unicode="3"/>
<glyph d="M565 99h-552v219l441 383h434v-420h122v-182h-122v-99h-323v99zM565 281v212h-6l-235 -204v-8h241z" glyph-name="four" horiz-adv-x="1024" unicode="4"/>
<glyph d="M974 701v-170h-619l-6 -91h8q97 41 254 41q272 0 360 -92q55 -58 55 -160q-2 -127 -88 -183q-106 -70 -411 -73h-8q-302 2 -408 68q-81 51 -92 165q-1 6 -1 11h357q20 -52 105 -59q18 -2 39 -2q126 0 145 51q4 12 4 26q0 57 -71 72q-31 6 -77 6q-84 0 -141 -23h-341 l31 413h905z" glyph-name="five" horiz-adv-x="1043" unicode="5"/>
<glyph d="M1049 229q0 -150 -151 -210q-120 -46 -346 -46q-283 2 -399 73q-108 67 -128 226q-4 36 -5 77q0 213 136 301q123 79 386 79q482 -1 505 -236h-359q-19 56 -146 56q-139 0 -174 -77q-10 -24 -13 -55h8q82 39 236 39q290 0 386 -76q64 -53 64 -151zM370 223q0 -57 97 -69 q29 -3 67 -3q130 0 152 44q6 13 6 28q0 48 -61 62q-36 8 -97 8q-136 0 -158 -44q-6 -12 -6 -26z" glyph-name="six" horiz-adv-x="1068" unicode="6"/>
<glyph d="M10 702h980v-111q-3 -79 -42 -136q-17 -24 -57 -68q-29 -31 -66 -68q-62 -63 -96 -103q-84 -102 -94 -216h-436q11 139 126 259t296 220v8l-611 -1v216z" glyph-name="seven" horiz-adv-x="1004" unicode="7"/>
<glyph d="M1043 521q-2 -116 -135 -148v-8q119 -21 144 -108q8 -28 8 -62q-3 -107 -81 -155q-100 -61 -401 -67h-38q-321 2 -429 61q-83 45 -90 148q-1 7 -1 13q0 120 100 157q24 8 52 13v8q-134 33 -135 148q2 107 98 154q110 52 405 54q316 -2 422 -64q78 -47 81 -144zM405 489 q0 -49 84 -58q23 -2 51 -2q120 0 133 45q2 7 2 15q0 49 -84 58q-23 2 -51 2q-120 0 -133 -45q-2 -7 -2 -15zM681 219q0 52 -93 60q-22 2 -48 2q-129 0 -141 -49q-1 -7 -1 -13q0 -53 100 -61q19 -1 42 -1q126 0 139 48q2 7 2 14z" glyph-name="eight" horiz-adv-x="1081" unicode="8"/>
<glyph d="M19 472q0 152 155 212q119 45 342 45q282 -2 398 -73q108 -66 129 -225q4 -37 5 -79q0 -213 -137 -301q-123 -78 -385 -78q-481 1 -506 236h360q19 -57 146 -57q140 0 174 78q10 24 12 54h-8q-82 -39 -235 -39q-290 0 -386 76q-64 53 -64 151zM698 478q0 55 -88 68 q-32 4 -77 4q-129 0 -151 -43q-6 -13 -6 -29q0 -47 60 -61q36 -8 97 -8q135 0 158 41q7 12 7 28z" glyph-name="nine" horiz-adv-x="1068" unicode="9"/>
<glyph d="M32 310v232h303v-232h-303zM32 0v232h303v-232h-303z" glyph-name="colon" horiz-adv-x="368" unicode=":"/>
<glyph d="M32 310v232h303v-232h-303zM335 232v-155q0 -184 -98 -249q-71 -45 -205 -45v91q96 0 110 95q2 15 2 31h-112v232h303z" glyph-name="semicolon" horiz-adv-x="368" unicode=";"/>
<glyph d="M42 386l540 212v-161l-293 -110v-6l293 -111v-161l-540 211v126z" glyph-name="less" horiz-adv-x="623" unicode="&lt;"/>
<glyph d="M580 517v-155h-539v155h539zM580 289v-155h-539v155h539z" glyph-name="equal" horiz-adv-x="621" unicode="="/>
<glyph d="M581 386v-126l-540 -211v161l293 111v6l-293 110v161z" glyph-name="greater" horiz-adv-x="623" unicode="&gt;"/>
<glyph d="M364 474h-344q5 103 61 159q76 76 259 91q67 6 157 6q282 -1 380 -54q84 -46 88 -146q-1 -68 -34 -105q-35 -36 -112 -64l-84 -30q-76 -30 -83 -63l-2 -9h-320v15q1 58 34 92q36 35 120 65l70 25q55 23 62 39q3 6 3 12q-2 46 -108 46q-128 -1 -147 -79zM326 0v210h328 v-210h-328z" glyph-name="question" horiz-adv-x="985" unicode="?"/>
<glyph d="M612 484h150l-56 -283q-1 -4 -1 -11q2 -24 28 -25q153 2 154 194q0 140 -117 217q-94 61 -233 61q-144 3 -250 -98q-105 -100 -118 -247q-1 -21 -1 -41q0 -177 120 -266q89 -66 228 -66q140 0 252 72q3 2 5 3h152q-57 -97 -196 -151q-103 -40 -217 -40q-224 -3 -362 129 q-125 119 -131 302v22q-3 183 120 323q117 132 293 165q54 11 109 10q189 3 333 -95q127 -85 154 -206q7 -31 6 -61q2 -200 -140 -285q-79 -47 -179 -47q-109 0 -129 44q-3 7 -4 15h-6q-46 -55 -128 -59h-17q-113 0 -151 91q-14 36 -14 81q1 125 77 203q57 59 139 59 q94 -1 114 -60h6zM453 348q-30 -50 -34 -116q2 -63 60 -64q41 1 66 37q29 37 34 101q1 8 1 14q-2 64 -59 65q-40 -1 -68 -37z" glyph-name="at" horiz-adv-x="1054" unicode="@"/>
<glyph d="M814 0l-42 83h-383l-42 -83h-360l384 714h421l381 -714h-359zM584 465h-8q-44 -93 -93 -195h195z" glyph-name="A" horiz-adv-x="1160" unicode="A"/>
<glyph d="M1065 211q0 -150 -125 -192q-57 -19 -141 -19h-767v714h759q231 0 246 -159q1 -12 1 -24q-2 -115 -110 -140v-8q136 -29 137 -172zM688 484q-2 52 -63 53h-265v-106h265q62 2 63 53zM706 228q-2 57 -69 58h-277v-116h277q68 2 69 58z" glyph-name="B" horiz-adv-x="1084" unicode="B"/>
<glyph d="M576 514q-154 0 -189 -100q-9 -26 -9 -57q0 -116 116 -147q37 -10 82 -10q130 0 165 80q7 16 9 34h388q-5 -237 -259 -308q-121 -34 -299 -34q-416 0 -521 203q-40 76 -40 182q0 264 252 345q123 40 309 40q462 0 540 -227q15 -46 16 -100h-387q-8 56 -77 83 q-42 16 -96 16z" glyph-name="C" horiz-adv-x="1157" unicode="C"/>
<glyph d="M1073 357q0 -228 -148 -307q-94 -50 -260 -50h-633v714h633q257 0 348 -125q60 -84 60 -232zM561 492h-201v-270h201q152 2 153 135q-4 133 -153 135z" glyph-name="D" horiz-adv-x="1092" unicode="D"/>
<glyph d="M360 533v-84h546v-164h-546v-93h582v-192h-910v714h902v-181h-574z" glyph-name="E" horiz-adv-x="966" unicode="E"/>
<glyph d="M941 494h-581v-103h551v-197h-551v-194h-328v714h909v-220z" glyph-name="F" horiz-adv-x="959" unicode="F"/>
<glyph d="M1141 392v-393h-213v80q-89 -90 -281 -105q-29 -2 -59 -2q-408 0 -521 189q-48 80 -48 197q0 256 239 339q128 45 329 45q521 0 550 -274q2 -12 2 -23h-387q-9 31 -61 52q-45 17 -105 17q-181 0 -205 -123q-3 -18 -3 -37q2 -164 218 -165q110 0 174 40q13 9 16 15h-168 v148h523z" glyph-name="G" horiz-adv-x="1168" unicode="G"/>
<glyph d="M734 714h328v-714h-328v251h-374v-251h-328v714h328v-244h374v244z" glyph-name="H" horiz-adv-x="1094" unicode="H"/>
<glyph d="M360 0h-328v714h328v-714z" glyph-name="I" horiz-adv-x="392" unicode="I"/>
<glyph d="M1014 714v-385q-3 -203 -132 -285q-116 -71 -369 -72q-275 2 -386 87q-108 83 -111 270v57h328v-45q2 -130 169 -131q172 2 173 131v373h328z" glyph-name="J" horiz-adv-x="1046" unicode="J"/>
<glyph d="M734 451l386 -451h-417l-217 264l-126 -98v-166h-328v714h328v-248l307 248h413z" glyph-name="K" horiz-adv-x="1108" unicode="K"/>
<glyph d="M945 0h-913v714h328v-475h585v-239z" glyph-name="L" horiz-adv-x="963" unicode="L"/>
<glyph d="M1282 714v-714h-328v443h-8l-181 -443h-233l-183 446h-9v-446h-308v714h485l128 -339h8l126 339h503z" glyph-name="M" horiz-adv-x="1314" unicode="M"/>
<glyph d="M754 714h309v-714h-373l-341 363h-8v-363h-309v714h377l337 -358h8v358z" glyph-name="N" horiz-adv-x="1095" unicode="N"/>
<glyph d="M1157 357q0 -254 -234 -339q-129 -46 -335 -46q-408 0 -521 188q-48 81 -48 197q0 254 234 339q129 46 335 46q408 0 521 -188q48 -81 48 -197zM798 357q0 121 -131 149q-36 8 -79 8q-174 0 -204 -112q-6 -21 -6 -45q0 -121 131 -149q36 -8 79 -8q174 0 204 112 q6 21 6 45z" glyph-name="O" unicode="O"/>
<glyph d="M1046 448q0 -161 -102 -219q-75 -43 -216 -43h-368v-186h-328v714h696q212 0 279 -101q39 -61 39 -165zM687 444q-2 65 -79 66h-248v-132h248q78 2 79 66z" glyph-name="P" horiz-adv-x="1058" unicode="P"/>
<glyph d="M902 11l42 -70l-142 -57l-58 95q-64 -7 -156 -7q-408 0 -521 188q-48 81 -48 197q0 254 234 339q129 46 335 46q408 0 521 -188q48 -81 48 -197q-1 -267 -255 -346zM701 336l54 -87q43 39 43 108q0 121 -131 149q-36 8 -79 8q-174 0 -204 -112q-6 -21 -6 -45 q0 -121 131 -149q36 -8 79 -8h19l-48 78z" glyph-name="Q" unicode="Q"/>
<glyph d="M915 249l171 -249h-379l-116 182h-231v-182h-328v714h730q219 0 279 -116q27 -53 27 -133q0 -153 -123 -197q-15 -5 -30 -9v-10zM702 430q-2 58 -70 59h-272v-118h272q69 2 70 59z" glyph-name="R" horiz-adv-x="1084" unicode="R"/>
<glyph d="M538 565q-138 -1 -139 -51q0 -27 38 -36q21 -5 54 -7l308 -23q210 -16 267 -114q25 -45 25 -107q0 -103 -57 -159q-58 -56 -172 -75q-116 -21 -313 -21q-195 0 -306 22q-176 34 -219 154q-13 39 -15 87h382q16 -62 85 -78q32 -7 80 -7q148 1 150 56q0 30 -37 40 q-20 5 -56 9l-293 26q-148 14 -220 61q-74 51 -74 159q3 135 130 190q117 50 388 51q301 -1 414 -67q97 -57 105 -178h-376q-18 68 -149 68z" glyph-name="S" horiz-adv-x="1109" unicode="S"/>
<glyph d="M1017 714v-247h-337v-467h-328v467h-336v247h1001z" glyph-name="T" horiz-adv-x="1032" unicode="T"/>
<glyph d="M728 714h328v-387q0 -212 -155 -293q-120 -62 -357 -62q-304 0 -420 105q-92 85 -92 250v387h328v-372q2 -131 184 -132q174 0 184 119v13v372z" glyph-name="U" horiz-adv-x="1088" unicode="U"/>
<glyph d="M712 714h387l-383 -714h-348l-383 714h385l109 -237q28 -59 57 -137h8q30 81 57 136z" glyph-name="V" horiz-adv-x="1085" unicode="V"/>
<glyph d="M1055 714h342l-234 -714h-353l-77 258q-15 49 -38 146h-8q-23 -98 -38 -147l-76 -257h-361l-227 714h343l62 -239q17 -65 33 -145h8q19 79 36 142l70 242h308l70 -242q17 -64 36 -142h8q17 82 33 147z" glyph-name="W" horiz-adv-x="1382" unicode="W"/>
<glyph d="M790 375l352 -375h-421l-157 181l-158 -181h-421l352 375l-312 339h406l134 -160l134 160h404z" glyph-name="X" horiz-adv-x="1127" unicode="X"/>
<glyph d="M1098 714l-393 -513v-201h-329v201l-394 513h395l164 -242l162 242h395z" glyph-name="Y" horiz-adv-x="1080" unicode="Y"/>
<glyph d="M979 505l-429 -288h429v-217h-961v209l429 288h-406v217h938v-209z" glyph-name="Z" horiz-adv-x="1001" unicode="Z"/>
<glyph d="M318 557v-545h159v-184h-445v912h445v-183h-159z" glyph-name="bracketleft" horiz-adv-x="497" unicode="["/>
<glyph d="M221 714l361 -714h-210l-361 714h210z" glyph-name="backslash" horiz-adv-x="593" unicode="\"/>
<glyph d="M179 557h-159v183h445v-912h-445v184h159v545z" glyph-name="bracketright" horiz-adv-x="498" unicode="]"/>
<glyph d="M463 699l225 -346h-215l-116 183h-6l-117 -183h-214l226 346h217z" glyph-name="asciicircum" horiz-adv-x="708" unicode="^"/>
<glyph d="M895 -105v-60h-897v60h897z" glyph-name="underscore" horiz-adv-x="893" unicode="_"/>
<glyph d="M32 764h386l97 -165h-264z" glyph-name="grave" horiz-adv-x="547" unicode="`"/>
<glyph d="M961 6v-6h-318q-10 14 -10 54v18q-81 -89 -279 -96q-17 -1 -34 -1q-134 0 -219 42q-83 45 -84 140q0 118 101 157q48 17 122 22l316 21q54 4 60 24q1 5 1 9q-2 36 -102 36q-96 -1 -119 -49h-342q10 107 109 150q98 40 346 41q154 0 250 -14q166 -23 188 -125q4 -19 4 -39 v-304q0 -59 10 -80zM628 234v14q-15 -8 -51 -13l-155 -20q-62 -9 -70 -39q-1 -6 -1 -13q0 -38 61 -43q12 -1 25 -1q83 0 136 28q54 29 55 87z" glyph-name="a" horiz-adv-x="971" unicode="a"/>
<glyph d="M609 557q372 -2 373 -291q-2 -290 -373 -291q-156 1 -258 79h-6v-54h-318v724h324v-241h6q101 74 252 74zM648 266q0 81 -95 96q-25 4 -56 4q-155 -1 -156 -100q2 -99 156 -100q134 0 149 76q2 12 2 24z" glyph-name="b" horiz-adv-x="999" unicode="b"/>
<glyph d="M632 231h358q-9 -141 -134 -201q-118 -55 -357 -55q-257 0 -370 74q-112 74 -112 222q1 149 112 222q114 75 370 75q337 0 438 -117q45 -53 52 -135h-356q-25 60 -134 60q-137 0 -146 -90q-1 -8 -1 -15q2 -102 147 -103q113 1 133 63z" glyph-name="c" horiz-adv-x="1007" unicode="c"/>
<glyph d="M642 483h6v241h324v-724h-318v54h-6q-101 -79 -258 -79q-372 2 -373 291q2 290 373 291q152 -1 252 -74zM658 266q-2 99 -156 100q-131 0 -147 -74q-3 -12 -3 -26q0 -80 90 -95q27 -5 60 -5q155 1 156 100z" glyph-name="d" horiz-adv-x="999" unicode="d"/>
<glyph d="M989 209h-636q10 -75 112 -86q19 -2 41 -2q111 1 134 45h344q-4 -57 -45 -99q-88 -92 -433 -92q-348 0 -445 137q-44 63 -44 159q0 184 171 252q116 45 317 45q258 0 372 -75q114 -76 115 -222q0 -38 -3 -62zM356 348h297q-21 74 -148 74q-129 -1 -149 -74z" glyph-name="e" horiz-adv-x="1009" unicode="e"/>
<glyph d="M436 557q0 -1 1 -6q1 -6 1 -9h165v-158h-165v-384h-324v384h-104v158h104v35q2 111 96 150q72 29 231 30q72 0 170 -12v-145q-51 3 -76 3q-81 0 -94 -25q-5 -9 -5 -21z" glyph-name="f" horiz-adv-x="625" unicode="f"/>
<glyph d="M651 542h317v-498q0 -97 -31 -144q-33 -50 -130 -72q-102 -23 -307 -23q-196 0 -299 23q-101 23 -136 65q-34 41 -40 112h353q23 -50 108 -53h14q105 0 131 34q14 20 14 58v68h-7q-93 -68 -250 -68q-357 0 -370 237q-1 10 -1 19q0 206 234 247q61 10 137 10 q160 -1 256 -72h7v57zM655 300q-2 83 -155 84q-136 0 -147 -70q-1 -7 -1 -14q0 -70 100 -82q22 -2 48 -2q154 1 155 84z" glyph-name="g" horiz-adv-x="996" unicode="g"/>
<glyph d="M926 343v-343h-324v231q0 84 -79 97q-16 2 -35 2q-137 -2 -138 -121v-209h-323v724h323v-251h6q103 84 281 84q255 0 285 -169q4 -22 4 -45z" glyph-name="h" horiz-adv-x="953" unicode="h"/>
<glyph d="M27 0v542h324v-542h-324zM25 599v129h328v-129h-328z" glyph-name="i" horiz-adv-x="378" unicode="i"/>
<glyph d="M27 61v481h324v-537q0 -91 -26 -132q-27 -42 -93 -56q-71 -14 -209 -14q-62 0 -100 2v223l53 -1q44 0 50 22q1 6 1 12zM25 599v129h328v-129h-328z" glyph-name="j" horiz-adv-x="378" unicode="j"/>
<glyph d="M653 330l315 -330h-398l-149 163l-71 -53v-110h-323v724h323v-350l211 168h378z" glyph-name="k" horiz-adv-x="957" unicode="k"/>
<glyph d="M27 0v724h324v-724h-324z" glyph-name="l" horiz-adv-x="378" unicode="l"/>
<glyph d="M345 542v-71h6q90 86 263 86q174 -1 231 -87q98 87 280 87q235 0 266 -163q5 -25 5 -51v-343h-323v249q-2 80 -91 81q-105 -8 -109 -101v-229h-323v249q-2 80 -91 81q-105 -8 -109 -101v-229h-323v542h318z" glyph-name="m" horiz-adv-x="1423" unicode="m"/>
<glyph d="M345 542v-70h6q111 85 287 85q259 0 286 -175q3 -20 3 -40v-342h-324v231q-2 98 -114 99q-137 -2 -138 -122v-208h-324v542h318z" glyph-name="n" horiz-adv-x="954" unicode="n"/>
<glyph d="M980 271q-1 -149 -112 -222q-114 -74 -369 -74q-257 0 -370 74q-112 74 -112 222q1 149 112 222q114 75 370 75q258 0 369 -75q112 -74 112 -222zM646 271q-4 103 -147 104q-146 -1 -147 -104q2 -102 147 -103q146 1 147 103z" glyph-name="o" horiz-adv-x="997" unicode="o"/>
<glyph d="M357 49h-6v-229h-324v722h318v-64h6q103 79 258 79q372 -2 373 -291q-2 -290 -373 -291q-152 1 -252 74zM341 266q2 -99 156 -100q134 0 149 76q2 12 2 24q0 81 -95 96q-25 4 -56 4q-155 -1 -156 -100z" glyph-name="p" horiz-adv-x="999" unicode="p"/>
<glyph d="M390 -25q-372 2 -373 291q2 290 373 291q158 -1 258 -79h6v64h318v-722h-324v229h-6q-101 -74 -252 -74zM352 266q0 -80 90 -95q27 -5 60 -5q155 1 156 100q-2 99 -156 100q-131 0 -147 -74q-3 -12 -3 -26z" glyph-name="q" horiz-adv-x="999" unicode="q"/>
<glyph d="M27 542h318v-81h6q59 51 128 73q73 23 184 23q44 0 76 -4v-286q-60 11 -132 11q-113 0 -185 -34q-72 -33 -72 -129v-115h-323v542z" glyph-name="r" horiz-adv-x="753" unicode="r"/>
<glyph d="M475 432q-103 0 -113 -25q-1 -5 -1 -9q0 -18 25 -24q17 -4 54 -7l308 -23q146 -11 195 -60q40 -40 40 -119q-1 -82 -52 -122q-51 -41 -153 -54q-105 -14 -280 -14q-168 0 -272 14q-171 24 -207 122q-9 27 -11 58h369q16 -45 70 -54q23 -4 55 -4q114 0 125 29q2 6 2 11 q0 20 -27 26q-16 4 -46 7l-283 26q-156 15 -207 62q-42 38 -42 110q1 78 52 118q75 56 269 65q56 3 129 3q158 0 264 -14q205 -29 221 -157q1 -7 1 -13h-360q-19 48 -125 48z" glyph-name="s" horiz-adv-x="999" unicode="s"/>
<glyph d="M595 223v-223q-27 -3 -80 -6t-103 -3q-185 2 -247 47q-55 39 -59 142q-1 8 -1 16v188h-104v158h104v144h324v-144h167v-158h-167v-124q0 -30 26 -37q14 -3 41 -3q60 0 99 3z" glyph-name="t" horiz-adv-x="619" unicode="t"/>
<glyph d="M607 0v70h-6q-112 -85 -286 -85q-265 0 -286 183q-2 16 -2 32v342h323v-231q2 -98 114 -99q137 2 138 122v208h324v-542h-319z" glyph-name="u" horiz-adv-x="953" unicode="u"/>
<glyph d="M618 542h366l-323 -542h-346l-324 542h366l65 -127q30 -58 64 -136h6q29 68 62 135z" glyph-name="v" horiz-adv-x="975" unicode="v"/>
<glyph d="M1044 542h353l-272 -542h-299l-68 164q-28 67 -53 140h-6q-25 -76 -51 -138l-69 -166h-312l-273 542h357l44 -106q26 -64 51 -139h6q25 78 51 139l44 106h301l46 -105q29 -65 53 -138h6q25 81 49 139z" glyph-name="w" horiz-adv-x="1392" unicode="w"/>
<glyph d="M726 282l291 -282h-402l-111 128l-110 -128h-403l291 282l-258 260h379l101 -118l101 118h380z" glyph-name="x" horiz-adv-x="1008" unicode="x"/>
<glyph d="M618 542h366l-303 -509q-79 -127 -138 -171q-64 -46 -184 -54q-29 -2 -65 -3h-224v222h123q68 1 84 25l8 14l-294 476h366l65 -127q30 -58 64 -136h6q29 68 62 135z" glyph-name="y" horiz-adv-x="975" unicode="y"/>
<glyph d="M880 0h-862v171l340 197h-318v174h840v-166l-342 -198h342v-178z" glyph-name="z" horiz-adv-x="906" unicode="z"/>
<glyph d="M301 287v-6q86 -18 99 -108q2 -14 2 -29v-71q0 -45 27 -55q16 -6 41 -6h55v-184h-208q-174 0 -198 101q-3 15 -3 30v151q0 59 -36 72q-19 6 -61 6v193q63 0 81 18q16 19 16 60v150q0 101 124 124q35 7 77 7h208v-183h-55q-55 0 -65 -32q-3 -11 -3 -29v-71 q-1 -114 -101 -138z" glyph-name="braceleft" horiz-adv-x="545" unicode="{"/>
<glyph d="M345 797v-1023h-313v1023h313z" glyph-name="bar" horiz-adv-x="376" unicode="|"/>
<glyph d="M143 425v71q0 45 -27 55q-16 6 -41 6h-55v183h208q174 0 198 -101q3 -15 3 -30v-150q0 -59 36 -72q19 -6 61 -6v-193q-63 0 -81 -18q-16 -19 -16 -60v-151q0 -101 -124 -124q-35 -7 -77 -7h-208v184h55q55 0 65 32q3 11 3 29v71q0 104 84 132q9 3 17 5v6 q-100 25 -101 138z" glyph-name="braceright" horiz-adv-x="545" unicode="}"/>
<glyph d="M580 447v-159q-61 -65 -117 -70h-11q-51 1 -111 31l-71 35q-58 27 -86 29q-8 1 -16 1q-41 0 -95 -51q-14 -13 -32 -31v160q56 51 88 61q19 6 39 6q48 0 111 -30q2 -1 3 -2l71 -35q58 -28 99 -29q45 0 114 70z" glyph-name="asciitilde" horiz-adv-x="621" unicode="~"/>
<glyph glyph-name="uni00A0" horiz-adv-x="125" unicode=" "/>
<glyph d="M49 542h326v-229h-326v229zM351 260l42 -305v-127h-360v127l41 305h277z" glyph-name="exclamdown" horiz-adv-x="425" unicode="¡"/>
<glyph d="M549 -25v-108h-102v109q-229 8 -330 81q-100 74 -100 214q1 142 100 215q103 74 330 82v91h102v-91q306 -8 395 -126q38 -51 45 -126h-356q-18 45 -84 56v-201q68 13 83 60h358q-9 -143 -138 -203q-106 -48 -303 -53zM447 171v201q-94 -18 -95 -101q0 -81 91 -99 q3 -1 4 -1z" glyph-name="cent" horiz-adv-x="1007" unicode="¢"/>
<glyph d="M713 233q70 0 139 15q73 17 114 47v-264q-18 -15 -83 -29q-63 -13 -126 -13q-152 0 -297 67q-68 -67 -225 -67q-190 0 -215 111q-4 18 -4 39q0 79 48 111q50 32 118 32q36 0 74 -14q-9 22 -27 42h-169v77h91q-57 53 -57 115q0 130 130 176q94 33 281 33q259 -1 361 -66 q93 -59 101 -184h-337q-10 65 -98 70h-11q-90 0 -90 -57q0 -28 38 -66q10 -10 23 -21h182v-77h-108q27 -22 27 -48q0 -11 -2 -17q71 -12 122 -12zM267 160q-33 17 -56 17q-44 0 -50 -34q-1 -5 -1 -9q0 -31 34 -38q7 -2 14 -2q52 0 58 48q1 9 1 18z" glyph-name="sterling" horiz-adv-x="983" unicode="£"/>
<glyph d="M571 225l68 -66l-101 -90l-65 63q-68 -39 -146 -39q-78 1 -145 39l-64 -63l-102 90l68 66q-42 65 -42 143q1 79 42 143l-67 66l101 90l64 -63q68 39 145 39q79 -1 146 -39l65 63l103 -90l-70 -66q42 -65 42 -143q-1 -79 -42 -143zM446 368q0 73 -57 105q-29 16 -62 16 q-69 0 -101 -56q-16 -29 -16 -65q0 -74 57 -106q28 -15 60 -15q69 0 102 55q17 29 17 66z" glyph-name="currency" horiz-adv-x="655" unicode="¤"/>
<glyph d="M1076 700l-217 -283h114v-99h-190l-37 -49h227v-98h-282v-171h-323v171h-282v98h226l-37 49h-189v99h113l-217 283h387l161 -237l159 237h387z" glyph-name="yen" horiz-adv-x="1057" unicode="¥"/>
<glyph d="M345 797v-436h-313v436h313zM345 210v-436h-313v436h313z" glyph-name="brokenbar" horiz-adv-x="376" unicode="¦"/>
<glyph d="M874 108q32 -42 32 -100q-1 -95 -50 -145q-65 -65 -225 -78q-60 -5 -145 -5q-138 0 -222 18q-145 31 -173 156q-7 30 -8 63h286q4 -60 72 -73q25 -5 60 -5q99 1 100 43q-2 29 -51 36l-324 58q-146 26 -189 85q-28 40 -28 109q2 111 123 158q-21 36 -21 84q3 136 118 183 q83 34 259 35q221 -1 305 -62q69 -52 76 -154h-289q-9 63 -102 64q-72 -1 -73 -38q0 -20 29 -26q3 -1 4 -1l310 -51q151 -25 196 -83q31 -41 31 -111q-1 -113 -101 -160zM343 258l310 -53l49 -10q8 18 8 28q0 29 -30 41q-17 6 -49 12l-310 54q-18 4 -50 9q-8 -15 -8 -27 q0 -31 32 -42q16 -6 48 -12z" glyph-name="section" horiz-adv-x="993" unicode="§"/>
<glyph d="M32 599v129h281v-129h-281zM382 599v129h281v-129h-281z" glyph-name="dieresis" horiz-adv-x="695" unicode="¨"/>
<glyph d="M19 377q-3 132 91 235q92 101 221 115q21 2 41 2q132 2 236 -92q101 -91 114 -220q2 -20 2 -40q3 -131 -91 -235q-90 -100 -217 -115q-23 -2 -44 -2q-131 -3 -235 90q-100 90 -116 216q-3 24 -2 46zM648 377q2 109 -79 192t-190 84h-7q-109 2 -193 -79q-82 -80 -84 -188 v-9q-2 -110 79 -193t190 -84h8q110 -2 193 80q83 81 83 191v6zM373 201q-125 0 -161 99q-13 35 -13 78q0 133 106 166q31 10 68 10q114 0 151 -76q12 -25 14 -54h-107q-3 44 -58 45q-64 -2 -65 -91q1 -92 65 -93q54 0 59 45q1 5 1 10h108q-6 -94 -90 -126q-35 -13 -78 -13z " glyph-name="copyright" horiz-adv-x="743" unicode="©"/>
<glyph d="M551 387v-3h-191q-12 14 -12 29v13q-40 -52 -144 -57h-18q-150 0 -164 90q-1 9 -1 17q0 81 87 101q17 3 37 5l156 12q36 7 38 18q-2 16 -46 16q-46 -1 -49 -24h-201q4 81 109 104q53 11 136 11q178 0 226 -41q26 -24 26 -63v-180q1 -34 11 -48zM345 522v6q-7 -5 -29 -9 l-64 -12q-30 -7 -31 -25q2 -21 38 -21q71 0 84 44q2 9 2 17zM20 128h535v-128h-535v128z" glyph-name="ordfeminine" horiz-adv-x="574" unicode="ª"/>
<glyph d="M28 423l226 125v-214l-115 -59v-6l115 -59v-214l-226 125v302zM291 423l226 125v-214l-115 -59v-6l115 -59v-214l-226 125v302z" glyph-name="guillemotleft" horiz-adv-x="546" unicode="«"/>
<glyph d="M579 451v-295h-165v139h-373v156h538z" glyph-name="logicalnot" horiz-adv-x="621" unicode="¬"/>
<glyph d="M724 377q3 -131 -91 -235q-90 -100 -217 -115q-23 -2 -44 -2q-131 -3 -235 90q-100 90 -116 216q-3 24 -2 46q-3 132 91 235q92 101 221 115q21 2 41 2q132 2 236 -92q101 -91 114 -220q2 -20 2 -40zM648 377q2 109 -79 192t-190 84h-7q-109 2 -193 -79q-82 -80 -84 -188 v-9q-2 -110 79 -193t190 -84h8q110 -2 193 80q83 81 83 191v6zM469 329l73 -120h-121l-57 106h-41v-106h-105v338h180q99 0 125 -71q7 -21 7 -45q-1 -76 -61 -102zM323 468v-74h55q44 2 45 37q-4 35 -45 37h-55z" glyph-name="registered" horiz-adv-x="743" unicode="®"/>
<glyph d="M552 612h-520v129h520v-129z" glyph-name="overscore" horiz-adv-x="584" unicode="¯"/>
<glyph d="M18 529q0 97 74 150q49 34 113 34q95 0 148 -69q38 -49 38 -115q0 -97 -73 -149q-49 -35 -113 -35q-96 0 -150 70q-37 48 -37 114zM277 529q0 53 -42 72q-14 6 -30 6q-54 0 -70 -49q-4 -14 -4 -29q0 -57 46 -73q13 -4 28 -4q50 0 67 45q5 16 5 32z" glyph-name="degree" horiz-adv-x="409" unicode="°"/>
<glyph d="M579 455v-142h-186v-140h-166v140h-186v142h186v140h166v-140h186zM41 128h538v-128h-538v128z" glyph-name="plusminus" horiz-adv-x="621" unicode="±"/>
<glyph d="M232 409h391v-111h-608v17q3 111 80 160q50 32 162 58l89 21q54 13 60 30q1 5 1 9q-2 29 -68 29q-75 -1 -89 -47h-224q9 99 109 133q70 24 195 24q212 0 269 -54q30 -29 30 -76q0 -78 -67 -111q-40 -20 -119 -33l-160 -26q-41 -6 -51 -23z" glyph-name="uni00B2" horiz-adv-x="650" unicode="²"/>
<glyph d="M635 416q0 -76 -70 -105q-71 -30 -244 -30q-199 2 -260 44q-46 33 -52 110h223q15 -41 90 -42q88 1 89 35q0 34 -63 36h-10h-88v92h90q67 1 68 33q-10 32 -86 33q-75 -1 -86 -39h-209q5 87 78 119q67 30 216 30q213 0 269 -52q29 -27 29 -72q0 -63 -54 -82q-11 -4 -22 -5 v-8q91 -15 92 -97z" glyph-name="uni00B3" horiz-adv-x="653" unicode="³"/>
<glyph d="M515 764l-220 -165h-263l96 165h387z" glyph-name="acute" horiz-adv-x="547" unicode="´"/>
<glyph d="M765 713v-897h-193v749h-77v-749h-193v447h-14q-229 0 -263 166q-6 28 -6 59q0 181 180 217q42 8 91 8h475z" glyph-name="paragraph" horiz-adv-x="797" unicode="¶"/>
<glyph d="M20 321q0 115 106 151q41 14 93 14q144 0 187 -93q14 -33 14 -72q0 -118 -111 -153q-40 -12 -90 -12q-149 0 -188 100q-11 29 -11 65z" glyph-name="middot" horiz-adv-x="440" unicode="·"/>
<glyph d="M335 22l-79 -74q18 5 60 5q145 0 170 -65q6 -17 6 -37q0 -65 -63 -88q-59 -21 -206 -21q-118 0 -191 19v84h8q67 -18 173 -18q74 1 75 23q0 23 -64 24h-11q-66 0 -109 -8h-8v50l113 106h126z" glyph-name="cedilla" horiz-adv-x="524" unicode="¸"/>
<glyph d="M374 715v-417h-202v212h-162v122h39q124 1 156 83h169z" glyph-name="uni00B9" horiz-adv-x="406" unicode="¹"/>
<glyph d="M556 545q0 -132 -145 -165q-53 -11 -124 -11q-226 0 -260 122q-7 25 -7 54q0 139 166 167q45 7 101 7q251 0 268 -151q1 -12 1 -23zM354 545q-2 53 -67 54q-66 -2 -67 -54q2 -55 67 -56q66 2 67 56zM20 128h536v-128h-536v128z" glyph-name="ordmasculine" horiz-adv-x="575" unicode="º"/>
<glyph d="M255 423v-302l-226 -125v214l115 59v6l-115 59v214zM518 423v-302l-226 -125v214l115 59v6l-115 59v214z" glyph-name="guillemotright" horiz-adv-x="546" unicode="»"/>
<glyph d="M659 542v-210h-328v210h328zM621 68h344q-11 -142 -111 -199q-95 -53 -333 -57h-33q-281 1 -380 53q-85 46 -88 147q1 70 34 105q35 35 113 64l83 30q74 28 83 59q1 3 1 5l2 9h320v-16q-1 -58 -35 -93q-35 -34 -120 -64l-70 -25q-57 -19 -63 -40q-2 -6 -2 -11 q2 -46 108 -46q125 0 146 75q1 2 1 4z" glyph-name="questiondown" horiz-adv-x="985" unicode="¿"/>
<glyph d="M814 0l-42 83h-383l-42 -83h-360l384 714h421l381 -714h-359zM584 465h-8q-44 -93 -93 -195h195zM231 928h386l97 -157h-264z" glyph-name="Agrave" horiz-adv-x="1160" unicode="À"/>
<glyph d="M814 0l-42 83h-383l-42 -83h-360l384 714h421l381 -714h-359zM584 465h-8q-44 -93 -93 -195h195zM933 928l-220 -157h-263l96 157h387z" glyph-name="Aacute" horiz-adv-x="1160" unicode="Á"/>
<glyph d="M814 0l-42 83h-383l-42 -83h-360l384 714h421l381 -714h-359zM584 465h-8q-44 -93 -93 -195h195zM638 771l-53 72h-6l-53 -72h-293l139 157h421l139 -157h-294z" glyph-name="Acircumflex" horiz-adv-x="1160" unicode="Â"/>
<glyph d="M814 0l-42 83h-383l-42 -83h-360l384 714h421l381 -714h-359zM584 465h-8q-44 -93 -93 -195h195zM587 783q-65 18 -93 18q-29 -6 -31 -30h-189q0 106 73 156q40 26 89 26q50 0 139 -24q66 -17 94 -17q29 4 30 30h189q0 -105 -74 -155q-40 -27 -90 -27q-48 0 -137 23z" glyph-name="Atilde" horiz-adv-x="1160" unicode="Ã"/>
<glyph d="M814 0l-42 83h-383l-42 -83h-360l384 714h421l381 -714h-359zM584 465h-8q-44 -93 -93 -195h195zM266 780v129h281v-129h-281zM616 780v129h281v-129h-281z" glyph-name="Adieresis" horiz-adv-x="1160" unicode="Ä"/>
<glyph d="M814 0l-42 83h-383l-42 -83h-360l384 714h421l381 -714h-359zM584 465h-8q-44 -93 -93 -195h195zM386 883q0 83 84 121q48 21 111 21q119 0 171 -65q26 -34 26 -77q0 -81 -82 -119q-50 -23 -115 -23q-119 0 -170 66q-25 33 -25 76zM634 883q0 31 -35 40q-9 2 -18 2 q-41 0 -50 -30q-2 -6 -2 -12q0 -32 35 -40q9 -2 17 -2q41 0 51 30q2 6 2 12z" glyph-name="Aring" horiz-adv-x="1160" unicode="Å"/>
<glyph d="M1078 187h512v-187h-830v83h-336l-58 -83h-379l521 714h1075v-189h-505v-84h477v-163h-477v-91zM556 272h204v253h-27z" glyph-name="AE" horiz-adv-x="1614" unicode="Æ"/>
<glyph d="M643 -27l-27 -25q18 5 60 5q145 0 170 -65q6 -17 6 -37q0 -65 -63 -88q-59 -21 -206 -21q-118 0 -191 19v84h8q67 -18 173 -18q74 1 75 23q0 23 -64 24h-11q-13 0 -58 -2q-35 -3 -51 -6h-8v50l61 57q-390 15 -473 235q-25 66 -25 149q0 264 252 345q123 40 309 40 q462 0 540 -227q15 -46 16 -100h-387q-8 56 -77 83q-42 16 -96 16q-154 0 -189 -100q-9 -26 -9 -57q0 -116 116 -147q37 -10 82 -10q130 0 165 80q7 16 9 34h388q-5 -234 -251 -306q-101 -30 -244 -35z" glyph-name="Ccedilla" horiz-adv-x="1157" unicode="Ç"/>
<glyph d="M360 533v-84h546v-164h-546v-93h582v-192h-910v714h902v-181h-574zM132 928h386l97 -157h-264z" glyph-name="Egrave" horiz-adv-x="966" unicode="È"/>
<glyph d="M360 533v-84h546v-164h-546v-93h582v-192h-910v714h902v-181h-574zM834 928l-220 -157h-263l96 157h387z" glyph-name="Eacute" horiz-adv-x="966" unicode="É"/>
<glyph d="M360 533v-84h546v-164h-546v-93h582v-192h-910v714h902v-181h-574zM539 771l-53 72h-6l-53 -72h-293l139 157h421l139 -157h-294z" glyph-name="Ecircumflex" horiz-adv-x="966" unicode="Ê"/>
<glyph d="M360 533v-84h546v-164h-546v-93h582v-192h-910v714h902v-181h-574zM167 780v129h281v-129h-281zM517 780v129h281v-129h-281z" glyph-name="Edieresis" horiz-adv-x="966" unicode="Ë"/>
<glyph d="M360 0h-328v714h328v-714zM-155 928h386l97 -157h-264z" glyph-name="Igrave" horiz-adv-x="392" unicode="Ì"/>
<glyph d="M360 0h-328v714h328v-714zM547 928l-220 -157h-263l96 157h387z" glyph-name="Iacute" horiz-adv-x="392" unicode="Í"/>
<glyph d="M360 0h-328v714h328v-714zM252 771l-53 72h-6l-53 -72h-293l139 157h421l139 -157h-294z" glyph-name="Icircumflex" horiz-adv-x="392" unicode="Î"/>
<glyph d="M360 0h-328v714h328v-714zM-120 780v129h281v-129h-281zM230 780v129h281v-129h-281z" glyph-name="Idieresis" horiz-adv-x="392" unicode="Ï"/>
<glyph d="M1073 357q0 -228 -148 -307q-94 -50 -260 -50h-633v301h-43v114h43v299h633q257 0 348 -125q60 -84 60 -232zM714 357q-4 133 -153 135h-201v-80h175v-109h-175v-81h201q152 2 153 135z" glyph-name="Eth" horiz-adv-x="1092" unicode="Ð"/>
<glyph d="M754 714h309v-714h-373l-341 363h-8v-363h-309v714h377l337 -358h8v358zM553 783q-65 18 -93 18q-29 -6 -31 -30h-189q0 106 73 156q40 26 89 26q50 0 139 -24q66 -17 94 -17q29 4 30 30h189q0 -105 -74 -155q-40 -27 -90 -27q-48 0 -137 23z" glyph-name="Ntilde" horiz-adv-x="1095" unicode="Ñ"/>
<glyph d="M1157 357q0 -254 -234 -339q-129 -46 -335 -46q-408 0 -521 188q-48 81 -48 197q0 254 234 339q129 46 335 46q408 0 521 -188q48 -81 48 -197zM798 357q0 121 -131 149q-36 8 -79 8q-174 0 -204 -112q-6 -21 -6 -45q0 -121 131 -149q36 -8 79 -8q174 0 204 112 q6 21 6 45zM237 929h386l97 -157h-264z" glyph-name="Ograve" unicode="Ò"/>
<glyph d="M1157 357q0 -254 -234 -339q-129 -46 -335 -46q-408 0 -521 188q-48 81 -48 197q0 254 234 339q129 46 335 46q408 0 521 -188q48 -81 48 -197zM798 357q0 121 -131 149q-36 8 -79 8q-174 0 -204 -112q-6 -21 -6 -45q0 -121 131 -149q36 -8 79 -8q174 0 204 112 q6 21 6 45zM939 929l-220 -157h-263l96 157h387z" glyph-name="Oacute" unicode="Ó"/>
<glyph d="M1157 357q0 -254 -234 -339q-129 -46 -335 -46q-408 0 -521 188q-48 81 -48 197q0 254 234 339q129 46 335 46q408 0 521 -188q48 -81 48 -197zM798 357q0 121 -131 149q-36 8 -79 8q-174 0 -204 -112q-6 -21 -6 -45q0 -121 131 -149q36 -8 79 -8q174 0 204 112 q6 21 6 45zM644 772l-53 73h-6l-53 -73h-293l139 157h421l139 -157h-294z" glyph-name="Ocircumflex" unicode="Ô"/>
<glyph d="M1157 357q0 -254 -234 -339q-129 -46 -335 -46q-408 0 -521 188q-48 81 -48 197q0 254 234 339q129 46 335 46q408 0 521 -188q48 -81 48 -197zM798 357q0 121 -131 149q-36 8 -79 8q-174 0 -204 -112q-6 -21 -6 -45q0 -121 131 -149q36 -8 79 -8q174 0 204 112 q6 21 6 45zM594 785q-66 17 -93 17q-29 -6 -31 -30h-189q0 106 73 156q40 27 89 27q39 0 128 -21l1 -1h1h1h1l1 -1h1h1h1l1 -1h1h1q70 -18 94 -18q29 2 30 31h189q0 -105 -73 -155q-41 -28 -91 -28q-42 0 -137 24z" glyph-name="Otilde" unicode="Õ"/>
<glyph d="M1157 357q0 -254 -234 -339q-129 -46 -335 -46q-408 0 -521 188q-48 81 -48 197q0 254 234 339q129 46 335 46q408 0 521 -188q48 -81 48 -197zM798 357q0 121 -131 149q-36 8 -79 8q-174 0 -204 -112q-6 -21 -6 -45q0 -121 131 -149q36 -8 79 -8q174 0 204 112 q6 21 6 45zM272 782v128h281v-128h-281zM622 782v128h281v-128h-281z" glyph-name="Odieresis" unicode="Ö"/>
<glyph d="M557 481l-151 -154l151 -154l-108 -109l-150 154l-150 -154l-108 109l150 154l-150 154l108 110l150 -154l150 154z" glyph-name="multiply" horiz-adv-x="599" unicode="×"/>
<glyph d="M1157 357q0 -254 -234 -339q-129 -46 -335 -46q-229 0 -361 57l-100 -70l-96 65l95 66q-107 96 -107 267q0 254 234 339q129 46 335 46q230 0 362 -57l100 69l96 -65l-95 -65q106 -95 106 -267zM378 357q1 -47 19 -77l299 219q-46 16 -108 16q-170 0 -203 -108 q-7 -23 -7 -50zM798 357q0 48 -19 78l-299 -220q47 -16 108 -16q170 0 203 108q7 23 7 50z" glyph-name="Oslash" unicode="Ø"/>
<glyph d="M728 714h328v-387q0 -212 -155 -293q-120 -62 -357 -62q-304 0 -420 105q-92 85 -92 250v387h328v-372q2 -131 184 -132q174 0 184 119v13v372zM192 928h386l97 -157h-264z" glyph-name="Ugrave" horiz-adv-x="1088" unicode="Ù"/>
<glyph d="M728 714h328v-387q0 -212 -155 -293q-120 -62 -357 -62q-304 0 -420 105q-92 85 -92 250v387h328v-372q2 -131 184 -132q174 0 184 119v13v372zM895 928l-220 -157h-263l96 157h387z" glyph-name="Uacute" horiz-adv-x="1088" unicode="Ú"/>
<glyph d="M728 714h328v-387q0 -212 -155 -293q-120 -62 -357 -62q-304 0 -420 105q-92 85 -92 250v387h328v-372q2 -131 184 -132q174 0 184 119v13v372zM600 771l-53 72h-6l-53 -72h-293l139 157h421l139 -157h-294z" glyph-name="Ucircumflex" horiz-adv-x="1088" unicode="Û"/>
<glyph d="M728 714h328v-387q0 -212 -155 -293q-120 -62 -357 -62q-304 0 -420 105q-92 85 -92 250v387h328v-372q2 -131 184 -132q174 0 184 119v13v372zM228 780v129h281v-129h-281zM578 780v129h281v-129h-281z" glyph-name="Udieresis" horiz-adv-x="1088" unicode="Ü"/>
<glyph d="M1098 714l-393 -513v-201h-329v201l-394 513h395l164 -242l162 242h395zM892 928l-220 -157h-263l96 157h387z" glyph-name="Yacute" horiz-adv-x="1080" unicode="Ý"/>
<glyph d="M1046 364q0 -161 -102 -219q-75 -43 -216 -43h-368v-102h-328v714h328v-84h368q212 0 279 -101q39 -61 39 -165zM687 360q-2 65 -79 66h-248v-132h248q78 2 79 66z" glyph-name="Thorn" horiz-adv-x="1058" unicode="Þ"/>
<glyph d="M884 420v-8q168 -28 169 -187q-3 -123 -73 -174q-78 -57 -301 -65q-38 -2 -82 -2q-53 0 -105 6q-51 4 -75 12v196q2 0 10 -2q80 -17 150 -17q123 0 139 47q3 9 3 20q0 41 -48 55q-41 11 -130 11h-124v131h115q110 0 120 42q1 5 1 10q0 39 -70 48q-28 3 -69 3 q-109 0 -141 -38q-22 -27 -22 -77v-431h-324v449q1 118 50 180q51 63 153 85q104 24 284 24q321 0 417 -69q57 -41 57 -113q0 -88 -66 -121q-17 -9 -38 -15z" glyph-name="germandbls" horiz-adv-x="1070" unicode="ß"/>
<glyph d="M961 6v-6h-318q-10 14 -10 54v18q-81 -89 -279 -96q-17 -1 -34 -1q-134 0 -219 42q-83 45 -84 140q0 118 101 157q48 17 122 22l316 21q54 4 60 24q1 5 1 9q-2 36 -102 36q-96 -1 -119 -49h-342q10 107 109 150q98 40 346 41q154 0 250 -14q166 -23 188 -125q4 -19 4 -39 v-304q0 -59 10 -80zM628 234v14q-15 -8 -51 -13l-155 -20q-62 -9 -70 -39q-1 -6 -1 -13q0 -38 61 -43q12 -1 25 -1q83 0 136 28q54 29 55 87zM151 764h386l97 -160h-264z" glyph-name="agrave" horiz-adv-x="971" unicode="à"/>
<glyph d="M961 6v-6h-318q-10 14 -10 54v18q-81 -89 -279 -96q-17 -1 -34 -1q-134 0 -219 42q-83 45 -84 140q0 118 101 157q48 17 122 22l316 21q54 4 60 24q1 5 1 9q-2 36 -102 36q-96 -1 -119 -49h-342q10 107 109 150q98 40 346 41q154 0 250 -14q166 -23 188 -125q4 -19 4 -39 v-304q0 -59 10 -80zM628 234v14q-15 -8 -51 -13l-155 -20q-62 -9 -70 -39q-1 -6 -1 -13q0 -38 61 -43q12 -1 25 -1q83 0 136 28q54 29 55 87zM854 764l-220 -160h-263l96 160h387z" glyph-name="aacute" horiz-adv-x="971" unicode="á"/>
<glyph d="M961 6v-6h-318q-10 14 -10 54v18q-81 -89 -279 -96q-17 -1 -34 -1q-134 0 -219 42q-83 45 -84 140q0 118 101 157q48 17 122 22l316 21q54 4 60 24q1 5 1 9q-2 36 -102 36q-96 -1 -119 -49h-342q10 107 109 150q98 40 346 41q154 0 250 -14q166 -23 188 -125q4 -19 4 -39 v-304q0 -59 10 -80zM628 234v14q-15 -8 -51 -13l-155 -20q-62 -9 -70 -39q-1 -6 -1 -13q0 -38 61 -43q12 -1 25 -1q83 0 136 28q54 29 55 87zM559 604l-53 68h-6l-53 -68h-293l140 147h418l141 -147h-294z" glyph-name="acircumflex" horiz-adv-x="971" unicode="â"/>
<glyph d="M961 6v-6h-318q-10 14 -10 54v18q-81 -89 -279 -96q-17 -1 -34 -1q-134 0 -219 42q-83 45 -84 140q0 118 101 157q48 17 122 22l316 21q54 4 60 24q1 5 1 9q-2 36 -102 36q-96 -1 -119 -49h-342q10 107 109 150q98 40 346 41q154 0 250 -14q166 -23 188 -125q4 -19 4 -39 v-304q0 -59 10 -80zM628 234v14q-15 -8 -51 -13l-155 -20q-62 -9 -70 -39q-1 -6 -1 -13q0 -38 61 -43q12 -1 25 -1q83 0 136 28q54 29 55 87zM508 612q-64 18 -93 18q-29 -6 -31 -30h-189q0 106 73 156q40 26 89 26q48 0 139 -23q66 -17 94 -17q28 6 30 29h189 q0 -103 -73 -154q-41 -28 -91 -28q-48 0 -137 23z" glyph-name="atilde" horiz-adv-x="971" unicode="ã"/>
<glyph d="M961 6v-6h-318q-10 14 -10 54v18q-81 -89 -279 -96q-17 -1 -34 -1q-134 0 -219 42q-83 45 -84 140q0 118 101 157q48 17 122 22l316 21q54 4 60 24q1 5 1 9q-2 36 -102 36q-96 -1 -119 -49h-342q10 107 109 150q98 40 346 41q154 0 250 -14q166 -23 188 -125q4 -19 4 -39 v-304q0 -59 10 -80zM628 234v14q-15 -8 -51 -13l-155 -20q-62 -9 -70 -39q-1 -6 -1 -13q0 -38 61 -43q12 -1 25 -1q83 0 136 28q54 29 55 87zM187 604v124h281v-124h-281zM537 604v124h281v-124h-281z" glyph-name="adieresis" horiz-adv-x="971" unicode="ä"/>
<glyph d="M961 6v-6h-318q-10 14 -10 54v18q-81 -89 -279 -96q-17 -1 -34 -1q-134 0 -219 42q-83 45 -84 140q0 118 101 157q48 17 122 22l316 21q54 4 60 24q1 5 1 9q-2 36 -102 36q-96 -1 -119 -49h-342q10 107 109 150q98 40 346 41q154 0 250 -14q166 -23 188 -125q4 -19 4 -39 v-304q0 -59 10 -80zM628 234v14q-15 -8 -51 -13l-155 -20q-62 -9 -70 -39q-1 -6 -1 -13q0 -38 61 -43q12 -1 25 -1q83 0 136 28q54 29 55 87zM307 735q0 84 85 121q47 21 110 21q121 0 172 -67q25 -33 25 -75q0 -81 -82 -119q-50 -23 -115 -23q-119 0 -170 66q-25 33 -25 76 zM555 735q0 31 -35 40q-9 2 -18 2q-41 0 -50 -30q-2 -6 -2 -12q0 -32 35 -40q9 -2 17 -2q41 0 51 30q2 6 2 12z" glyph-name="aring" horiz-adv-x="971" unicode="å"/>
<glyph d="M1536 209h-611q7 -87 141 -88q98 1 122 45h343q-6 -87 -105 -139q-101 -52 -360 -52q-237 1 -331 106q-114 -106 -363 -106q-267 0 -331 94q-24 36 -24 86q0 130 122 166q38 11 89 14l314 20q58 4 64 24q1 5 1 10q-2 37 -94 37q-97 -1 -117 -49h-342q4 78 56 119 q78 61 275 70q50 2 112 2q206 0 276 -41q18 -11 30 -24q69 65 263 65q252 0 363 -75t111 -222q0 -43 -4 -62zM927 348h274q-13 67 -117 73q-9 1 -18 1q-125 -1 -139 -74zM618 235v12q-14 -7 -45 -12l-165 -22q-54 -13 -57 -50q2 -43 87 -44q74 0 127 29q52 31 53 87z" glyph-name="ae" horiz-adv-x="1557" unicode="æ"/>
<glyph d="M566 -24l-30 -28q18 5 61 5q145 0 169 -66q6 -17 6 -36q-3 -63 -57 -85q-55 -23 -212 -24q-118 0 -191 19v84h8q67 -18 173 -18q75 1 76 23q-6 23 -76 24q-13 0 -58 -2q-35 -3 -51 -6h-8v50l64 60q-224 8 -325 82q-98 75 -98 213q1 149 112 222q114 75 370 75 q337 0 438 -117q45 -53 52 -135h-356q-25 60 -134 60q-137 0 -146 -90q-1 -8 -1 -15q2 -102 147 -103q113 1 133 63h358q-9 -144 -139 -203q-102 -46 -285 -52z" glyph-name="ccedilla" horiz-adv-x="1007" unicode="ç"/>
<glyph d="M989 209h-636q10 -75 112 -86q19 -2 41 -2q111 1 134 45h344q-4 -57 -45 -99q-88 -92 -433 -92q-348 0 -445 137q-44 63 -44 159q0 184 171 252q116 45 317 45q258 0 372 -75q114 -76 115 -222q0 -38 -3 -62zM356 348h297q-21 74 -148 74q-129 -1 -149 -74zM154 764h386 l97 -160h-264z" glyph-name="egrave" horiz-adv-x="1009" unicode="è"/>
<glyph d="M989 209h-636q10 -75 112 -86q19 -2 41 -2q111 1 134 45h344q-4 -57 -45 -99q-88 -92 -433 -92q-348 0 -445 137q-44 63 -44 159q0 184 171 252q116 45 317 45q258 0 372 -75q114 -76 115 -222q0 -38 -3 -62zM356 348h297q-21 74 -148 74q-129 -1 -149 -74zM856 764 l-220 -160h-263l96 160h387z" glyph-name="eacute" horiz-adv-x="1009" unicode="é"/>
<glyph d="M989 209h-636q10 -75 112 -86q19 -2 41 -2q111 1 134 45h344q-4 -57 -45 -99q-88 -92 -433 -92q-348 0 -445 137q-44 63 -44 159q0 184 171 252q116 45 317 45q258 0 372 -75q114 -76 115 -222q0 -38 -3 -62zM356 348h297q-21 74 -148 74q-129 -1 -149 -74zM561 604 l-53 68h-6l-53 -68h-293l140 147h418l141 -147h-294z" glyph-name="ecircumflex" horiz-adv-x="1009" unicode="ê"/>
<glyph d="M989 209h-636q10 -75 112 -86q19 -2 41 -2q111 1 134 45h344q-4 -57 -45 -99q-88 -92 -433 -92q-348 0 -445 137q-44 63 -44 159q0 184 171 252q116 45 317 45q258 0 372 -75q114 -76 115 -222q0 -38 -3 -62zM356 348h297q-21 74 -148 74q-129 -1 -149 -74zM189 604v124 h281v-124h-281zM539 604v124h281v-124h-281z" glyph-name="edieresis" horiz-adv-x="1009" unicode="ë"/>
<glyph d="M27 0v542h324v-542h-324zM-162 764h386l97 -165h-264z" glyph-name="igrave" horiz-adv-x="378" unicode="ì"/>
<glyph d="M27 0v542h324v-542h-324zM540 764l-220 -165h-263l96 165h387z" glyph-name="iacute" horiz-adv-x="378" unicode="í"/>
<glyph d="M27 0v542h324v-542h-324zM245 599l-53 69h-6l-53 -69h-293l140 152h418l141 -152h-294z" glyph-name="icircumflex" horiz-adv-x="378" unicode="î"/>
<glyph d="M27 0v542h324v-542h-324zM-127 599v129h281v-129h-281zM223 599v129h281v-129h-281z" glyph-name="idieresis" horiz-adv-x="378" unicode="ï"/>
<glyph d="M1002 324q0 -202 -139 -282q-120 -67 -374 -67q-155 0 -253 19q-218 42 -219 231q1 147 109 199q111 53 286 53q72 0 139 -13q71 -12 119 -39h6q-14 71 -143 146l-105 -56l-89 46l104 55q-180 81 -361 102v6h407q54 -6 118 -19l117 62l89 -46l-93 -50q218 -80 268 -250 q14 -46 14 -97zM646 226q-2 81 -148 82q-145 -1 -146 -82q2 -81 146 -82q147 1 148 82z" glyph-name="eth" horiz-adv-x="1020" unicode="ð"/>
<glyph d="M345 542v-70h6q111 85 287 85q259 0 286 -175q3 -20 3 -40v-342h-324v231q-2 98 -114 99q-137 -2 -138 -122v-208h-324v542h318zM481 609l-39 10q-34 8 -54 8q-29 -6 -31 -31h-189q0 106 73 156q40 27 89 27q48 0 139 -23q70 -18 94 -18q29 4 30 30h189q0 -104 -73 -155 q-41 -28 -91 -28q-42 0 -137 24z" glyph-name="ntilde" horiz-adv-x="954" unicode="ñ"/>
<glyph d="M980 271q-1 -149 -112 -222q-114 -74 -369 -74q-257 0 -370 74q-112 74 -112 222q1 149 112 222q114 75 370 75q258 0 369 -75q112 -74 112 -222zM646 271q-4 103 -147 104q-146 -1 -147 -104q2 -102 147 -103q146 1 147 103zM147 764h386l97 -160h-264z" glyph-name="ograve" horiz-adv-x="997" unicode="ò"/>
<glyph d="M980 271q-1 -149 -112 -222q-114 -74 -369 -74q-257 0 -370 74q-112 74 -112 222q1 149 112 222q114 75 370 75q258 0 369 -75q112 -74 112 -222zM646 271q-4 103 -147 104q-146 -1 -147 -104q2 -102 147 -103q146 1 147 103zM850 764l-220 -160h-263l96 160h387z" glyph-name="oacute" horiz-adv-x="997" unicode="ó"/>
<glyph d="M980 271q-1 -149 -112 -222q-114 -74 -369 -74q-257 0 -370 74q-112 74 -112 222q1 149 112 222q114 75 370 75q258 0 369 -75q112 -74 112 -222zM646 271q-4 103 -147 104q-146 -1 -147 -104q2 -102 147 -103q146 1 147 103zM555 604l-53 68h-6l-53 -68h-293l140 147 h418l141 -147h-294z" glyph-name="ocircumflex" horiz-adv-x="997" unicode="ô"/>
<glyph d="M980 271q-1 -149 -112 -222q-114 -74 -369 -74q-257 0 -370 74q-112 74 -112 222q1 149 112 222q114 75 370 75q258 0 369 -75q112 -74 112 -222zM646 271q-4 103 -147 104q-146 -1 -147 -104q2 -102 147 -103q146 1 147 103zM504 612q-64 18 -93 18q-29 -6 -31 -30h-189 q0 106 73 156q40 26 89 26q48 0 139 -23q66 -17 94 -17q28 6 30 29h189q0 -103 -73 -154q-41 -28 -91 -28q-48 0 -137 23z" glyph-name="otilde" horiz-adv-x="997" unicode="õ"/>
<glyph d="M980 271q-1 -149 -112 -222q-114 -74 -369 -74q-257 0 -370 74q-112 74 -112 222q1 149 112 222q114 75 370 75q258 0 369 -75q112 -74 112 -222zM646 271q-4 103 -147 104q-146 -1 -147 -104q2 -102 147 -103q146 1 147 103zM183 604v124h281v-124h-281zM533 604v124 h281v-124h-281z" glyph-name="odieresis" horiz-adv-x="997" unicode="ö"/>
<glyph d="M210 562q0 54 46 84q26 16 55 16q54 0 84 -46q16 -25 16 -54q0 -56 -47 -85q-25 -16 -53 -16q-54 0 -84 46q-17 25 -17 55zM580 406v-157h-539v157h539zM210 93q1 41 30 71q31 30 71 30q54 0 84 -46q16 -26 16 -55q0 -54 -46 -84q-25 -16 -54 -16q-54 0 -84 45 q-17 26 -17 55z" glyph-name="divide" horiz-adv-x="621" unicode="÷"/>
<glyph d="M980 271q-1 -149 -112 -222q-114 -74 -369 -74q-199 0 -306 43l-83 -55l-79 49l78 51q-92 72 -92 208q1 149 112 222q114 75 370 75q195 0 306 -42l83 54l78 -49l-78 -51q92 -72 92 -209zM352 271q0 -29 9 -45l211 141q-31 9 -73 9q-146 -1 -147 -105zM646 271 q0 27 -9 46l-211 -141q29 -9 73 -9q146 1 147 104z" glyph-name="oslash" horiz-adv-x="997" unicode="ø"/>
<glyph d="M607 0v70h-6q-112 -85 -286 -85q-265 0 -286 183q-2 16 -2 32v342h323v-231q2 -98 114 -99q137 2 138 122v208h324v-542h-319zM124 764h386l97 -165h-264z" glyph-name="ugrave" horiz-adv-x="953" unicode="ù"/>
<glyph d="M607 0v70h-6q-112 -85 -286 -85q-265 0 -286 183q-2 16 -2 32v342h323v-231q2 -98 114 -99q137 2 138 122v208h324v-542h-319zM827 764l-220 -165h-263l96 165h387z" glyph-name="uacute" horiz-adv-x="953" unicode="ú"/>
<glyph d="M607 0v70h-6q-112 -85 -286 -85q-265 0 -286 183q-2 16 -2 32v342h323v-231q2 -98 114 -99q137 2 138 122v208h324v-542h-319zM532 599l-53 69h-6l-53 -69h-293l140 152h418l141 -152h-294z" glyph-name="ucircumflex" horiz-adv-x="953" unicode="û"/>
<glyph d="M607 0v70h-6q-112 -85 -286 -85q-265 0 -286 183q-2 16 -2 32v342h323v-231q2 -98 114 -99q137 2 138 122v208h324v-542h-319zM160 599v129h281v-129h-281zM510 599v129h281v-129h-281z" glyph-name="udieresis" horiz-adv-x="953" unicode="ü"/>
<glyph d="M618 542h366l-303 -509q-79 -127 -138 -171q-64 -46 -184 -54q-29 -2 -65 -3h-224v222h123q68 1 84 25l8 14l-294 476h366l65 -127q30 -58 64 -136h6q29 68 62 135zM839 764l-220 -165h-263l96 165h387z" glyph-name="yacute" horiz-adv-x="975" unicode="ý"/>
<glyph d="M357 49h-6v-229h-324v904h324v-241h6q101 74 252 74q372 -2 373 -291q-2 -290 -373 -291q-152 1 -252 74zM341 266q2 -99 156 -100q134 0 149 76q2 12 2 24q0 81 -95 96q-25 4 -56 4q-155 -1 -156 -100z" glyph-name="thorn" horiz-adv-x="999" unicode="þ"/>
</font>
</defs>
</svg>
