<?xml version="1.0" encoding="UTF-8"?>
<!DOCTYPE svg  PUBLIC '-//W3C//DTD SVG 1.1//EN'  'http://www.w3.org/Graphics/SVG/1.1/DTD/svg11.dtd'>
<svg version="1.1" xmlns="http://www.w3.org/2000/svg">
<defs>
<font id="Shapiro-35Feather" horiz-adv-x="546">
<font-face font-family="Shapiro 35 Feather" font-weight="300" ascent="790" bbox="-54 -227 1007 953" cap-height="714" descent="-210" panose-1="2 11 5 3 5 0 0 2 0 4" underline-position="-100" underline-thickness="50" unicode-range="U+0020-00FE" units-per-em="1000" x-height="526"/>
<missing-glyph/>
<glyph glyph-name="space" horiz-adv-x="240" unicode=" "/>
<glyph d="M155 192h-63l-13 317v205h90v-205zM70 0v108h107v-108h-107z" glyph-name="exclam" horiz-adv-x="248" unicode="!"/>
<glyph d="M132 461h-82v253h82v-253zM302 461h-82v253h82v-253z" glyph-name="quotedbl" horiz-adv-x="352" unicode='"'/>
<glyph d="M573 431h-103l-32 -161h103l-13 -68h-103l-40 -202h-71l39 202h-149l-39 -202h-72l40 202h-103l14 68h102l32 161h-103l14 68h102l40 202h72l-40 -202h149l40 202h71l-39 -202h102zM367 270l32 161h-149l-32 -161h149z" glyph-name="numbersign" horiz-adv-x="616" unicode="#"/>
<glyph d="M322 -13v-96h-46v96q-169 10 -225 131q-22 49 -22 113h91q8 -157 156 -171v268l-59 15q-76 20 -121 58q-44 40 -44 121q1 84 62 135q63 53 162 57v74h46v-74q99 -8 165 -64q64 -56 64 -150h-90q-6 104 -102 133q-18 5 -37 7v-235l66 -15q109 -26 147 -80q31 -45 31 -119 q0 -125 -114 -177q-56 -24 -130 -27zM251 422l25 -6v225q-84 -8 -118 -63q-15 -25 -15 -54q0 -71 90 -97q9 -3 18 -5zM476 188q0 72 -69 103q-22 10 -53 18l-32 8v-257q114 6 145 80q9 22 9 48z" glyph-name="dollar" horiz-adv-x="614" unicode="$"/>
<glyph d="M368 515q0 -146 -91 -187q-30 -13 -66 -13q-104 0 -141 99q-16 43 -16 101q0 143 89 186q31 14 68 14q103 0 140 -96q17 -45 17 -104zM619 701h63l-399 -701h-63zM295 515q-5 138 -84 142q-72 0 -82 -100q-2 -20 -2 -42q0 -131 70 -141q7 -1 14 -1q79 0 84 126v16z M847 186q0 -149 -94 -188q-29 -12 -63 -12q-106 0 -141 101q-15 43 -15 99q0 148 93 188q29 12 63 12q107 0 143 -103q14 -42 14 -97zM774 186q0 131 -70 141q-7 1 -14 1q-73 0 -82 -107q-1 -17 -1 -35q0 -134 73 -141q5 -1 10 -1q72 0 82 100q2 20 2 42z" glyph-name="percent" horiz-adv-x="901" unicode="%"/>
<glyph d="M701 0h-105l-82 89q-83 -100 -219 -101q-136 0 -202 79q-41 51 -41 122q1 125 154 207l18 10q-73 85 -82 143q-2 13 -2 25q0 79 68 124q48 31 112 31q99 0 150 -66q30 -40 30 -89q0 -74 -83 -133q-22 -16 -51 -33l-26 -15l161 -175q25 67 25 144h77q0 -116 -45 -206z M294 443l28 15q79 41 92 84q3 12 3 24q0 65 -52 88q-21 9 -45 9q-66 0 -89 -54q-8 -20 -8 -43q0 -37 44 -92q12 -14 27 -31zM462 146l-191 208l-20 -12q-113 -66 -114 -151q0 -89 82 -120q34 -12 76 -12q105 1 167 87z" glyph-name="ampersand" horiz-adv-x="713" unicode="&amp;"/>
<glyph d="M132 461h-82v253h82v-253z" glyph-name="quotesingle" horiz-adv-x="182" unicode="'"/>
<glyph d="M335 -172h-72q-43 27 -91 84q-96 113 -116 292q-4 39 -4 78q0 124 36 219q62 163 175 235h72q-62 -40 -117 -138q-80 -145 -78 -316q-3 -201 103 -357q46 -67 92 -97z" glyph-name="parenleft" horiz-adv-x="344" unicode="("/>
<glyph d="M9 736h73q81 -51 139 -157q72 -132 71 -297q2 -223 -124 -375q-42 -51 -86 -79h-73q62 40 117 138q79 145 78 316q2 202 -104 358q-46 67 -91 96z" glyph-name="parenright" horiz-adv-x="344" unicode=")"/>
<glyph d="M344 612l-107 -68l107 -69l-35 -51l-91 67l3 -117h-64l4 117l-91 -67l-36 51l107 69l-107 68l36 52l91 -68l-4 118h64l-3 -118l91 68z" glyph-name="asterisk" horiz-adv-x="378" unicode="*"/>
<glyph d="M502 361v-71h-179v-190h-72v190h-180v71h180v189h72v-189h179z" glyph-name="plus" horiz-adv-x="573" unicode="+"/>
<glyph d="M177 108v-89q0 -143 -82 -158q-11 -2 -22 -2v46q37 3 46 49q3 19 3 46h-52v108h107z" glyph-name="comma" horiz-adv-x="248" unicode=","/>
<glyph d="M314 249h-268v77h268v-77z" glyph-name="hyphen" horiz-adv-x="360" unicode="-"/>
<glyph d="M70 0v108h107v-108h-107z" glyph-name="period" horiz-adv-x="248" unicode="."/>
<glyph d="M282 714h84l-259 -714h-84z" glyph-name="slash" horiz-adv-x="388" unicode="/"/>
<glyph d="M578 350q-1 -192 -75 -278q-75 -86 -188 -86q-114 1 -189 86q-74 87 -74 278q1 192 74 278q75 87 189 87q115 -1 188 -87q75 -87 75 -278zM490 350q0 164 -49 228t-126 65q-174 -2 -175 -293q1 -291 175 -292q79 1 126 64q49 65 49 228z" glyph-name="zero" horiz-adv-x="631" unicode="0"/>
<glyph d="M171 701h73v-701h-84v555h-140v56h10q126 0 141 90z" glyph-name="one" horiz-adv-x="342" unicode="1"/>
<glyph d="M129 76h373v-76h-464v40q0 70 26 120q35 67 112 120q20 14 48 32l78 49q82 54 103 99q12 26 12 56q0 84 -72 114q-31 13 -68 13q-119 0 -144 -116q-5 -22 -6 -46h-85q2 119 67 176q67 57 168 57q124 0 187 -74q42 -50 42 -121q0 -56 -22 -95q-29 -52 -95 -97 q-16 -10 -37 -23l-24 -15l-70 -46q-130 -86 -129 -167z" glyph-name="two" horiz-adv-x="553" unicode="2"/>
<glyph d="M217 394h64q89 0 125 61q16 28 16 63q0 75 -66 109q-33 16 -73 16q-84 0 -120 -60q-17 -30 -18 -67h-86q0 112 94 166q56 32 130 32q120 0 183 -74q43 -51 43 -122q0 -88 -76 -136q-14 -9 -28 -15v-4q90 -30 118 -111q9 -28 9 -59q0 -119 -104 -174q-62 -33 -145 -33 q-133 0 -200 78q-48 56 -46 139h87q-3 -87 70 -125q39 -20 89 -20q94 0 138 61q23 32 23 74q0 94 -91 123q-33 10 -73 10h-63v68z" glyph-name="three" horiz-adv-x="584" unicode="3"/>
<glyph d="M454 256h91v-69h-91v-187h-83v187h-337v72l333 442h87v-445zM120 256h251v331h-4l-247 -327v-4z" glyph-name="four" horiz-adv-x="583" unicode="4"/>
<glyph d="M531 233q0 -140 -102 -207q-62 -40 -145 -40q-127 0 -193 75q-43 50 -44 121h88q4 -78 75 -109q34 -15 74 -15q93 0 135 75q24 42 24 100q0 111 -77 154q-35 20 -78 20q-90 -1 -149 -64h-80l31 358h396v-75h-327l-18 -207h4q54 59 154 59q112 0 178 -80q54 -66 54 -165z " glyph-name="five" horiz-adv-x="578" unicode="5"/>
<glyph d="M550 222q0 -126 -94 -192q-63 -44 -141 -44q-139 1 -208 104q-55 83 -55 261q1 181 72 274q70 89 195 89q112 0 172 -69q39 -45 41 -107h-87q-3 64 -61 93q-30 14 -65 14q-82 -1 -130 -65q-52 -71 -52 -211v-10h4q52 74 151 86q16 2 30 2q98 0 165 -67q63 -63 63 -158z M464 217q0 91 -68 137q-37 25 -82 25q-84 0 -132 -63q-32 -43 -32 -99q0 -89 69 -135q43 -27 95 -27q76 0 120 61q30 43 30 101z" glyph-name="six" horiz-adv-x="598" unicode="6"/>
<glyph d="M28 701h464v-41q0 -48 -21 -93q-19 -43 -66 -117t-77 -133q-73 -141 -73 -317h-88q0 104 24 191q26 90 58 151q33 64 84 147q35 55 48 81q14 25 24 52v4h-377v75z" glyph-name="seven" horiz-adv-x="520" unicode="7"/>
<glyph d="M550 196q0 -120 -104 -176q-63 -34 -145 -34q-131 0 -200 76q-49 55 -49 134q0 108 85 161q20 12 42 20v4q-83 35 -100 115q-3 17 -3 33q0 104 95 155q57 30 130 30q116 0 180 -67q46 -49 46 -118q0 -87 -77 -134q-13 -8 -27 -14v-4q93 -32 119 -122q8 -29 8 -59z M442 527q0 69 -65 102q-35 17 -76 17q-79 0 -119 -52q-22 -30 -22 -67q1 -54 41 -87q43 -32 100 -32q58 1 99 32q42 33 42 87zM462 198q0 88 -75 125q-38 19 -86 19q-68 -1 -115 -38q-46 -38 -46 -106q1 -68 46 -105q48 -38 115 -38q67 1 114 38q47 39 47 105z" glyph-name="eight" horiz-adv-x="603" unicode="8"/>
<glyph d="M47 479q0 123 94 190q64 45 142 45q139 -1 208 -103q55 -83 55 -262q0 -181 -72 -273q-70 -90 -195 -90q-112 0 -172 69q-39 46 -41 108h87q3 -65 62 -94q29 -14 64 -14q82 1 130 66q52 71 52 211v9h-4q-53 -75 -155 -86q-13 -1 -26 -1q-99 0 -166 67q-63 64 -63 158z M134 484q0 -91 68 -137q37 -25 82 -25q85 0 132 63q31 43 31 99q0 88 -68 134q-42 28 -95 28q-74 0 -118 -59q-32 -44 -32 -103z" glyph-name="nine" horiz-adv-x="598" unicode="9"/>
<glyph d="M70 380v108h107v-108h-107zM70 0v108h107v-108h-107z" glyph-name="colon" horiz-adv-x="248" unicode=":"/>
<glyph d="M70 380v108h107v-108h-107zM177 108v-89q0 -143 -82 -158q-11 -2 -22 -2v46q37 3 46 49q3 19 3 46h-52v108h107z" glyph-name="semicolon" horiz-adv-x="248" unicode=";"/>
<glyph d="M71 283v78l430 216v-79l-347 -174v-4l347 -174v-79z" glyph-name="less" horiz-adv-x="573" unicode="&lt;"/>
<glyph d="M501 375h-430v71h430v-71zM501 205h-430v71h430v-71z" glyph-name="equal" horiz-adv-x="573" unicode="="/>
<glyph d="M501 361v-78l-430 -216v79l348 174v4l-348 174v79z" glyph-name="greater" horiz-adv-x="573" unicode="&gt;"/>
<glyph d="M109 501h-81q5 110 74 169q72 59 176 59q123 0 187 -75q41 -48 41 -113q0 -91 -64 -147q-18 -16 -44 -33q-62 -41 -76 -90q-7 -25 -7 -59v-20h-80v43q0 88 54 141q19 19 46 37q72 45 78 114q1 8 1 16q0 70 -66 99q-31 13 -70 13q-145 0 -168 -148q-1 -4 -1 -6zM221 0v108 h107v-108h-107z" glyph-name="question" horiz-adv-x="534" unicode="?"/>
<glyph d="M894 343q2 139 -100 235q-112 103 -286 101q-145 2 -259 -99q-115 -102 -136 -253q-4 -33 -4 -65q-2 -175 124 -276q114 -91 287 -90q136 1 242 68h81q-123 -105 -292 -117q-18 -1 -35 -1q-194 -2 -324 107q-132 110 -140 288v26q-3 168 108 300q105 123 260 154 q46 9 92 8q180 3 307 -104q114 -94 130 -230q2 -23 2 -45q0 -136 -86 -220q-76 -73 -188 -73q-73 0 -83 53q-2 10 -2 19h-4q-40 -66 -136 -72h-15q-90 0 -141 74q-33 49 -33 110q-1 103 63 185q73 90 181 88q77 0 114 -55q7 -10 12 -21h4l12 60h81l-72 -337q-1 -5 -1 -16 q2 -38 46 -39q81 -2 139 74q53 72 52 163zM618 321q0 89 -61 117q-21 10 -47 10q-81 3 -132 -82q-33 -57 -33 -116q0 -89 61 -117q21 -10 47 -10q83 -2 133 84q32 56 32 114z" glyph-name="at" horiz-adv-x="1004" unicode="@"/>
<glyph d="M595 0l-84 208h-319l-82 -208h-98l297 714h87l298 -714h-99zM223 284h258q-48 119 -128 328h-4q-63 -169 -126 -328z" glyph-name="A" horiz-adv-x="706" unicode="A"/>
<glyph d="M74 714h306q140 0 189 -96q21 -42 21 -95q-1 -107 -94 -145v-4q117 -38 117 -171q0 -130 -104 -179q-51 -24 -119 -24h-316v714zM164 638v-233h203q121 0 130 101q1 8 1 15q0 108 -112 116q-10 1 -19 1h-203zM521 205q0 109 -109 125q-17 2 -35 2h-213v-255h213 q129 0 143 105q1 11 1 23z" glyph-name="B" horiz-adv-x="656" unicode="B"/>
<glyph d="M386 -15q-168 0 -260 121q-74 100 -74 252q0 194 116 295q88 76 218 76q156 0 237 -99q47 -60 50 -131h-94q-9 61 -54 108q-44 46 -139 46q-135 0 -199 -111q-43 -75 -43 -184q0 -178 103 -254q59 -43 139 -43q97 1 145 51q48 54 56 123h94q-2 -99 -77 -171 q-85 -81 -218 -79z" glyph-name="C" horiz-adv-x="726" unicode="C"/>
<glyph d="M674 357q0 -213 -139 -304q-82 -53 -198 -53h-263v714h263q188 0 277 -130q60 -90 60 -227zM582 357q0 187 -125 252q-56 29 -131 29h-162v-562h162q165 0 226 130q30 64 30 151z" glyph-name="D" horiz-adv-x="726" unicode="D"/>
<glyph d="M164 638v-225h376v-75h-376v-260h392v-78h-482v714h482v-76h-392z" glyph-name="E" horiz-adv-x="606" unicode="E"/>
<glyph d="M556 638h-392v-233h376v-75h-376v-330h-90v714h482v-76z" glyph-name="F" horiz-adv-x="596" unicode="F"/>
<glyph d="M397 290v75h286v-365h-76v100q-69 -114 -223 -115q-167 0 -258 120q-74 99 -74 253q0 200 124 299q90 72 223 72q148 2 233 -92q51 -59 54 -125h-94q-10 72 -73 111q-50 30 -120 30q-158 0 -221 -128q-34 -69 -34 -167q0 -183 106 -257q57 -40 134 -40q128 0 184 99 q30 56 30 130h-201z" glyph-name="G" horiz-adv-x="752" unicode="G"/>
<glyph d="M549 714h90v-714h-90v327h-385v-327h-90v714h90v-311h385v311z" glyph-name="H" horiz-adv-x="713" unicode="H"/>
<glyph d="M168 0h-90v714h90v-714z" glyph-name="I" horiz-adv-x="247" unicode="I"/>
<glyph d="M514 714v-488q0 -161 -121 -217q-53 -24 -123 -24q-134 0 -204 87q-48 61 -48 150v40h85v-27q0 -151 130 -170q18 -3 37 -3q153 2 154 173v479h90z" glyph-name="J" horiz-adv-x="588" unicode="J"/>
<glyph d="M532 0l-263 380l-105 -106v-274h-90v714h90v-334l325 334h111l-267 -273l309 -441h-110z" glyph-name="K" horiz-adv-x="644" unicode="K"/>
<glyph d="M558 0h-484v714h90v-636h394v-78z" glyph-name="L" horiz-adv-x="598" unicode="L"/>
<glyph d="M618 714h143v-714h-87v616h-4l-217 -616h-73l-218 616h-4v-616h-84v714h144l198 -573h4z" glyph-name="M" horiz-adv-x="836" unicode="M"/>
<glyph d="M645 714v-714h-95l-387 583h-4v-583h-85v714h99l383 -575h4v575h85z" glyph-name="N" horiz-adv-x="719" unicode="N"/>
<glyph d="M711 357q0 -194 -116 -296q-87 -76 -214 -76q-162 0 -253 118q-76 99 -76 254q0 195 116 297q87 75 213 75q162 0 253 -117q77 -100 77 -255zM619 357q0 178 -103 254q-57 42 -135 42q-130 0 -193 -109q-44 -75 -44 -187q0 -178 103 -254q57 -42 134 -42q132 0 195 110 q43 75 43 186z" glyph-name="O" horiz-adv-x="763" unicode="O"/>
<glyph d="M612 508q0 -134 -108 -183q-50 -23 -118 -23h-222v-302h-90v714h312q152 0 204 -104q22 -45 22 -102zM521 508q0 113 -115 128q-16 2 -33 2h-209v-260h209q132 0 146 105q2 13 2 25z" glyph-name="P" horiz-adv-x="652" unicode="P"/>
<glyph d="M607 73l59 -81l-66 -40l-55 75q-71 -42 -164 -42q-162 0 -253 118q-76 99 -76 254q0 195 116 297q87 75 213 75q162 0 253 -117q77 -100 77 -255q-1 -185 -104 -284zM498 91l-81 110l67 40l72 -99q63 80 63 215q0 178 -103 254q-57 42 -135 42q-130 0 -193 -109 q-44 -75 -44 -187q0 -178 103 -254q57 -42 134 -42q67 0 117 30z" glyph-name="Q" horiz-adv-x="763" unicode="Q"/>
<glyph d="M641 0h-106l-194 309h-177v-309h-90v714h332q153 0 205 -102q22 -44 22 -100q0 -130 -107 -179q-37 -16 -83 -21zM164 638v-252h231q134 0 146 106q1 10 1 20q0 112 -118 124q-14 2 -29 2h-231z" glyph-name="R" horiz-adv-x="669" unicode="R"/>
<glyph d="M310 655q-70 -1 -117 -34q-46 -34 -47 -87q0 -66 80 -94q17 -5 37 -10l146 -33q109 -26 149 -74q38 -46 40 -129q-1 -101 -77 -155q-77 -54 -201 -54q-187 0 -257 115q-34 57 -34 135h93q9 -175 199 -176q131 0 171 75q14 26 14 57q0 75 -75 106q-24 10 -56 18l-147 35 q-80 19 -128 59q-46 40 -46 123q0 103 95 158q68 39 162 39q141 0 217 -79q54 -58 54 -140h-92q-8 107 -110 136q-32 9 -70 9z" glyph-name="S" horiz-adv-x="646" unicode="S"/>
<glyph d="M603 714v-78h-242v-636h-90v636h-241v78h573z" glyph-name="T" horiz-adv-x="633" unicode="T"/>
<glyph d="M634 714v-460q0 -154 -112 -225q-71 -44 -168 -44q-152 0 -227 98q-53 69 -53 171v460h90v-452q2 -199 190 -200q189 2 190 200v452h90z" glyph-name="U" horiz-adv-x="709" unicode="U"/>
<glyph d="M565 714h97l-280 -714h-86l-280 714h99l175 -470q24 -63 48 -138h4q21 69 47 138z" glyph-name="V" horiz-adv-x="678" unicode="V"/>
<glyph d="M701 0h-91l-119 440q-16 60 -33 140h-4q-12 -59 -34 -141l-117 -439h-93l-190 714h93l112 -448q12 -48 32 -142h4q16 76 33 142l118 448h86l118 -448q22 -84 34 -142h4q20 97 31 142l113 448h94z" glyph-name="W" horiz-adv-x="912" unicode="W"/>
<glyph d="M609 0h-106l-195 302l-194 -302h-102l246 371l-228 343h105l177 -276l177 276h102l-229 -342z" glyph-name="X" horiz-adv-x="620" unicode="X"/>
<glyph d="M525 714h99l-259 -430v-284h-90v283l-259 431h101l204 -353z" glyph-name="Y" horiz-adv-x="640" unicode="Y"/>
<glyph d="M574 636l-424 -558h425v-78h-537v78l426 558h-397v78h507v-78z" glyph-name="Z" horiz-adv-x="613" unicode="Z"/>
<glyph d="M156 684v-747h103v-70h-185v887h185v-70h-103z" glyph-name="bracketleft" horiz-adv-x="278" unicode="["/>
<glyph d="M107 714l259 -714h-84l-259 714h84z" glyph-name="backslash" horiz-adv-x="388" unicode="\"/>
<glyph d="M123 684h-104v70h185v-887h-185v70h104v747z" glyph-name="bracketright" horiz-adv-x="278" unicode="]"/>
<glyph d="M458 353h-78l-127 267h-4l-128 -267h-77l170 348h74z" glyph-name="asciicircum" horiz-adv-x="502" unicode="^"/>
<glyph d="M548 -160h-550v50h550v-50z" glyph-name="underscore" unicode="_"/>
<glyph d="M68 734h99l75 -145h-68z" glyph-name="grave" horiz-adv-x="310" unicode="`"/>
<glyph d="M495 0h-83q-17 20 -17 73v2q-42 -69 -145 -84q-21 -3 -41 -3q-91 0 -139 63q-30 40 -30 93q0 133 156 161l14 2l105 16q74 20 79 68q0 54 -66 71q-23 6 -50 6q-120 0 -130 -90q-1 -5 -1 -8h-84q1 82 60 125q60 43 155 43q143 0 186 -84q14 -30 14 -65v-305q1 -67 17 -84z M309 256l-73 -12q-109 -19 -110 -99q0 -69 65 -85q16 -4 34 -4q85 0 133 53q36 41 36 101v71q-14 -13 -85 -25z" glyph-name="a" unicode="a"/>
<glyph d="M561 263q0 -143 -88 -220q-63 -55 -150 -55q-95 0 -149 58q-14 15 -22 32h-4v-78h-80v724h84v-272h4q32 62 115 80q26 6 52 6q117 0 184 -93q54 -74 54 -182zM475 263q0 129 -79 181q-38 25 -87 25q-93 0 -137 -84q-26 -52 -26 -122q0 -126 75 -179q39 -27 88 -27 q98 0 142 88q24 50 24 118z" glyph-name="b" horiz-adv-x="605" unicode="b"/>
<glyph d="M421 163h88q-4 -86 -77 -136q-58 -39 -138 -39q-136 0 -204 103q-46 71 -46 172q0 149 95 224q65 51 156 51q115 0 176 -74q33 -41 36 -89h-88q-15 76 -90 91q-17 3 -34 3q-104 0 -145 -95q-20 -48 -20 -111q0 -133 81 -184q36 -22 83 -22q109 2 127 106z" glyph-name="c" horiz-adv-x="544" unicode="c"/>
<glyph d="M449 452h4v272h84v-724h-80v78h-4q-31 -63 -115 -83q-28 -7 -57 -7q-117 0 -184 93q-53 74 -53 182q0 144 89 221q62 54 148 54q93 0 146 -56q14 -15 22 -30zM458 263q0 129 -77 181q-38 25 -86 25q-96 0 -140 -87q-25 -50 -25 -119q0 -128 77 -181q39 -25 88 -25 q96 0 139 88q24 50 24 118z" glyph-name="d" horiz-adv-x="604" unicode="d"/>
<glyph d="M294 -12q-130 0 -200 99q-50 72 -50 176q0 148 91 224q61 51 148 51q125 0 191 -96q49 -71 49 -176v-21h-394q-1 -110 71 -160q41 -28 94 -28q111 0 133 88l2 10h86q-6 -80 -75 -127q-59 -40 -146 -40zM131 312h306q-6 83 -66 128q-39 29 -88 29q-81 0 -125 -72 q-23 -39 -27 -85z" glyph-name="e" horiz-adv-x="568" unicode="e"/>
<glyph d="M192 598v-72h121v-65h-121v-461h-84v461h-88v65h88v80q2 129 142 130q46 0 77 -7v-69q-37 5 -65 5q-54 0 -66 -34q-4 -14 -4 -33z" glyph-name="f" horiz-adv-x="343" unicode="f"/>
<glyph d="M447 526h80v-520q0 -176 -171 -198q-28 -4 -59 -4q-154 0 -206 89q-20 35 -21 81h86q9 -99 141 -100q106 0 133 62q13 30 13 74v99h-4q-33 -60 -119 -76q-22 -4 -44 -4q-117 0 -182 89q-50 68 -50 165q0 134 88 206q61 49 144 49q95 0 147 -57q12 -14 20 -28h4v73z M448 283q0 110 -70 159q-39 27 -88 27q-91 0 -135 -78q-25 -46 -25 -108q0 -110 71 -160q39 -27 89 -27q71 1 114 52q44 54 44 135z" glyph-name="g" horiz-adv-x="594" unicode="g"/>
<glyph d="M152 724v-272h4q43 71 132 84q16 2 32 2q106 0 155 -77q29 -47 29 -110v-351h-84v322q0 122 -84 141q-19 4 -40 4q-69 0 -111 -62q-33 -49 -33 -119v-286h-84v724h84z" glyph-name="h" horiz-adv-x="572" unicode="h"/>
<glyph d="M68 0v526h84v-526h-84zM67 623v101h86v-101h-86z" glyph-name="i" horiz-adv-x="220" unicode="i"/>
<glyph d="M72 -67v593h84v-606q0 -85 -51 -106q-25 -10 -66 -10q-30 0 -64 2v72q10 -1 48 -1q40 0 47 31q2 11 2 25zM70 623v101h86v-101h-86z" glyph-name="j" horiz-adv-x="223" unicode="j"/>
<glyph d="M219 269l-67 -62v-207h-84v724h84v-421l235 223h106l-215 -202l240 -324h-100z" glyph-name="k" horiz-adv-x="516" unicode="k"/>
<glyph d="M71 0v724h84v-724h-84z" glyph-name="l" horiz-adv-x="226" unicode="l"/>
<glyph d="M807 351v-351h-84v322q0 120 -74 140q-18 5 -40 5q-75 0 -110 -71q-20 -42 -20 -100v-296h-83v322q0 129 -89 143q-12 2 -25 2q-74 0 -109 -71q-21 -44 -21 -104v-292h-84v526h80v-74h4q40 68 120 83q17 3 33 3q98 0 144 -73q6 -9 10 -18q67 90 174 91q102 0 148 -79 q26 -45 26 -108z" glyph-name="m" horiz-adv-x="875" unicode="m"/>
<glyph d="M148 526v-73h4q42 69 132 82q17 3 34 3q110 0 159 -80q27 -45 27 -107v-351h-84v322q0 122 -84 141q-19 4 -40 4q-82 0 -121 -71q-23 -44 -23 -104v-292h-84v526h80z" glyph-name="n" horiz-adv-x="572" unicode="n"/>
<glyph d="M542 263q0 -148 -94 -223q-64 -52 -155 -52q-130 0 -199 98q-50 73 -50 177q0 148 94 223q64 52 155 52q130 0 199 -98q50 -73 50 -177zM456 263q0 129 -77 181q-38 25 -86 25q-96 0 -139 -88q-24 -50 -24 -118q0 -129 77 -181q38 -25 86 -25q96 0 139 88q24 50 24 118z " glyph-name="o" horiz-adv-x="586" unicode="o"/>
<glyph d="M156 74h-4v-258h-84v710h80v-78h4q34 67 122 85q24 5 49 5q117 0 184 -93q54 -74 54 -182q0 -143 -88 -220q-63 -55 -150 -55q-95 0 -147 58q-12 14 -20 28zM146 263q0 -126 75 -179q39 -27 88 -27q98 0 142 88q24 50 24 118q0 129 -79 181q-38 25 -87 25q-93 0 -137 -84 q-26 -52 -26 -122z" glyph-name="p" horiz-adv-x="605" unicode="p"/>
<glyph d="M44 263q0 144 89 221q62 54 148 54q97 0 151 -59q13 -15 21 -31h4v78h80v-710h-84v258h-4q-34 -64 -120 -81q-24 -5 -48 -5q-117 0 -184 93q-53 74 -53 182zM130 263q0 -128 77 -181q39 -25 88 -25q96 0 139 88q24 50 24 118q0 129 -77 181q-38 25 -86 25q-96 0 -140 -87 q-25 -50 -25 -119z" glyph-name="q" horiz-adv-x="604" unicode="q"/>
<glyph d="M68 526h80v-88h4q33 75 116 95q24 5 48 5q25 0 45 -4v-81q-21 4 -49 4q-110 0 -146 -96q-14 -39 -14 -88v-273h-84v526z" glyph-name="r" horiz-adv-x="381" unicode="r"/>
<glyph d="M239 472q-78 0 -104 -48q-9 -16 -9 -34q2 -54 84 -71l99 -20q93 -20 124 -56q29 -34 29 -93q0 -117 -120 -151q-42 -11 -94 -11q-143 0 -197 87q-26 42 -26 97h85q9 -117 138 -118q92 0 119 53q9 18 9 37q0 56 -75 76q-10 3 -20 5l-93 20q-105 23 -134 76q-14 28 -14 66 q1 70 55 110q57 41 144 41q134 0 188 -78q25 -39 26 -90h-84q-4 76 -82 96q-22 6 -48 6z" glyph-name="s" horiz-adv-x="500" unicode="s"/>
<glyph d="M308 72v-72q-35 -2 -68 -2q-89 0 -114 37q-18 27 -18 79v347h-88v65h88v151h84v-151h121v-65h-121v-327q0 -48 25 -58q14 -5 38 -5q44 0 53 1z" glyph-name="t" horiz-adv-x="343" unicode="t"/>
<glyph d="M424 0v73h-4q-42 -69 -132 -82q-17 -3 -34 -3q-110 0 -159 80q-27 45 -27 107v351h84v-322q0 -122 84 -141q19 -4 40 -4q82 0 121 71q23 44 23 104v292h84v-526h-80z" glyph-name="u" horiz-adv-x="572" unicode="u"/>
<glyph d="M507 526l-209 -526h-82l-208 526h94l107 -288q25 -64 47 -136h4q20 65 47 136l110 288h90z" glyph-name="v" horiz-adv-x="516" unicode="v"/>
<glyph d="M715 526h89l-180 -526h-82l-93 275q-21 65 -42 141h-4q-27 -93 -43 -141l-92 -275h-78l-182 526h93l90 -282q25 -80 40 -141h4q16 62 40 140l91 283h85l91 -283q25 -79 40 -140h4q16 62 40 141z" glyph-name="w" horiz-adv-x="812" unicode="w"/>
<glyph d="M491 0h-100l-142 207l-145 -207h-96l191 268l-180 258h98l133 -195l134 195h96l-180 -256z" glyph-name="x" horiz-adv-x="499" unicode="x"/>
<glyph d="M417 526h90l-222 -559q-47 -114 -95 -143q-31 -19 -90 -20h-47v73h36q52 0 80 38q15 22 32 63l14 35l-207 513h94l107 -288q25 -64 47 -136h4q20 65 47 136z" glyph-name="y" horiz-adv-x="516" unicode="y"/>
<glyph d="M452 0h-412v77l309 375h-292v74h395v-77l-309 -376h309v-73z" glyph-name="z" horiz-adv-x="492" unicode="z"/>
<glyph d="M128 313v-4q74 -21 75 -124v-168q0 -59 25 -73q14 -7 38 -7h35v-70h-59q-100 0 -118 84q-4 21 -4 47v172q-1 103 -68 104v73q67 2 68 104v172q0 112 85 128q17 3 37 3h59v-70h-35q-47 0 -57 -31q-6 -18 -6 -49v-168q0 -106 -73 -123h-2z" glyph-name="braceleft" horiz-adv-x="320" unicode="{"/>
<glyph d="M156 799v-1026h-82v1026h82z" glyph-name="bar" horiz-adv-x="230" unicode="|"/>
<glyph d="M117 436v168q0 59 -25 73q-14 7 -38 7h-35v70h60q98 0 116 -81q5 -22 5 -50v-172q1 -103 68 -104v-73q-67 -2 -68 -104v-172q0 -110 -81 -127q-19 -4 -40 -4h-60v70h35q47 0 57 31q6 18 6 49v168q1 104 75 124v4q-73 21 -75 123z" glyph-name="braceright" horiz-adv-x="320" unicode="}"/>
<glyph d="M501 380v-86q-51 -51 -105 -51q-31 1 -80 23l-70 33q-44 21 -70 21q-51 0 -101 -60q-2 -3 -4 -5v86q51 51 105 51q35 -1 80 -22l70 -34q41 -21 70 -21q51 0 101 60q2 3 4 5z" glyph-name="asciitilde" horiz-adv-x="573" unicode="~"/>
<glyph glyph-name="uni00A0" horiz-adv-x="168" unicode=" "/>
<glyph d="M70 533h105v-105h-105v105zM154 341l14 -317v-205h-90v205l13 317h63z" glyph-name="exclamdown" horiz-adv-x="246" unicode="¡"/>
<glyph d="M307 -12v-87h-45v89q-103 12 -160 83q-58 74 -58 190q1 115 58 188q60 74 160 85v77h45v-75q115 -3 173 -83q27 -39 29 -80h-88q-11 66 -74 87q-19 6 -40 7v-411q94 5 114 94q1 6 2 11h88q-2 -73 -62 -124q-57 -48 -142 -51zM262 60v406q-92 -18 -121 -119 q-11 -38 -11 -84q0 -134 81 -184q24 -14 51 -19z" glyph-name="cent" unicode="¢"/>
<glyph d="M545 80v-81q-34 -13 -76 -13q-69 0 -154 57q-18 13 -42 31q-26 -73 -99 -86q-12 -2 -25 -2q-80 0 -108 57q-10 23 -10 49q0 72 62 96q23 9 49 9q34 0 69 -17q-1 58 -31 112h-151v55h120q-62 84 -70 144q-2 16 -2 31q0 108 92 161q57 32 133 32q131 0 193 -84 q41 -54 41 -133h-81q-8 101 -85 136q-31 14 -68 14q-91 0 -127 -67q-15 -30 -15 -66q0 -51 43 -116q7 -11 16 -23l20 -29h198v-55h-171q28 -49 28 -109q0 -31 -4 -43l24 -17q82 -57 122 -64q12 -2 23 -2q48 1 86 23zM209 117q-37 25 -61 25q-38 0 -49 -33q-2 -9 -2 -17 q0 -40 38 -48q7 -2 15 -2q39 0 54 54q3 11 5 21z" glyph-name="sterling" horiz-adv-x="593" unicode="£"/>
<glyph d="M454 243l55 -55l-44 -41l-53 55q-57 -41 -123 -41q-68 1 -124 41l-53 -55l-44 41l56 55q-42 55 -42 125q1 71 42 125l-56 55l44 41l53 -55q57 41 124 41q67 -1 123 -41l53 55l44 -41l-55 -55q42 -58 42 -125q-1 -68 -42 -125zM423 368q0 71 -55 114q-36 28 -79 28 q-68 0 -109 -58q-26 -38 -26 -84q0 -72 55 -114q36 -28 80 -28q66 0 107 57q27 38 27 85z" glyph-name="currency" horiz-adv-x="577" unicode="¤"/>
<glyph d="M613 701l-177 -293h115v-57h-149l-43 -72h192v-57h-193v-222h-88v222h-193v57h192l-43 72h-149v57h115l-176 293h99l200 -346l201 346h97z" glyph-name="yen" horiz-adv-x="629" unicode="¥"/>
<glyph d="M156 799v-437h-82v437h82zM156 210v-437h-82v437h82z" glyph-name="brokenbar" horiz-adv-x="230" unicode="¦"/>
<glyph d="M464 108q36 -44 36 -113q0 -122 -122 -155q-39 -10 -86 -10q-141 0 -192 89q-23 40 -23 93h84q11 -112 131 -114q115 0 123 83v11q0 34 -12 54q-16 26 -52 45q-9 4 -24 11l-172 75q-90 39 -113 92q-13 29 -13 65q0 90 97 129q5 2 9 3q-42 46 -42 108q0 93 85 133 q47 22 107 22q124 0 177 -74q28 -39 28 -91h-83q-3 78 -84 94q-18 4 -38 4q-76 0 -99 -52q-7 -16 -7 -35q2 -58 67 -86l180 -81q78 -34 103 -72q23 -36 25 -92q0 -94 -88 -135q-1 -1 -2 -1zM468 235q-1 68 -78 102l-174 78q-16 7 -31 15q-70 -24 -71 -87q2 -61 70 -92 l165 -72q44 -19 66 -32q52 24 53 88z" glyph-name="section" horiz-adv-x="602" unicode="§"/>
<glyph d="M68 628v91h84v-91h-84zM258 628v91h84v-91h-84z" glyph-name="dieresis" horiz-adv-x="410" unicode="¨"/>
<glyph d="M52 357q-3 137 93 246q92 105 224 124q28 4 56 3q137 3 246 -93q105 -92 124 -224q4 -28 3 -56q3 -137 -93 -246q-92 -105 -224 -124q-28 -4 -56 -3q-137 -3 -246 93q-105 92 -124 224q-4 28 -3 56zM740 357q3 122 -84 216q-86 93 -206 101q-13 1 -25 1q-123 2 -217 -88 q-91 -87 -98 -207q-1 -12 -1 -23q-2 -122 85 -217q86 -93 206 -100q13 -1 25 -1q122 -3 215 86q92 87 99 207q1 13 1 25zM427 170q-104 0 -150 81q-25 45 -25 106q0 115 81 163q41 24 94 24q94 0 137 -63q20 -29 20 -60h-72q-11 65 -85 66q-76 0 -97 -76q-7 -25 -7 -54 q0 -101 69 -125q16 -5 35 -5q78 1 88 77h72q2 -64 -54 -104q-44 -30 -106 -30z" glyph-name="copyright" horiz-adv-x="850" unicode="©"/>
<glyph d="M349 363h-69q-12 12 -12 45v1q-27 -46 -99 -53q-9 -1 -18 -1q-68 0 -98 49q-15 24 -15 53q2 93 112 108l67 10q48 11 50 42q-7 40 -67 43q-74 -1 -79 -57h-68q0 77 80 103q30 9 67 9q109 0 133 -68q5 -16 5 -33v-198q1 -42 11 -53zM217 524l-43 -6q-64 -12 -65 -59 q2 -51 58 -52q62 0 88 44q12 21 12 47v42q-12 -10 -50 -16zM361 67v-67h-336v67h336z" glyph-name="ordfeminine" horiz-adv-x="386" unicode="ª"/>
<glyph d="M49 316l175 155v-92l-113 -104v-4l113 -104v-92l-175 155v86zM259 316l175 155v-92l-114 -104v-4l114 -104v-92l-175 155v86z" glyph-name="guillemotleft" horiz-adv-x="483" unicode="«"/>
<glyph d="M502 396v-252h-70v181h-361v71h431z" glyph-name="logicalnot" horiz-adv-x="573" unicode="¬"/>
<glyph d="M798 357q3 -137 -93 -246q-92 -105 -224 -124q-28 -4 -56 -3q-137 -3 -246 93q-105 92 -124 224q-4 28 -3 56q-3 137 93 246q92 105 224 124q28 4 56 3q137 3 246 -93q105 -92 124 -224q4 -28 3 -56zM740 357q3 122 -84 216q-86 93 -206 101q-13 1 -25 1q-123 2 -217 -88 q-91 -87 -98 -207q-1 -12 -1 -23q-2 -122 85 -217q86 -93 206 -100q13 -1 25 -1q122 -3 215 86q92 87 99 207q1 13 1 25zM588 178h-82l-85 142h-72v-142h-70v358h178q90 0 116 -65q7 -20 7 -43q0 -78 -71 -100q-6 -2 -12 -3zM349 480v-103h98q58 6 62 51q-8 48 -62 52h-98z " glyph-name="registered" horiz-adv-x="850" unicode="®"/>
<glyph d="M348 631h-280v65h280v-65z" glyph-name="overscore" horiz-adv-x="415" unicode="¯"/>
<glyph d="M31 570q0 74 60 117q39 28 86 28q71 0 116 -57q30 -39 30 -88q0 -72 -59 -115q-40 -29 -87 -29q-71 0 -116 56q-30 40 -30 88zM261 570q0 53 -43 77q-19 11 -41 11q-50 0 -73 -44q-11 -21 -11 -44q0 -53 43 -77q19 -11 41 -11q50 0 73 44q11 21 11 44z" glyph-name="degree" horiz-adv-x="354" unicode="°"/>
<glyph d="M502 361v-71h-179v-190h-72v190h-180v71h180v189h72v-189h179zM71 71h431v-71h-431v71z" glyph-name="plusminus" horiz-adv-x="573" unicode="±"/>
<glyph d="M103 355h214v-61h-294v24q3 84 60 133q19 16 53 38l50 32q58 39 59 79q0 54 -52 64q-9 1 -18 1q-72 0 -78 -84h-69q0 104 88 132q27 9 59 9q95 0 129 -62q14 -25 14 -57q-1 -38 -16 -63t-30 -37q-25 -17 -57 -38l-45 -29q-65 -41 -67 -81z" glyph-name="uni00B2" horiz-adv-x="350" unicode="²"/>
<glyph d="M135 537h37q58 0 72 43q3 11 3 21q0 46 -44 61q-13 4 -27 4q-50 0 -67 -40q-4 -12 -5 -26h-70q1 84 79 112q28 10 63 10q92 0 128 -59q16 -27 16 -60q0 -55 -52 -82q-5 -3 -10 -5v-4q66 -20 72 -87q1 -6 1 -12q0 -90 -87 -118q-31 -9 -68 -9q-106 0 -141 68 q-14 29 -13 65h73q-1 -54 48 -71q16 -5 33 -5q59 0 77 43q5 13 5 27q0 66 -75 71h-11h-37v53z" glyph-name="uni00B3" horiz-adv-x="369" unicode="³"/>
<glyph d="M242 734l-106 -145h-68l75 145h99z" glyph-name="acute" horiz-adv-x="310" unicode="´"/>
<glyph d="M603 714v-898h-76v830h-139v-830h-76v452q-160 0 -229 96q-39 54 -39 127q0 119 97 180q70 43 171 43h291z" glyph-name="paragraph" horiz-adv-x="677" unicode="¶"/>
<glyph d="M70 316q0 38 34 56q15 8 31 8q39 0 57 -35q7 -14 7 -29q0 -41 -36 -58q-14 -6 -28 -6q-40 0 -58 35q-7 14 -7 29z" glyph-name="middot" horiz-adv-x="270" unicode="·"/>
<glyph d="M137 -166q37 0 45 29q1 6 1 11q-6 33 -46 36q-18 0 -38 -7v53l76 81l67 5l-73 -79v-4q4 0 18 -2q50 -13 61 -62q2 -10 2 -21q0 -64 -60 -86q-22 -8 -47 -8q-42 0 -75 13v59h1q35 -18 68 -18z" glyph-name="cedilla" horiz-adv-x="318" unicode="¸"/>
<glyph d="M117 714h60v-420h-70v312h-91v47h7q83 1 94 61z" glyph-name="uni00B9" horiz-adv-x="261" unicode="¹"/>
<glyph d="M361 535q0 -110 -76 -156q-40 -24 -92 -24q-102 0 -145 81q-23 43 -23 99q0 107 75 155q40 25 93 25q98 0 143 -77q25 -44 25 -103zM290 535q0 95 -61 119q-17 6 -36 6q-70 0 -90 -74q-6 -23 -6 -51q0 -99 64 -121q16 -5 32 -5q68 0 90 71q7 25 7 55zM361 67v-67h-336v67 h336z" glyph-name="ordmasculine" horiz-adv-x="386" unicode="º"/>
<glyph d="M224 316v-86l-175 -155v92l114 104v4l-114 104v92zM434 316v-86l-175 -155v92l113 104v4l-113 104v92z" glyph-name="guillemotright" horiz-adv-x="483" unicode="»"/>
<glyph d="M313 533v-108h-107v108h107zM425 32h81q-5 -111 -75 -169q-70 -59 -175 -59q-123 0 -187 75q-41 48 -41 113q0 90 65 148q18 15 43 32q62 41 76 90q7 25 7 59v20h81v-43q0 -89 -54 -141q-20 -19 -47 -37q-69 -46 -77 -107q-2 -12 -2 -23q0 -70 66 -99q31 -13 70 -13 q145 0 168 148q1 4 1 6z" glyph-name="questiondown" horiz-adv-x="534" unicode="¿"/>
<glyph d="M595 0l-84 208h-319l-82 -208h-98l297 714h87l298 -714h-99zM223 284h258q-48 119 -128 328h-4q-63 -169 -126 -328zM213 912h99l75 -145h-68z" glyph-name="Agrave" horiz-adv-x="706" unicode="À"/>
<glyph d="M595 0l-84 208h-319l-82 -208h-98l297 714h87l298 -714h-99zM223 284h258q-48 119 -128 328h-4q-63 -169 -126 -328zM493 912l-106 -145h-68l75 145h99z" glyph-name="Aacute" horiz-adv-x="706" unicode="Á"/>
<glyph d="M595 0l-84 208h-319l-82 -208h-98l297 714h87l298 -714h-99zM223 284h258q-48 119 -128 328h-4q-63 -169 -126 -328zM425 766l-70 86h-4l-71 -86h-91l127 145h73l127 -145h-91z" glyph-name="Acircumflex" horiz-adv-x="706" unicode="Â"/>
<glyph d="M595 0l-84 208h-319l-82 -208h-98l297 714h87l298 -714h-99zM223 284h258q-48 119 -128 328h-4q-63 -169 -126 -328zM336 808l-22 10q-19 8 -29 8q-23 0 -27 -27q-1 -6 -1 -12h-64q3 103 86 104q34 -1 89 -27q36 -18 51 -18q23 0 27 24q1 7 1 14h64q-3 -103 -86 -104 q-31 1 -89 28z" glyph-name="Atilde" horiz-adv-x="706" unicode="Ã"/>
<glyph d="M595 0l-84 208h-319l-82 -208h-98l297 714h87l298 -714h-99zM223 284h258q-48 119 -128 328h-4q-63 -169 -126 -328zM216 787v91h84v-91h-84zM406 787v91h84v-91h-84z" glyph-name="Adieresis" horiz-adv-x="706" unicode="Ä"/>
<glyph d="M595 0l-84 208h-319l-82 -208h-98l297 714h87l298 -714h-99zM223 284h258q-48 119 -128 328h-4q-63 -169 -126 -328zM248 851q0 56 48 86q26 16 57 16q59 0 89 -48q16 -25 16 -54q0 -56 -48 -87q-26 -16 -57 -16q-59 0 -89 48q-16 26 -16 55zM404 851q0 38 -33 50 q-9 3 -18 3q-39 0 -49 -35q-3 -9 -3 -18q0 -40 34 -51q9 -3 18 -3q35 0 47 33q4 10 4 21z" glyph-name="Aring" horiz-adv-x="706" unicode="Å"/>
<glyph d="M1007 638h-375v-225h359v-75h-359v-260h375v-78h-463v214h-313l-118 -214h-101l404 714h591v-76zM273 290h271v348h-80z" glyph-name="AE" horiz-adv-x="1056" unicode="Æ"/>
<glyph d="M412 -14l-21 -23v-4q3 0 17 -2q50 -12 61 -60q3 -12 3 -23q0 -65 -61 -86q-22 -8 -47 -8q-41 0 -75 13v59h1q35 -18 68 -18q37 0 45 29q1 6 1 11q-6 33 -46 36q-18 0 -38 -7v53l29 30q-160 16 -239 145q-58 94 -58 227q0 194 116 295q88 76 218 76q156 0 237 -99 q47 -60 50 -131h-94q-9 61 -54 108q-44 46 -139 46q-135 0 -199 -111q-43 -75 -43 -184q0 -178 103 -254q59 -43 139 -43q97 1 145 51q48 54 56 123h94q-4 -105 -83 -177q-74 -65 -186 -72z" glyph-name="Ccedilla" horiz-adv-x="726" unicode="Ç"/>
<glyph d="M164 638v-225h376v-75h-376v-260h392v-78h-482v714h482v-76h-392zM175 912h99l75 -145h-68z" glyph-name="Egrave" horiz-adv-x="606" unicode="È"/>
<glyph d="M164 638v-225h376v-75h-376v-260h392v-78h-482v714h482v-76h-392zM455 912l-106 -145h-68l75 145h99z" glyph-name="Eacute" horiz-adv-x="606" unicode="É"/>
<glyph d="M164 638v-225h376v-75h-376v-260h392v-78h-482v714h482v-76h-392zM388 766l-70 86h-4l-71 -86h-91l127 145h73l127 -145h-91z" glyph-name="Ecircumflex" horiz-adv-x="606" unicode="Ê"/>
<glyph d="M164 638v-225h376v-75h-376v-260h392v-78h-482v714h482v-76h-392zM178 787v91h84v-91h-84zM368 787v91h84v-91h-84z" glyph-name="Edieresis" horiz-adv-x="606" unicode="Ë"/>
<glyph d="M168 0h-90v714h90v-714zM-17 912h99l75 -145h-68z" glyph-name="Igrave" horiz-adv-x="247" unicode="Ì"/>
<glyph d="M168 0h-90v714h90v-714zM263 912l-106 -145h-68l75 145h99z" glyph-name="Iacute" horiz-adv-x="247" unicode="Í"/>
<glyph d="M168 0h-90v714h90v-714zM196 766l-70 86h-4l-71 -86h-91l127 145h73l127 -145h-91z" glyph-name="Icircumflex" horiz-adv-x="247" unicode="Î"/>
<glyph d="M168 0h-90v714h90v-714zM-14 787v91h84v-91h-84zM176 787v91h84v-91h-84z" glyph-name="Idieresis" horiz-adv-x="247" unicode="Ï"/>
<glyph d="M674 357q0 -213 -139 -304q-82 -53 -198 -53h-263v332h-75v71h75v311h263q188 0 277 -130q60 -90 60 -227zM582 357q0 187 -125 252q-56 29 -131 29h-162v-235h167v-71h-167v-256h162q165 0 226 130q30 64 30 151z" glyph-name="Eth" horiz-adv-x="726" unicode="Ð"/>
<glyph d="M645 714v-714h-95l-387 583h-4v-583h-85v714h99l383 -575h4v575h85zM343 808l-22 10q-19 8 -29 8q-23 0 -27 -27q-1 -6 -1 -12h-64q3 103 86 104q34 -1 89 -27q36 -18 51 -18q23 0 27 24q1 7 1 14h64q-3 -103 -86 -104q-31 1 -89 28z" glyph-name="Ntilde" horiz-adv-x="719" unicode="Ñ"/>
<glyph d="M711 357q0 -194 -116 -296q-87 -76 -214 -76q-162 0 -253 118q-76 99 -76 254q0 195 116 297q87 75 213 75q162 0 253 -117q77 -100 77 -255zM619 357q0 178 -103 254q-57 42 -135 42q-130 0 -193 -109q-44 -75 -44 -187q0 -178 103 -254q57 -42 134 -42q132 0 195 110 q43 75 43 186zM241 912h99l75 -145h-68z" glyph-name="Ograve" horiz-adv-x="763" unicode="Ò"/>
<glyph d="M711 357q0 -194 -116 -296q-87 -76 -214 -76q-162 0 -253 118q-76 99 -76 254q0 195 116 297q87 75 213 75q162 0 253 -117q77 -100 77 -255zM619 357q0 178 -103 254q-57 42 -135 42q-130 0 -193 -109q-44 -75 -44 -187q0 -178 103 -254q57 -42 134 -42q132 0 195 110 q43 75 43 186zM521 912l-106 -145h-68l75 145h99z" glyph-name="Oacute" horiz-adv-x="763" unicode="Ó"/>
<glyph d="M711 357q0 -194 -116 -296q-87 -76 -214 -76q-162 0 -253 118q-76 99 -76 254q0 195 116 297q87 75 213 75q162 0 253 -117q77 -100 77 -255zM619 357q0 178 -103 254q-57 42 -135 42q-130 0 -193 -109q-44 -75 -44 -187q0 -178 103 -254q57 -42 134 -42q132 0 195 110 q43 75 43 186zM454 766l-70 86h-4l-71 -86h-91l127 145h73l127 -145h-91z" glyph-name="Ocircumflex" horiz-adv-x="763" unicode="Ô"/>
<glyph d="M711 357q0 -194 -116 -296q-87 -76 -214 -76q-162 0 -253 118q-76 99 -76 254q0 195 116 297q87 75 213 75q162 0 253 -117q77 -100 77 -255zM619 357q0 178 -103 254q-57 42 -135 42q-130 0 -193 -109q-44 -75 -44 -187q0 -178 103 -254q57 -42 134 -42q132 0 195 110 q43 75 43 186zM365 808l-22 10q-19 8 -29 8q-23 0 -27 -27q-1 -6 -1 -12h-64q3 103 86 104q34 -1 89 -27q36 -18 51 -18q23 0 27 24q1 7 1 14h64q-3 -103 -86 -104q-31 1 -89 28z" glyph-name="Otilde" horiz-adv-x="763" unicode="Õ"/>
<glyph d="M711 357q0 -194 -116 -296q-87 -76 -214 -76q-162 0 -253 118q-76 99 -76 254q0 195 116 297q87 75 213 75q162 0 253 -117q77 -100 77 -255zM619 357q0 178 -103 254q-57 42 -135 42q-130 0 -193 -109q-44 -75 -44 -187q0 -178 103 -254q57 -42 134 -42q132 0 195 110 q43 75 43 186zM244 787v91h84v-91h-84zM434 787v91h84v-91h-84z" glyph-name="Odieresis" horiz-adv-x="763" unicode="Ö"/>
<glyph d="M433 530l49 -49l-156 -156l156 -156l-50 -49l-155 156l-156 -156l-50 49l157 156l-157 156l49 49l157 -156z" glyph-name="multiply" horiz-adv-x="553" unicode="×"/>
<glyph d="M711 692l-73 -86q73 -99 73 -249q0 -191 -114 -294q-87 -78 -216 -78q-125 1 -211 74l-69 -82l-49 45l73 86q-73 96 -73 249q0 192 114 294q87 78 215 78q125 -1 211 -74l70 82zM184 177l354 415q-63 61 -157 61q-128 0 -192 -107q-45 -76 -45 -189q0 -109 40 -180z M579 537l-354 -415q62 -61 156 -61q130 0 194 108q44 76 44 188q0 106 -40 180z" glyph-name="Oslash" horiz-adv-x="763" unicode="Ø"/>
<glyph d="M634 714v-460q0 -154 -112 -225q-71 -44 -168 -44q-152 0 -227 98q-53 69 -53 171v460h90v-452q2 -199 190 -200q189 2 190 200v452h90zM214 912h99l75 -145h-68z" glyph-name="Ugrave" horiz-adv-x="709" unicode="Ù"/>
<glyph d="M634 714v-460q0 -154 -112 -225q-71 -44 -168 -44q-152 0 -227 98q-53 69 -53 171v460h90v-452q2 -199 190 -200q189 2 190 200v452h90zM494 912l-106 -145h-68l75 145h99z" glyph-name="Uacute" horiz-adv-x="709" unicode="Ú"/>
<glyph d="M634 714v-460q0 -154 -112 -225q-71 -44 -168 -44q-152 0 -227 98q-53 69 -53 171v460h90v-452q2 -199 190 -200q189 2 190 200v452h90zM427 766l-70 86h-4l-71 -86h-91l127 145h73l127 -145h-91z" glyph-name="Ucircumflex" horiz-adv-x="709" unicode="Û"/>
<glyph d="M634 714v-460q0 -154 -112 -225q-71 -44 -168 -44q-152 0 -227 98q-53 69 -53 171v460h90v-452q2 -199 190 -200q189 2 190 200v452h90zM217 787v91h84v-91h-84zM407 787v91h84v-91h-84z" glyph-name="Udieresis" horiz-adv-x="709" unicode="Ü"/>
<glyph d="M525 714h99l-259 -430v-284h-90v283l-259 431h101l204 -353zM461 912l-106 -145h-68l75 145h99z" glyph-name="Yacute" horiz-adv-x="640" unicode="Ý"/>
<glyph d="M612 377q0 -134 -108 -183q-50 -23 -118 -23h-222v-171h-90v714h90v-131h222q152 0 204 -104q22 -45 22 -102zM521 377q0 113 -115 128q-16 2 -33 2h-209v-260h209q132 0 146 105q2 13 2 25z" glyph-name="Thorn" horiz-adv-x="652" unicode="Þ"/>
<glyph d="M431 400v-4q130 -31 141 -164q1 -13 1 -25q-1 -112 -71 -166q-72 -53 -185 -53q-36 0 -68 7v71q36 -9 68 -9q109 0 151 72q19 34 19 78q0 104 -94 136q-35 12 -77 12h-67v65h53q93 0 131 59q18 28 18 64q0 79 -74 110q-34 14 -75 14q-115 0 -142 -98q-8 -28 -8 -61v-508 h-84v508q0 156 120 207q50 21 114 21q104 0 168 -51q65 -52 65 -140q0 -85 -67 -128q-18 -11 -37 -17z" glyph-name="germandbls" horiz-adv-x="617" unicode="ß"/>
<glyph d="M495 0h-83q-17 20 -17 73v2q-42 -69 -145 -84q-21 -3 -41 -3q-91 0 -139 63q-30 40 -30 93q0 133 156 161l14 2l105 16q74 20 79 68q0 54 -66 71q-23 6 -50 6q-120 0 -130 -90q-1 -5 -1 -8h-84q1 82 60 125q60 43 155 43q143 0 186 -84q14 -30 14 -65v-305q1 -67 17 -84z M309 256l-73 -12q-109 -19 -110 -99q0 -69 65 -85q16 -4 34 -4q85 0 133 53q36 41 36 101v71q-14 -13 -85 -25zM138 734h99l75 -145h-68z" glyph-name="agrave" unicode="à"/>
<glyph d="M495 0h-83q-17 20 -17 73v2q-42 -69 -145 -84q-21 -3 -41 -3q-91 0 -139 63q-30 40 -30 93q0 133 156 161l14 2l105 16q74 20 79 68q0 54 -66 71q-23 6 -50 6q-120 0 -130 -90q-1 -5 -1 -8h-84q1 82 60 125q60 43 155 43q143 0 186 -84q14 -30 14 -65v-305q1 -67 17 -84z M309 256l-73 -12q-109 -19 -110 -99q0 -69 65 -85q16 -4 34 -4q85 0 133 53q36 41 36 101v71q-14 -13 -85 -25zM418 734l-106 -145h-68l75 145h99z" glyph-name="aacute" unicode="á"/>
<glyph d="M495 0h-83q-17 20 -17 73v2q-42 -69 -145 -84q-21 -3 -41 -3q-91 0 -139 63q-30 40 -30 93q0 133 156 161l14 2l105 16q74 20 79 68q0 54 -66 71q-23 6 -50 6q-120 0 -130 -90q-1 -5 -1 -8h-84q1 82 60 125q60 43 155 43q143 0 186 -84q14 -30 14 -65v-305q1 -67 17 -84z M309 256l-73 -12q-109 -19 -110 -99q0 -69 65 -85q16 -4 34 -4q85 0 133 53q36 41 36 101v71q-14 -13 -85 -25zM351 589l-70 86h-4l-71 -86h-91l127 145h73l127 -145h-91z" glyph-name="acircumflex" unicode="â"/>
<glyph d="M495 0h-83q-17 20 -17 73v2q-42 -69 -145 -84q-21 -3 -41 -3q-91 0 -139 63q-30 40 -30 93q0 133 156 161l14 2l105 16q74 20 79 68q0 54 -66 71q-23 6 -50 6q-120 0 -130 -90q-1 -5 -1 -8h-84q1 82 60 125q60 43 155 43q143 0 186 -84q14 -30 14 -65v-305q1 -67 17 -84z M309 256l-73 -12q-109 -19 -110 -99q0 -69 65 -85q16 -4 34 -4q85 0 133 53q36 41 36 101v71q-14 -13 -85 -25zM262 641q-36 18 -51 18q-23 0 -27 -24q-1 -7 -1 -14h-64q3 103 86 104q31 -1 89 -28l22 -10q19 -8 29 -8q23 0 27 27q1 6 1 12h64q-3 -103 -86 -104 q-31 1 -89 27z" glyph-name="atilde" unicode="ã"/>
<glyph d="M495 0h-83q-17 20 -17 73v2q-42 -69 -145 -84q-21 -3 -41 -3q-91 0 -139 63q-30 40 -30 93q0 133 156 161l14 2l105 16q74 20 79 68q0 54 -66 71q-23 6 -50 6q-120 0 -130 -90q-1 -5 -1 -8h-84q1 82 60 125q60 43 155 43q143 0 186 -84q14 -30 14 -65v-305q1 -67 17 -84z M309 256l-73 -12q-109 -19 -110 -99q0 -69 65 -85q16 -4 34 -4q85 0 133 53q36 41 36 101v71q-14 -13 -85 -25zM141 628v91h84v-91h-84zM331 628v91h84v-91h-84z" glyph-name="adieresis" unicode="ä"/>
<glyph d="M495 0h-83q-17 20 -17 73v2q-42 -69 -145 -84q-21 -3 -41 -3q-91 0 -139 63q-30 40 -30 93q0 133 156 161l14 2l105 16q74 20 79 68q0 54 -66 71q-23 6 -50 6q-120 0 -130 -90q-1 -5 -1 -8h-84q1 82 60 125q60 43 155 43q143 0 186 -84q14 -30 14 -65v-305q1 -67 17 -84z M309 256l-73 -12q-109 -19 -110 -99q0 -69 65 -85q16 -4 34 -4q85 0 133 53q36 41 36 101v71q-14 -13 -85 -25zM174 687q0 56 48 87q26 16 57 16q59 0 89 -48q16 -26 16 -55q0 -56 -48 -86q-26 -16 -57 -16q-59 0 -89 48q-16 25 -16 54zM330 687q0 39 -33 51q-9 3 -18 3 q-39 0 -49 -36q-3 -9 -3 -18q0 -39 34 -50q9 -3 18 -3q35 0 47 32q4 10 4 21z" glyph-name="aring" unicode="å"/>
<glyph d="M841 245h-374q-1 -113 69 -162q38 -26 86 -26q107 0 125 94q1 3 1 4h85q-6 -83 -75 -130q-55 -37 -136 -37q-129 0 -191 111l-4 8q-27 -62 -85 -91q-58 -28 -123 -28q-106 0 -153 69q-26 38 -26 87q0 136 161 162q3 1 5 1l102 16q71 19 75 68q0 55 -63 71q-22 6 -47 6 q-113 0 -126 -86q-1 -6 -1 -12h-84q0 107 100 148q48 20 111 20q135 -1 177 -80q62 79 163 80q116 0 180 -94q49 -73 49 -180q0 -15 -1 -19zM468 312h287q-6 86 -64 131q-36 26 -80 26q-61 -1 -100 -47q-38 -49 -43 -110zM383 210v71q-12 -13 -83 -25l-68 -12 q-105 -19 -106 -99q0 -83 89 -89h11q84 0 127 57q30 40 30 97z" glyph-name="ae" horiz-adv-x="886" unicode="æ"/>
<glyph d="M327 -10l-26 -27v-4q4 0 18 -2q50 -13 61 -62q2 -10 2 -21q0 -64 -60 -86q-22 -8 -47 -8q-42 0 -75 13v59h1q35 -18 68 -18q37 0 45 29q1 6 1 11q-6 33 -46 36q-19 0 -38 -7v53l31 34q-130 14 -186 125q-32 64 -32 148q0 149 95 224q65 51 156 51q115 0 176 -74 q33 -41 36 -89h-88q-15 76 -90 91q-17 3 -34 3q-104 0 -145 -95q-20 -48 -20 -111q0 -133 81 -184q36 -22 83 -22q109 2 127 106h88q-4 -89 -81 -139q-44 -28 -101 -34z" glyph-name="ccedilla" horiz-adv-x="544" unicode="ç"/>
<glyph d="M294 -12q-130 0 -200 99q-50 72 -50 176q0 148 91 224q61 51 148 51q125 0 191 -96q49 -71 49 -176v-21h-394q-1 -110 71 -160q41 -28 94 -28q111 0 133 88l2 10h86q-6 -80 -75 -127q-59 -40 -146 -40zM131 312h306q-6 83 -66 128q-39 29 -88 29q-81 0 -125 -72 q-23 -39 -27 -85zM144 734h99l75 -145h-68z" glyph-name="egrave" horiz-adv-x="570" unicode="è"/>
<glyph d="M294 -12q-130 0 -200 99q-50 72 -50 176q0 148 91 224q61 51 148 51q125 0 191 -96q49 -71 49 -176v-21h-394q-1 -110 71 -160q41 -28 94 -28q111 0 133 88l2 10h86q-6 -80 -75 -127q-59 -40 -146 -40zM131 312h306q-6 83 -66 128q-39 29 -88 29q-81 0 -125 -72 q-23 -39 -27 -85zM424 734l-106 -145h-68l75 145h99z" glyph-name="eacute" horiz-adv-x="570" unicode="é"/>
<glyph d="M294 -12q-130 0 -200 99q-50 72 -50 176q0 148 91 224q61 51 148 51q125 0 191 -96q49 -71 49 -176v-21h-394q-1 -110 71 -160q41 -28 94 -28q111 0 133 88l2 10h86q-6 -80 -75 -127q-59 -40 -146 -40zM131 312h306q-6 83 -66 128q-39 29 -88 29q-81 0 -125 -72 q-23 -39 -27 -85zM357 589l-70 86h-4l-71 -86h-91l127 145h73l127 -145h-91z" glyph-name="ecircumflex" horiz-adv-x="570" unicode="ê"/>
<glyph d="M294 -12q-130 0 -200 99q-50 72 -50 176q0 148 91 224q61 51 148 51q125 0 191 -96q49 -71 49 -176v-21h-394q-1 -110 71 -160q41 -28 94 -28q111 0 133 88l2 10h86q-6 -80 -75 -127q-59 -40 -146 -40zM131 312h306q-6 83 -66 128q-39 29 -88 29q-81 0 -125 -72 q-23 -39 -27 -85zM147 628v91h84v-91h-84zM337 628v91h84v-91h-84z" glyph-name="edieresis" horiz-adv-x="570" unicode="ë"/>
<glyph d="M68 0v526h84v-526h-84zM-30 734h99l75 -145h-68z" glyph-name="igrave" horiz-adv-x="220" unicode="ì"/>
<glyph d="M68 0v526h84v-526h-84zM250 734l-106 -145h-68l75 145h99z" glyph-name="iacute" horiz-adv-x="220" unicode="í"/>
<glyph d="M68 0v526h84v-526h-84zM182 589l-70 86h-4l-71 -86h-91l127 145h73l127 -145h-91z" glyph-name="icircumflex" horiz-adv-x="220" unicode="î"/>
<glyph d="M68 0v526h84v-526h-84zM-27 628v91h84v-91h-84zM163 628v91h84v-91h-84z" glyph-name="idieresis" horiz-adv-x="220" unicode="ï"/>
<glyph d="M548 257q0 -137 -91 -212q-67 -56 -161 -56q-122 0 -194 85q-58 69 -58 163q0 117 84 188q70 59 168 59q91 -1 149 -60h4q-35 108 -125 183l-91 -59l-41 42l83 54q-62 42 -154 76v4h129q41 -17 82 -43l92 60l41 -42l-82 -54q165 -133 165 -388zM462 237q0 93 -65 144 q-44 34 -101 34q-89 0 -137 -72q-30 -47 -30 -106q0 -95 66 -146q44 -33 101 -33q90 0 137 73q29 46 29 106z" glyph-name="eth" horiz-adv-x="592" unicode="ð"/>
<glyph d="M148 526v-73h4q42 69 132 82q17 3 34 3q110 0 159 -80q27 -45 27 -107v-351h-84v322q0 122 -84 141q-19 4 -40 4q-82 0 -121 -71q-23 -44 -23 -104v-292h-84v526h80zM270 641q-36 18 -51 18q-23 0 -27 -24q-1 -7 -1 -14h-64q3 103 86 104q31 -1 89 -28l22 -10 q19 -8 29 -8q23 0 27 27q1 6 1 12h64q-3 -103 -86 -104q-31 1 -89 27z" glyph-name="ntilde" horiz-adv-x="572" unicode="ñ"/>
<glyph d="M542 263q0 -148 -94 -223q-64 -52 -155 -52q-130 0 -199 98q-50 73 -50 177q0 148 94 223q64 52 155 52q130 0 199 -98q50 -73 50 -177zM456 263q0 129 -77 181q-38 25 -86 25q-96 0 -139 -88q-24 -50 -24 -118q0 -129 77 -181q38 -25 86 -25q96 0 139 88q24 50 24 118z M153 734h99l75 -145h-68z" glyph-name="ograve" horiz-adv-x="586" unicode="ò"/>
<glyph d="M542 263q0 -148 -94 -223q-64 -52 -155 -52q-130 0 -199 98q-50 73 -50 177q0 148 94 223q64 52 155 52q130 0 199 -98q50 -73 50 -177zM456 263q0 129 -77 181q-38 25 -86 25q-96 0 -139 -88q-24 -50 -24 -118q0 -129 77 -181q38 -25 86 -25q96 0 139 88q24 50 24 118z M433 734l-106 -145h-68l75 145h99z" glyph-name="oacute" horiz-adv-x="586" unicode="ó"/>
<glyph d="M542 263q0 -148 -94 -223q-64 -52 -155 -52q-130 0 -199 98q-50 73 -50 177q0 148 94 223q64 52 155 52q130 0 199 -98q50 -73 50 -177zM456 263q0 129 -77 181q-38 25 -86 25q-96 0 -139 -88q-24 -50 -24 -118q0 -129 77 -181q38 -25 86 -25q96 0 139 88q24 50 24 118z M365 589l-70 86h-4l-71 -86h-91l127 145h73l127 -145h-91z" glyph-name="ocircumflex" horiz-adv-x="586" unicode="ô"/>
<glyph d="M542 263q0 -148 -94 -223q-64 -52 -155 -52q-130 0 -199 98q-50 73 -50 177q0 148 94 223q64 52 155 52q130 0 199 -98q50 -73 50 -177zM456 263q0 129 -77 181q-38 25 -86 25q-96 0 -139 -88q-24 -50 -24 -118q0 -129 77 -181q38 -25 86 -25q96 0 139 88q24 50 24 118z M276 641q-36 18 -51 18q-23 0 -27 -24q-1 -7 -1 -14h-64q3 103 86 104q31 -1 89 -28l22 -10q19 -8 29 -8q23 0 27 27q1 6 1 12h64q-3 -103 -86 -104q-31 1 -89 27z" glyph-name="otilde" horiz-adv-x="586" unicode="õ"/>
<glyph d="M542 263q0 -148 -94 -223q-64 -52 -155 -52q-130 0 -199 98q-50 73 -50 177q0 148 94 223q64 52 155 52q130 0 199 -98q50 -73 50 -177zM456 263q0 129 -77 181q-38 25 -86 25q-96 0 -139 -88q-24 -50 -24 -118q0 -129 77 -181q38 -25 86 -25q96 0 139 88q24 50 24 118z M156 628v91h84v-91h-84zM346 628v91h84v-91h-84z" glyph-name="odieresis" horiz-adv-x="586" unicode="ö"/>
<glyph d="M249 513q0 37 32 52q13 6 25 6q37 0 53 -33q5 -13 5 -25q0 -37 -33 -52q-12 -6 -25 -6q-36 0 -52 33q-5 13 -5 25zM71 361h470v-71h-470v71zM249 137q0 37 32 52q13 6 25 6q37 0 53 -33q5 -13 5 -25q0 -37 -33 -52q-12 -5 -25 -5q-37 0 -52 34q-5 11 -5 23z" glyph-name="divide" horiz-adv-x="613" unicode="÷"/>
<glyph d="M542 508l-54 -62q54 -75 54 -183q0 -148 -94 -223q-64 -52 -155 -52q-95 1 -158 54l-51 -59l-40 36l54 61q-54 74 -54 183q0 148 94 223q64 52 155 52q93 -1 158 -53l51 58zM154 145l246 281q-44 43 -107 43q-96 0 -139 -88q-24 -50 -24 -118q0 -70 24 -118zM432 381 l-246 -281q41 -43 107 -43q96 0 139 88q24 50 24 118q0 69 -24 118z" glyph-name="oslash" horiz-adv-x="586" unicode="ø"/>
<glyph d="M424 0v73h-4q-42 -69 -132 -82q-17 -3 -34 -3q-110 0 -159 80q-27 45 -27 107v351h84v-322q0 -122 84 -141q19 -4 40 -4q82 0 121 71q23 44 23 104v292h84v-526h-80zM146 734h99l75 -145h-68z" glyph-name="ugrave" horiz-adv-x="572" unicode="ù"/>
<glyph d="M424 0v73h-4q-42 -69 -132 -82q-17 -3 -34 -3q-110 0 -159 80q-27 45 -27 107v351h84v-322q0 -122 84 -141q19 -4 40 -4q82 0 121 71q23 44 23 104v292h84v-526h-80zM426 734l-106 -145h-68l75 145h99z" glyph-name="uacute" horiz-adv-x="572" unicode="ú"/>
<glyph d="M424 0v73h-4q-42 -69 -132 -82q-17 -3 -34 -3q-110 0 -159 80q-27 45 -27 107v351h84v-322q0 -122 84 -141q19 -4 40 -4q82 0 121 71q23 44 23 104v292h84v-526h-80zM359 589l-70 86h-4l-71 -86h-91l127 145h73l127 -145h-91z" glyph-name="ucircumflex" horiz-adv-x="572" unicode="û"/>
<glyph d="M424 0v73h-4q-42 -69 -132 -82q-17 -3 -34 -3q-110 0 -159 80q-27 45 -27 107v351h84v-322q0 -122 84 -141q19 -4 40 -4q82 0 121 71q23 44 23 104v292h84v-526h-80zM149 628v91h84v-91h-84zM339 628v91h84v-91h-84z" glyph-name="udieresis" horiz-adv-x="572" unicode="ü"/>
<glyph d="M417 526h90l-222 -559q-47 -114 -95 -143q-31 -19 -90 -20h-47v73h36q52 0 80 38q15 22 32 63l14 35l-207 513h94l107 -288q25 -64 47 -136h4q20 65 47 136zM399 734l-106 -145h-68l75 145h99z" glyph-name="yacute" horiz-adv-x="516" unicode="ý"/>
<glyph d="M561 263q0 -143 -88 -220q-63 -55 -150 -55q-95 0 -147 58q-12 14 -20 28h-4v-258h-84v908h84v-272h4q32 63 118 81q24 5 49 5q117 0 184 -93q54 -74 54 -182zM475 263q0 129 -79 181q-38 25 -87 25q-93 0 -137 -84q-26 -52 -26 -122q0 -126 75 -179q39 -27 88 -27 q98 0 142 88q24 50 24 118z" glyph-name="thorn" horiz-adv-x="605" unicode="þ"/>
</font>
</defs>
</svg>
