<?xml version="1.0" encoding="UTF-8"?>
<!DOCTYPE svg  PUBLIC '-//W3C//DTD SVG 1.1//EN'  'http://www.w3.org/Graphics/SVG/1.1/DTD/svg11.dtd'>
<svg version="1.1" xmlns="http://www.w3.org/2000/svg">
<defs>
<font id="Shapiro-115PlusExtd" horiz-adv-x="1362">
<font-face font-family="Shapiro 115 Plus Extd" font-stretch="extra-expanded" font-weight="1000" ascent="789" bbox="-204 -280 1930 1052" cap-height="714" descent="-211" panose-1="2 11 6 3 5 0 0 2 0 4" underline-position="-100" underline-thickness="50" unicode-range="U+0020-00FE" units-per-em="1000" x-height="546"/>
<missing-glyph/>
<glyph glyph-name="space" horiz-adv-x="360" unicode=" "/>
<glyph d="M483 271h-398l-63 303v140h525v-140zM53 0v237h462v-237h-462z" glyph-name="exclam" horiz-adv-x="569" unicode="!"/>
<glyph d="M263 337h-241v377h241v-377zM540 337h-241v377h241v-377z" glyph-name="quotedbl" horiz-adv-x="562" unicode='"'/>
<glyph d="M960 397h-137l-25 -93h137l-43 -155h-137l-41 -149h-243l41 149h-140l-41 -149h-243l41 149h-137l43 155h137l25 93h-137l43 155h137l40 147h243l-40 -147h140l40 147h243l-40 -147h137zM555 304l25 93h-140l-25 -93h140z" glyph-name="numbersign" horiz-adv-x="995" unicode="#"/>
<glyph d="M693 -11v-110h-148v110q-308 6 -421 58q-97 45 -117 148q-3 19 -5 39h509q10 -46 93 -50h19q92 1 93 32q0 17 -26 22q-18 4 -56 7l-300 22q-191 15 -259 70q-59 48 -59 139q3 121 110 173q116 56 419 62v90h148v-91q302 -8 410 -70q91 -53 98 -163h-497q-10 40 -101 40 q-93 -1 -94 -30q0 -16 24 -21q17 -3 57 -6l320 -20q223 -13 286 -97q32 -42 32 -106q-1 -96 -53 -149q-52 -51 -166 -74q-111 -22 -316 -25z" glyph-name="dollar" horiz-adv-x="1236" unicode="$"/>
<glyph d="M612 511q0 -133 -102 -179q-69 -30 -193 -30q-204 0 -264 87q-31 47 -31 122q0 133 102 179q69 30 193 30q204 0 264 -87q31 -47 31 -122zM838 706h169l-490 -706h-169zM368 511q-2 60 -51 61q-50 -2 -51 -61q2 -60 51 -61q50 2 51 61zM1332 195q0 -133 -102 -179 q-69 -30 -193 -30q-204 0 -264 87q-31 47 -31 122q0 133 102 179q69 30 193 30q204 0 264 -87q31 -47 31 -122zM1088 195q-2 60 -51 61q-50 -2 -51 -61q2 -60 51 -61q50 2 51 61z" glyph-name="percent" horiz-adv-x="1354" unicode="%"/>
<glyph d="M1473 0h-530l-52 30q-190 -50 -356 -50q-184 0 -292 16q-215 29 -232 170q-2 14 -2 28q0 119 94 168q40 21 99 34l47 10q-72 42 -86 100q-4 18 -4 39q1 81 55 121q56 40 158 52q101 13 282 13q184 0 284 -13q177 -20 208 -120q7 -24 7 -53q0 -81 -76 -122 q-33 -18 -83 -32l-135 -39l87 -50q25 32 30 64h405q-9 -110 -179 -211zM627 485l44 9q57 12 59 36q-2 30 -75 30q-72 -1 -73 -33q0 -14 31 -33q6 -4 14 -9zM663 164l-149 87q-40 -18 -41 -44q0 -44 127 -46h12q26 0 51 3z" glyph-name="ampersand" horiz-adv-x="1467" unicode="&amp;"/>
<glyph d="M263 337h-241v377h241v-377z" glyph-name="quotesingle" horiz-adv-x="285" unicode="'"/>
<glyph d="M621 -172h-394q-44 29 -92 86q-49 57 -87 152q-38 96 -38 220q0 125 38 220q67 165 179 238h394q-61 -59 -120 -173q-58 -114 -58 -285q0 -172 58 -285q59 -115 120 -173z" glyph-name="parenleft" horiz-adv-x="621" unicode="("/>
<glyph d="M0 744h394q44 -29 92 -86q49 -57 87 -152q38 -96 38 -220q0 -125 -38 -220q-67 -165 -179 -238h-394q59 57 119 173q59 116 59 285q0 170 -59 285q-60 117 -119 173z" glyph-name="parenright" horiz-adv-x="621" unicode=")"/>
<glyph d="M660 510l-153 -84l153 -84l-118 -167l-101 75l9 -112h-230l9 112l-101 -75l-118 167l153 84l-153 84l118 167l101 -75l-9 112h230l-9 -112l101 75z" glyph-name="asterisk" horiz-adv-x="670" unicode="*"/>
<glyph d="M752 450v-194h-256v-256h-218v256h-256v194h256v256h218v-256h256z" glyph-name="plus" horiz-adv-x="774" unicode="+"/>
<glyph d="M494 341v-218q-3 -176 -83 -251q-88 -83 -319 -93q-34 -1 -70 -1v118q119 -2 171 64q17 22 17 40h-188v341h472z" glyph-name="comma" horiz-adv-x="516" unicode=","/>
<glyph d="M514 169h-492v226h492v-226z" glyph-name="hyphen" horiz-adv-x="536" unicode="-"/>
<glyph d="M22 0v341h472v-341h-472z" glyph-name="period" horiz-adv-x="516" unicode="."/>
<glyph d="M434 714h314l-426 -714h-314z" glyph-name="slash" horiz-adv-x="756" unicode="/"/>
<glyph d="M1273 353q0 -205 -143 -295q-147 -93 -488 -93q-380 0 -521 116q-110 91 -110 272q2 198 131 287q144 98 500 100q368 -2 510 -107q119 -90 121 -280zM783 353q0 87 -130 91h-11q-137 -5 -141 -91q0 -87 130 -91h11q137 5 141 91z" glyph-name="zero" horiz-adv-x="1284" unicode="0"/>
<glyph d="M793 706v-706h-467v283h-310v269h82q248 1 305 154h390z" glyph-name="one" horiz-adv-x="813" unicode="1"/>
<glyph d="M497 220h735v-220h-1224v37q0 133 57 210q59 78 166 118q111 41 291 71l135 22q75 12 82 31q1 5 1 9q-8 25 -85 27q-85 -1 -105 -46h-514q18 125 124 184q137 75 488 77q360 -2 486 -57q106 -47 113 -152q1 -6 1 -10q-1 -87 -40 -136q-52 -64 -193 -92q-55 -11 -133 -20 l-337 -38q-39 -5 -48 -15z" glyph-name="two" horiz-adv-x="1258" unicode="2"/>
<glyph d="M1274 197q-3 -105 -81 -154q-103 -65 -420 -76q-62 -2 -134 -2q-257 0 -390 27q-132 26 -184 82q-50 59 -55 159h512q16 -46 119 -46q111 5 117 40q0 36 -91 40h-26h-133v175h133q112 1 113 38q-2 38 -113 38q-103 0 -117 -42h-475q7 122 80 177q93 70 362 83q67 3 148 4 q383 -1 508 -67q88 -48 91 -142q-1 -70 -41 -106q-42 -36 -98 -50v-10q81 -10 127 -45q48 -36 48 -123z" glyph-name="three" horiz-adv-x="1285" unicode="3"/>
<glyph d="M625 44h-615v292l430 370h650v-433h108v-229h-108v-44h-465v44zM625 273v173h-10l-189 -163v-10h199z" glyph-name="four" horiz-adv-x="1206" unicode="4"/>
<glyph d="M1182 706v-201h-705l-6 -74h10q100 40 300 40q305 0 400 -98q54 -58 54 -155q-3 -115 -80 -168q-102 -71 -411 -82q-58 -3 -126 -3q-244 0 -374 27q-130 26 -181 81q-49 56 -54 154h502q19 -41 107 -41q108 1 109 45q-2 45 -109 45q-64 0 -107 -15h-483l42 445h1112z" glyph-name="five" horiz-adv-x="1246" unicode="5"/>
<glyph d="M1264 231q-1 -132 -116 -193q-138 -71 -487 -73q-242 0 -384 32q-175 41 -232 166q-34 74 -34 187q3 193 108 280q112 91 393 106q60 4 129 4q239 0 373 -34q135 -35 191 -90q56 -57 64 -131h-508q-18 29 -106 33q-12 1 -23 1q-130 0 -145 -76q-1 -5 -1 -9h10 q82 24 237 24q310 -2 420 -51q94 -42 108 -141q2 -17 3 -35zM498 227q2 -41 132 -41q125 1 126 41q-2 41 -126 41q-131 -1 -132 -41z" glyph-name="six" horiz-adv-x="1278" unicode="6"/>
<glyph d="M12 706h1184v-146q0 -94 -39 -159q-38 -63 -122 -130q-136 -106 -177 -176q-28 -47 -31 -95h-631q7 139 155 259q127 102 325 161v10h-664v276z" glyph-name="seven" horiz-adv-x="1208" unicode="7"/>
<glyph d="M1256 531q-2 -123 -154 -155v-10q82 -11 127 -46q48 -36 48 -123q0 -85 -51 -135q-51 -49 -188 -73t-394 -24q-259 0 -395 24t-187 73q-51 50 -51 135q1 86 47 123q48 35 128 46v10q-153 33 -154 155q3 99 91 144q115 60 466 65h55q380 -2 506 -58q96 -42 105 -135 q1 -8 1 -16zM531 485q2 -38 113 -38q112 1 113 38q-2 38 -113 38q-112 -1 -113 -38zM761 232q0 36 -91 40h-26q-111 -5 -117 -40q0 -36 91 -40h26q111 5 117 40z" glyph-name="eight" horiz-adv-x="1288" unicode="8"/>
<glyph d="M14 474q1 132 116 193q138 71 487 73q243 0 383 -32q176 -41 233 -166q34 -74 34 -187q-3 -194 -109 -280q-113 -93 -396 -107q-58 -3 -125 -3q-239 0 -373 34q-138 35 -192 89q-56 56 -63 132h508q18 -29 106 -33q12 -1 23 -1q130 0 145 76q1 5 1 9h-10 q-82 -24 -237 -24q-310 2 -420 51q-94 42 -108 141q-2 17 -3 35zM780 478q-2 41 -132 41q-125 -1 -126 -41q2 -41 126 -41q131 1 132 41z" glyph-name="nine" horiz-adv-x="1278" unicode="9"/>
<glyph d="M22 290v256h390v-256h-390zM22 0v256h390v-256h-390z" glyph-name="colon" horiz-adv-x="434" unicode=":"/>
<glyph d="M22 290v256h390v-256h-390zM412 256v-133q0 -206 -120 -281q-92 -57 -270 -56v110q98 -2 139 60q15 23 15 44h-154v256h390z" glyph-name="semicolon" horiz-adv-x="434" unicode=";"/>
<glyph d="M22 428l730 285v-207l-417 -149v-8l417 -148v-208l-730 284v151z" glyph-name="less" horiz-adv-x="774" unicode="&lt;"/>
<glyph d="M750 552v-194h-728v194h728zM750 294v-194h-728v194h728z" glyph-name="equal" horiz-adv-x="772" unicode="="/>
<glyph d="M752 428v-151l-730 -284v208l417 148v8l-417 149v207z" glyph-name="greater" horiz-adv-x="774" unicode="&gt;"/>
<glyph d="M503 470h-485q14 112 86 168q73 57 190 75q119 18 313 18q203 0 324 -15q211 -26 246 -133q7 -24 7 -51q0 -81 -41 -117q-34 -28 -120 -55l-111 -34q-82 -27 -90 -49l-2 -6h-462v8q1 56 44 94q45 37 159 66l72 18q63 17 64 35q-2 26 -84 26q-88 -1 -110 -48zM358 0v237 h462v-237h-462z" glyph-name="question" horiz-adv-x="1202" unicode="?"/>
<glyph d="M595 482h162l-53 -263q0 -3 -1 -8q-1 -4 -1 -5q0 -27 27 -27q58 1 104 36q47 39 47 150q0 137 -119 211q-93 57 -228 57q-145 2 -251 -100q-103 -100 -113 -244q-1 -18 -1 -35q0 -177 120 -264q87 -62 224 -62q131 0 231 58l26 16h157q-51 -97 -185 -154 q-110 -46 -233 -46q-234 -2 -373 136q-121 120 -126 300v20q-4 183 120 323q117 131 293 166q57 12 115 11q200 2 345 -96q130 -88 152 -216q5 -26 4 -51q1 -213 -157 -292q-77 -38 -175 -38q-113 0 -133 51q-1 4 -2 6h-8q-45 -54 -125 -57h-11q-122 0 -155 100 q-11 32 -11 71q0 117 68 191q5 6 10 11q55 53 133 53q88 -1 105 -59h8zM454 343q-25 -36 -29 -96q-1 -8 -1 -13q2 -53 52 -54q35 1 60 34q24 34 29 96v12q-2 53 -52 54q-37 -1 -59 -33z" glyph-name="at" horiz-adv-x="1047" unicode="@"/>
<glyph d="M912 0l-25 48h-364l-25 -48h-504l389 714h644l389 -714h-504zM709 402h-8q-30 -64 -81 -164h170q-51 101 -81 164z" glyph-name="A" horiz-adv-x="1410" unicode="A"/>
<glyph d="M1260 213q-1 -105 -65 -159q-65 -54 -222 -54h-959v714h963q201 0 241 -108q12 -32 12 -73q0 -110 -108 -136q-9 -2 -17 -3v-12q154 -26 155 -169zM731 470q-2 38 -50 39h-197v-78h197q49 2 50 39zM744 233q-2 39 -51 40h-209v-80h209q50 2 51 40z" glyph-name="B" horiz-adv-x="1267" unicode="B"/>
<glyph d="M661 449q-103 0 -130 -58q-7 -16 -7 -34q0 -65 77 -85q27 -7 60 -7q90 0 125 52q8 12 11 24h555q-4 -194 -147 -281q-156 -94 -527 -94q-393 2 -543 110q-124 91 -126 281q2 197 135 287q153 102 534 104q412 0 562 -117q107 -85 110 -245h-556q-15 46 -88 59 q-21 4 -45 4z" glyph-name="C" horiz-adv-x="1361" unicode="C"/>
<glyph d="M1260 357q0 -212 -121 -292q-98 -65 -297 -65h-828v714h828q250 0 344 -106q74 -84 74 -251zM661 424h-177v-134h177q81 6 84 67q0 62 -70 67h-14z" glyph-name="D" horiz-adv-x="1269" unicode="D"/>
<glyph d="M484 508v-54h582v-168h-582v-54h622v-232h-1092v714h1089v-206h-619z" glyph-name="E" horiz-adv-x="1118" unicode="E"/>
<glyph d="M1113 430h-629v-60h592v-222h-592v-148h-470v714h1099v-284z" glyph-name="F" horiz-adv-x="1125" unicode="F"/>
<glyph d="M1349 383v-383h-287v77q-58 -54 -178 -82q-124 -29 -230 -29q-396 0 -540 126q-105 93 -105 267q0 207 158 298t513 91q447 0 589 -133q79 -75 79 -199h-553q-29 34 -127 35q-106 0 -135 -62q-9 -19 -9 -40q2 -99 174 -100q105 0 142 19q5 3 7 5h-129v110h631z" glyph-name="G" unicode="G"/>
<glyph d="M787 714h470v-714h-470v213h-303v-213h-470v714h470v-217h303v217z" glyph-name="H" horiz-adv-x="1271" unicode="H"/>
<glyph d="M484 0h-470v714h470v-714z" glyph-name="I" horiz-adv-x="498" unicode="I"/>
<glyph d="M1243 714v-357q-3 -194 -113 -281q-121 -98 -432 -109q-35 -1 -72 -1q-342 2 -480 92q-121 78 -135 255q-2 22 -2 44v59h470v-24q2 -102 147 -103q146 1 147 103v322h470z" glyph-name="J" horiz-adv-x="1257" unicode="J"/>
<glyph d="M919 438l421 -438h-601l-177 184l-78 -55v-129h-470v714h470v-189l252 189h572z" glyph-name="K" horiz-adv-x="1334" unicode="K"/>
<glyph d="M1124 0h-1110v714h470v-394h640v-320z" glyph-name="L" horiz-adv-x="1134" unicode="L"/>
<glyph d="M1526 714v-714h-470v356h-10l-135 -356h-311l-136 353h-10v-353h-440v714h667l69 -213h10l69 213h697z" glyph-name="M" horiz-adv-x="1540" unicode="M"/>
<glyph d="M818 714h440v-714h-537l-257 248h-10v-248h-440v714h540l254 -244h10v244z" glyph-name="N" horiz-adv-x="1272" unicode="N"/>
<glyph d="M1353 357q-3 -195 -132 -284q-152 -104 -540 -107q-391 2 -542 108q-128 91 -130 283q2 195 133 285q152 103 539 106q390 -2 541 -108q128 -90 131 -283zM838 357q0 75 -109 89q-23 3 -48 3q-139 0 -155 -75q-2 -8 -2 -17q0 -75 109 -89q23 -3 48 -3q139 0 155 75 q2 8 2 17z" glyph-name="O" unicode="O"/>
<glyph d="M1240 412q0 -169 -100 -235q-88 -57 -269 -57h-387v-120h-470v714h857q233 0 313 -98q56 -70 56 -204zM725 411q0 46 -51 51q-8 1 -16 1h-174v-104h174q63 8 67 52z" glyph-name="P" horiz-adv-x="1248" unicode="P"/>
<glyph d="M1016 -6l40 -62l-145 -57l-62 97q-77 -6 -168 -6q-391 2 -542 108q-128 91 -130 283q2 195 133 285q152 103 539 106q390 -2 541 -108q128 -90 131 -283q0 -207 -154 -298q-73 -43 -183 -65zM774 372l43 -68q21 22 21 53q0 75 -109 89q-23 3 -48 3q-139 0 -155 -75 q-2 -8 -2 -17q0 -73 104 -89q16 -2 34 -3l-32 50z" glyph-name="Q" unicode="Q"/>
<glyph d="M1104 225l175 -225h-542l-85 124h-168v-124h-470v714h905q185 -1 263 -66q78 -66 78 -198q0 -150 -121 -201q-17 -7 -35 -12v-12zM737 375q0 46 -51 51q-8 1 -16 1h-186v-104h186q63 8 67 52z" glyph-name="R" horiz-adv-x="1267" unicode="R"/>
<glyph d="M653 538q-102 0 -102 -33q0 -17 29 -23q18 -4 59 -6l346 -21q233 -15 304 -96q41 -48 41 -124q-1 -110 -65 -169q-65 -57 -204 -78q-137 -22 -395 -22q-245 0 -388 23q-190 31 -246 129q-27 47 -30 113h551q12 -51 110 -54h12q99 1 100 35q0 17 -23 23q-19 5 -65 8 l-325 24q-197 16 -270 67q-72 52 -75 159q1 98 68 154q97 80 369 96q90 5 208 5q224 0 363 -23q216 -35 262 -156q12 -34 14 -74h-539q-8 37 -87 42q-11 1 -22 1z" glyph-name="S" horiz-adv-x="1338" unicode="S"/>
<glyph d="M1208 714v-337h-364v-377h-470v377h-364v337h1198z" glyph-name="T" horiz-adv-x="1218" unicode="T"/>
<glyph d="M778 714h470v-357q-3 -194 -113 -281q-121 -98 -432 -109q-35 -1 -72 -1q-342 2 -480 92q-121 78 -135 255q-2 22 -2 44v357h470v-322q2 -102 147 -103q146 1 147 103v322z" glyph-name="U" horiz-adv-x="1262" unicode="U"/>
<glyph d="M763 714h555l-412 -714h-499l-413 714h553l47 -108q27 -62 54 -135h10q31 81 56 134z" glyph-name="V" horiz-adv-x="1312" unicode="V"/>
<glyph d="M1155 714h474l-226 -714h-506l-45 159q-25 94 -35 134h-10q-10 -42 -35 -134l-45 -159h-516l-217 714h474l31 -147l27 -138h10q8 35 34 137l39 148h405l39 -147q25 -97 34 -138h10l27 138z" glyph-name="W" horiz-adv-x="1623" unicode="W"/>
<glyph d="M1038 370l372 -370h-594l-112 120l-112 -120h-598l372 370l-327 344h571l94 -109l95 109h566z" glyph-name="X" horiz-adv-x="1404" unicode="X"/>
<glyph d="M1329 714l-433 -565v-149h-470v149l-433 565h564l104 -178l104 178h564z" glyph-name="Y" horiz-adv-x="1322" unicode="Y"/>
<glyph d="M1165 455l-386 -188h386v-267h-1155v259l386 188h-367v267h1136v-259z" glyph-name="Z" horiz-adv-x="1177" unicode="Z"/>
<glyph d="M406 498v-425h140v-245h-532v916h532v-246h-140z" glyph-name="bracketleft" horiz-adv-x="560" unicode="["/>
<glyph d="M322 714l426 -714h-314l-426 714h314z" glyph-name="backslash" horiz-adv-x="756" unicode="\"/>
<glyph d="M154 498h-140v246h532v-916h-532v245h140v425z" glyph-name="bracketright" horiz-adv-x="560" unicode="]"/>
<glyph d="M578 697l261 -344h-297l-112 155h-8l-111 -155h-297l261 344h303z" glyph-name="asciicircum" horiz-adv-x="853" unicode="^"/>
<glyph d="M1028 -105v-60h-1030v60h1030z" glyph-name="underscore" horiz-adv-x="1026" unicode="_"/>
<glyph d="M14 774h535l99 -200h-372z" glyph-name="grave" horiz-adv-x="662" unicode="`"/>
<glyph d="M1185 4v-4h-457q-4 11 -4 53v16q-43 -40 -137 -69q-95 -30 -222 -30q-161 0 -261 41q-97 42 -98 147q0 114 92 155q63 27 182 32l361 17q61 4 62 29q-2 26 -85 26q-79 0 -91 -36q-1 -2 -1 -4h-485q5 81 66 124q62 42 181 59q116 16 319 16q211 0 334 -14 q189 -20 228 -110q12 -29 12 -64v-304q0 -57 4 -80zM718 232v8q-16 -8 -48 -13l-128 -17q-57 -8 -58 -40q2 -31 64 -32q110 0 153 50q17 20 17 44z" glyph-name="a" horiz-adv-x="1193" unicode="a"/>
<glyph d="M766 562q315 0 393 -156q29 -59 29 -140q0 -205 -190 -266q-93 -30 -232 -30q-166 1 -289 75h-8v-45h-457v724h464v-233h8q115 71 282 71zM710 266q-2 55 -121 55q-126 -1 -127 -55q2 -55 127 -55q120 1 121 55z" glyph-name="b" horiz-adv-x="1196" unicode="b"/>
<glyph d="M708 256h505q-5 -134 -97 -197q-124 -83 -481 -89h-31q-372 2 -501 96q-93 69 -95 207q2 148 109 216q134 85 487 87q375 -2 506 -88q93 -63 103 -193h-504q-11 29 -77 36q-15 2 -30 2q-105 0 -115 -51q-1 -5 -1 -9q0 -49 83 -58q16 -2 33 -2q78 0 102 34q3 5 4 9z" glyph-name="c" horiz-adv-x="1221" unicode="c"/>
<glyph d="M712 491h8v233h464v-724h-457v45h-8q-124 -75 -289 -75q-315 0 -393 156q-29 59 -29 140q0 205 190 266q93 30 232 30q168 -1 282 -71zM734 266q-2 55 -127 55q-120 -1 -121 -55q2 -55 121 -55q126 1 127 55z" glyph-name="d" horiz-adv-x="1196" unicode="d"/>
<glyph d="M1214 195h-727q11 -58 114 -62h13q90 0 116 29h479q-6 -62 -51 -102q-45 -39 -173 -65q-126 -25 -371 -25q-378 2 -509 95q-95 69 -97 208q2 146 107 214q135 87 499 89q391 -2 520 -108q83 -69 85 -195q0 -50 -5 -78zM488 356h251q-16 56 -125 57q-112 -1 -126 -57z" glyph-name="e" horiz-adv-x="1227" unicode="e"/>
<glyph d="M570 562q0 -2 2 -16h159v-157h-159v-389h-464v389h-99v157h99v30q4 114 104 155q81 32 274 34q58 0 131 -6q66 -4 114 -13v-156q-60 4 -86 4q-68 0 -74 -24q-1 -4 -1 -8z" glyph-name="f" horiz-adv-x="740" unicode="f"/>
<glyph d="M732 546h457v-503q-1 -98 -37 -144q-38 -47 -160 -68q-121 -22 -390 -22q-251 0 -380 23q-127 23 -166 65q-40 43 -48 119h502q13 -43 105 -43q109 1 110 70v65h-8q-114 -62 -285 -62q-279 0 -370 97q-54 59 -54 161q0 157 136 216q100 42 288 42q170 0 292 -65h8v49z M739 303q-2 52 -129 52q-123 -1 -124 -52q2 -52 124 -52q128 1 129 52z" glyph-name="g" horiz-adv-x="1201" unicode="g"/>
<glyph d="M1114 338v-338h-464v169q0 69 -43 82q-15 4 -35 4q-75 0 -91 -55q-5 -19 -5 -43v-157h-464v724h464v-250h8q121 88 316 88q267 0 307 -158q7 -31 7 -66z" glyph-name="h" horiz-adv-x="1126" unicode="h"/>
<glyph d="M12 0v546h464v-546h-464zM12 574v150h464v-150h-464z" glyph-name="i" horiz-adv-x="488" unicode="i"/>
<glyph d="M12 115v431h464v-488q0 -125 -31 -175q-31 -52 -113 -66q-84 -15 -284 -15h-91v293h34q20 4 21 20zM12 574v150h464v-150h-464z" glyph-name="j" horiz-adv-x="488" unicode="j"/>
<glyph d="M866 334l344 -334h-569l-109 106l-56 -38v-68h-464v724h464v-315l182 137h517z" glyph-name="k" horiz-adv-x="1200" unicode="k"/>
<glyph d="M12 0v724h464v-724h-464z" glyph-name="l" horiz-adv-x="488" unicode="l"/>
<glyph d="M469 546v-72h8q115 82 272 87q15 1 30 1q191 -1 254 -88q61 40 135 64t185 24q244 0 296 -132q15 -40 15 -92v-338h-464v191q0 55 -40 62q-9 2 -19 2q-61 0 -69 -50q-2 -11 -2 -23v-182h-464v191q0 55 -40 62q-9 2 -19 2q-61 0 -69 -50q-2 -11 -2 -23v-182h-464v546h457z " glyph-name="m" horiz-adv-x="1676" unicode="m"/>
<glyph d="M469 546v-72h8q124 81 289 87q17 1 34 1q267 0 307 -158q7 -31 7 -66v-338h-464v169q0 69 -43 82q-15 4 -35 4q-75 0 -91 -55q-5 -19 -5 -43v-157h-464v546h457z" glyph-name="n" horiz-adv-x="1126" unicode="n"/>
<glyph d="M1190 273q-2 -147 -107 -216q-132 -85 -484 -87q-370 2 -497 96q-92 69 -94 207q2 148 108 216q133 85 483 87q371 -2 499 -98q90 -69 92 -205zM712 273q-2 56 -113 57q-112 -1 -113 -57q2 -56 113 -57q112 1 113 57z" glyph-name="o" horiz-adv-x="1198" unicode="o"/>
<glyph d="M484 41h-8v-217h-464v722h457v-59h8q124 75 289 75q315 0 393 -156q29 -59 29 -140q0 -205 -190 -266q-93 -30 -232 -30q-168 1 -282 71zM462 266q2 -55 127 -55q120 1 121 55q-2 55 -121 55q-126 -1 -127 -55z" glyph-name="p" horiz-adv-x="1196" unicode="p"/>
<glyph d="M430 -30q-315 0 -393 156q-29 59 -29 140q0 205 190 266q93 30 232 30q166 -1 289 -75h8v59h457v-722h-464v217h-8q-115 -71 -282 -71zM486 266q2 -55 121 -55q126 1 127 55q-2 55 -127 55q-120 -1 -121 -55z" glyph-name="q" horiz-adv-x="1196" unicode="q"/>
<glyph d="M12 546h457v-93h8q83 67 168 89q76 19 194 20q56 0 91 -5v-395q-85 13 -167 13q-124 0 -205 -31q-81 -33 -82 -122v-22h-464v546z" glyph-name="r" horiz-adv-x="939" unicode="r"/>
<glyph d="M595 427q-83 -2 -85 -25q0 -18 48 -24q16 -2 36 -3l379 -24q158 -11 212 -50q55 -40 57 -134q0 -85 -63 -129q-63 -41 -188 -55q-121 -13 -356 -13q-234 0 -358 13q-224 21 -264 129q-9 23 -10 50h534q10 -40 97 -43h17q82 0 89 21q1 4 1 7q0 14 -27 20q-18 4 -61 8 l-342 27q-174 15 -233 55q-56 39 -59 123q1 85 65 127q66 41 185 55q124 14 323 14q224 0 348 -13q240 -22 274 -140q5 -17 6 -34h-520q-10 38 -105 38z" glyph-name="s" horiz-adv-x="1249" unicode="s"/>
<glyph d="M732 301v-301q-30 -3 -102 -6q-71 -3 -139 -3q-221 2 -300 50q-69 42 -82 148q-2 23 -3 50v150h-97v157h97v139h464v-139h162v-157h-162v-55q0 -26 16 -31q13 -4 39 -4q46 0 107 2z" glyph-name="t" horiz-adv-x="743" unicode="t"/>
<glyph d="M657 0v72h-8q-124 -81 -289 -87q-17 -1 -34 -1q-267 0 -307 158q-7 31 -7 66v338h464v-169q0 -69 43 -82q15 -4 35 -4q75 0 91 55q5 19 5 43v157h464v-546h-457z" glyph-name="u" horiz-adv-x="1126" unicode="u"/>
<glyph d="M693 546h521l-361 -546h-496l-361 546h521l20 -37q25 -47 65 -130h8q38 82 64 131z" glyph-name="v" horiz-adv-x="1210" unicode="v"/>
<glyph d="M1185 546h502l-306 -546h-421l-48 106q-24 49 -56 132h-8q-30 -78 -55 -133l-47 -105h-448l-300 546h508l10 -24q26 -62 51 -135h8q20 55 53 134l11 25h413l11 -26q27 -59 55 -136h8q31 91 50 138z" glyph-name="w" horiz-adv-x="1685" unicode="w"/>
<glyph d="M962 284l313 -284h-560l-79 97l-79 -97h-561l313 284l-273 262h524l76 -89l75 89h526z" glyph-name="x" horiz-adv-x="1271" unicode="x"/>
<glyph d="M693 546h521l-299 -452q-82 -122 -142 -178q-63 -59 -141 -83q-79 -24 -206 -24h-347v286h151q51 0 61 13q1 2 2 3l3 5l-300 430h521l20 -37q25 -47 65 -130h8q38 82 64 131z" glyph-name="y" horiz-adv-x="1210" unicode="y"/>
<glyph d="M1060 0h-1050v194l313 142h-290v210h1027v-186l-315 -143h315v-217z" glyph-name="z" horiz-adv-x="1072" unicode="z"/>
<glyph d="M407 290v-8q81 -20 89 -103q1 -11 1 -22v-23q0 -49 48 -59q10 -2 20 -2h55v-245h-311q-201 1 -202 148v104q0 59 -36 72q-19 6 -61 6v256q63 0 81 18q16 19 16 60v104q2 147 202 148h311v-246h-55q-58 0 -67 -47q-1 -7 -1 -14v-22q0 -94 -74 -120q-8 -3 -16 -5z" glyph-name="braceleft" horiz-adv-x="634" unicode="{"/>
<glyph d="M466 796v-1021h-452v1021h452z" glyph-name="bar" horiz-adv-x="480" unicode="|"/>
<glyph d="M137 415v22q0 49 -48 59q-10 2 -20 2h-55v246h311q201 -1 202 -148v-104q0 -59 36 -72q19 -6 61 -6v-256q-63 0 -81 -18q-16 -19 -16 -60v-104q-2 -147 -202 -148h-311v245h55q58 0 67 47q1 7 1 14v23q0 94 74 120q8 3 16 5v8q-81 20 -89 103q-1 11 -1 22z" glyph-name="braceright" horiz-adv-x="634" unicode="}"/>
<glyph d="M750 474v-187q-74 -53 -127 -63q-22 -4 -45 -4q-73 0 -153 29l-78 28q-76 28 -153 28q-72 0 -143 -47q-13 -9 -29 -20v187q74 53 127 63q22 4 45 4q73 0 153 -29l78 -28q76 -28 153 -28q72 0 143 47q13 9 29 20z" glyph-name="asciitilde" horiz-adv-x="772" unicode="~"/>
<glyph glyph-name="uni00A0" horiz-adv-x="111" unicode=" "/>
<glyph d="M55 546h462v-237h-462v237zM485 275l64 -303v-140h-525v140l63 303h398z" glyph-name="exclamdown" horiz-adv-x="572" unicode="¡"/>
<glyph d="M708 256h505q-5 -133 -98 -196q-118 -80 -437 -89v-114h-148v114q-337 10 -448 112q-72 67 -74 190q2 148 108 216q121 77 414 86v102h148v-102q334 -10 449 -99q77 -62 86 -181h-504q-11 29 -77 36q-15 2 -30 2q-105 0 -115 -51q-1 -5 -1 -9q0 -49 83 -58q16 -2 33 -2 q78 0 102 34q3 5 4 9z" glyph-name="cent" horiz-adv-x="1221" unicode="¢"/>
<glyph d="M846 305q88 0 188 21q103 23 150 56v-335q-9 -20 -123 -42q-89 -17 -154 -16q-195 0 -355 62q-111 -62 -266 -62q-163 1 -220 41q-51 38 -54 120q1 90 54 125q57 35 128 35q38 0 86 -14q-14 19 -55 48h-168v71h86q-31 38 -31 84q1 87 56 134q77 62 282 74q70 4 165 4 q193 0 308 -19q256 -40 264 -240h-479q-14 35 -65 38q-54 -1 -55 -33q1 -18 26 -42h172v-71h-114q25 -14 33 -29q75 -10 141 -10zM303 171v4q-32 15 -61 15q-48 -2 -49 -40q0 -34 41 -40q7 -1 13 -1q55 2 56 62z" glyph-name="sterling" horiz-adv-x="1199" unicode="£"/>
<glyph d="M591 230l76 -75l-125 -110l-73 71q-65 -33 -139 -33q-75 0 -139 33l-73 -71l-127 110l78 75q-36 66 -36 138t36 138l-76 75l125 110l73 -71q65 33 139 33q75 0 139 -33l73 71l127 -110l-78 -75q37 -67 37 -138q-1 -72 -37 -138zM422 368q0 61 -49 85q-20 9 -43 9 q-57 0 -81 -47q-11 -22 -11 -47q0 -61 49 -85q20 -9 43 -9q57 0 81 47q11 22 11 47z" glyph-name="currency" horiz-adv-x="660" unicode="¤"/>
<glyph d="M1303 700l-216 -281h111v-120h-203l-30 -40h233v-120h-320v-139h-460v139h-320v120h233l-30 40h-203v120h111l-216 281h553l102 -175l102 175h553z" glyph-name="yen" horiz-adv-x="1296" unicode="¥"/>
<glyph d="M466 796v-435h-452v435h452zM466 210v-435h-452v435h452z" glyph-name="brokenbar" horiz-adv-x="480" unicode="¦"/>
<glyph d="M1013 90q44 -34 44 -100q-1 -97 -52 -146q-69 -69 -261 -83q-73 -6 -176 -6q-172 0 -275 21q-162 32 -199 147q-10 34 -12 75h410q5 -52 50 -61q14 -3 32 -3q65 6 70 47q0 24 -32 32q-17 5 -53 9l-291 32q-160 18 -215 65q-49 43 -51 124q0 111 111 157q20 8 42 14 q-39 37 -41 95q0 134 135 184q104 38 315 38q265 -1 363 -63q81 -53 88 -163h-393q-6 46 -64 47q-48 0 -53 -27q-1 -3 -1 -5q0 -18 22 -25q15 -4 60 -9l282 -33q184 -21 233 -103q22 -38 22 -91q0 -106 -69 -149q-18 -12 -41 -20zM408 245l346 -41l40 -5q8 15 8 27 q0 22 -28 30q-17 4 -54 9l-349 42l-40 5q-8 -15 -8 -27q0 -22 31 -31q18 -4 54 -9z" glyph-name="section" horiz-adv-x="1131" unicode="§"/>
<glyph d="M14 574v150h389v-150h-389zM437 574v150h389v-150h-389z" glyph-name="dieresis" horiz-adv-x="840" unicode="¨"/>
<glyph d="M9 480q-2 102 75 178q75 72 173 71q109 0 183 -80q66 -73 66 -169q2 -101 -75 -177q-75 -73 -174 -71q-101 -2 -176 74q-74 76 -72 174zM453 480q0 89 -69 149q-56 47 -127 47q-89 0 -147 -69q-47 -56 -47 -127q0 -90 69 -149q55 -45 125 -45q90 0 149 68q47 55 47 126z M258 356q-96 0 -117 82q-5 20 -5 43q0 101 84 121q18 4 38 4q86 0 110 -61q6 -15 7 -31h-76q-3 31 -41 32q-45 -2 -46 -65q1 -64 46 -65q41 0 43 37v2h76q-5 -78 -81 -95q-18 -4 -38 -4z" glyph-name="copyright" horiz-adv-x="515" unicode="©"/>
<glyph d="M669 384v-3h-261q-1 8 -1 31v9q-41 -44 -147 -55q-25 -2 -50 -2q-175 0 -195 83q-3 13 -3 26q0 74 67 96q33 10 84 12l199 9q32 2 33 17q-2 15 -37 15q-40 -1 -51 -23h-277q6 67 73 91q65 23 244 24q118 0 188 -8q108 -13 128 -67q5 -16 5 -34v-175q0 -36 1 -46zM403 515 v5q-12 -6 -25 -8l-64 -9q-28 -6 -29 -23q2 -18 31 -19q83 5 87 54zM19 147h658v-147h-658v147z" glyph-name="ordfeminine" horiz-adv-x="689" unicode="ª"/>
<glyph d="M22 460l258 92v-241l-115 -34v-8l115 -34v-241l-258 92v374zM302 460l258 92v-241l-115 -34v-8l115 -34v-241l-258 92v374z" glyph-name="guillemotleft" horiz-adv-x="582" unicode="«"/>
<glyph d="M750 527v-333h-207v139h-521v194h728z" glyph-name="logicalnot" horiz-adv-x="772" unicode="¬"/>
<glyph d="M506 480q2 -101 -75 -177q-75 -73 -174 -71q-101 -2 -176 74q-74 76 -72 174q-2 102 75 178q75 72 173 71q109 0 183 -80q66 -73 66 -169zM453 480q0 89 -69 149q-56 47 -127 47q-89 0 -147 -69q-47 -56 -47 -127q0 -90 69 -149q55 -45 125 -45q90 0 149 68q47 55 47 126 zM326 446l51 -84h-85l-40 75h-29v-75h-74v238h127q80 0 91 -62q2 -10 2 -19q-1 -54 -43 -73zM223 545v-53h39q30 2 31 27q-2 25 -31 26h-39z" glyph-name="registered" horiz-adv-x="515" unicode="®"/>
<glyph d="M633 592h-619v157h619v-157z" glyph-name="overscore" horiz-adv-x="647" unicode="¯"/>
<glyph d="M16 515q0 107 79 163q53 37 123 37q105 0 163 -76q39 -52 39 -124q0 -107 -79 -163q-53 -37 -123 -37q-105 0 -163 76q-39 52 -39 124zM300 515q0 60 -46 81q-17 7 -36 7q-57 0 -76 -51q-6 -18 -6 -37q0 -60 46 -81q17 -7 36 -7q57 0 76 51q6 18 6 37z" glyph-name="degree" horiz-adv-x="436" unicode="°"/>
<glyph d="M752 539v-171h-260v-167h-209v167h-261v171h261v167h209v-167h260zM22 147h730v-147h-730v147z" glyph-name="plusminus" horiz-adv-x="774" unicode="±"/>
<glyph d="M299 429h436v-131h-727v22q4 113 72 163q60 44 227 73q4 1 6 1l80 13q47 12 50 24q-2 16 -51 16q-48 -1 -62 -27h-305q10 89 105 124q85 31 258 31q247 0 316 -49q40 -29 40 -81q-3 -78 -55 -109q-44 -25 -162 -39l-200 -22q-23 -3 -28 -9z" glyph-name="uni00B2" horiz-adv-x="754" unicode="²"/>
<glyph d="M761 415q-2 -70 -64 -100q-78 -36 -313 -37q-235 2 -306 39q-54 27 -65 95q-2 12 -3 25h304q12 -28 71 -28q68 1 69 24q-2 24 -69 24h-79v104h79q66 1 67 22q-2 23 -67 23q-61 -1 -69 -25h-282q4 82 62 115q73 40 288 42q259 0 324 -56q31 -27 31 -69q0 -69 -70 -87 q-7 -2 -12 -3v-10q93 -7 103 -78q1 -10 1 -20z" glyph-name="uni00B3" horiz-adv-x="772" unicode="³"/>
<glyph d="M648 774l-262 -200h-372l99 200h535z" glyph-name="acute" horiz-adv-x="662" unicode="´"/>
<glyph d="M972 712v-896h-257v710h-61v-710h-257v308h-2q-370 0 -385 269q-1 13 -1 25q0 270 326 292q31 2 63 2h574z" glyph-name="paragraph" horiz-adv-x="986" unicode="¶"/>
<glyph d="M18 330q0 138 132 182q54 18 125 18q181 0 238 -107q21 -41 21 -93q0 -132 -124 -179q-58 -21 -135 -21q-187 0 -240 114q-17 38 -17 86z" glyph-name="middot" horiz-adv-x="552" unicode="·"/>
<glyph d="M387 12l-99 -69q17 5 69 5q141 0 181 -38q26 -25 26 -71q-3 -63 -52 -87q-63 -31 -270 -32q-138 0 -228 23v96h10q64 -18 207 -18q77 1 79 16q0 13 -49 15h-30q-14 0 -67 -2q-40 -3 -62 -6h-10v62l140 106h155z" glyph-name="cedilla" horiz-adv-x="578" unicode="¸"/>
<glyph d="M477 717v-419h-277v168h-184v160h49q146 1 181 91h231z" glyph-name="uni00B9" horiz-adv-x="497" unicode="¹"/>
<glyph d="M671 539q0 -99 -81 -138q-77 -37 -248 -37q-233 0 -297 72q-33 39 -33 103q0 99 82 138q78 37 248 37q232 0 296 -71q33 -39 33 -104zM398 539q0 29 -40 32q-8 1 -16 1q-53 -5 -56 -33q0 -29 40 -32q8 -1 16 -1q53 5 56 33zM12 147h659v-147h-659v147z" glyph-name="ordmasculine" horiz-adv-x="683" unicode="º"/>
<glyph d="M280 460v-374l-258 -92v241l115 34v8l-115 34v241zM560 460v-374l-258 -92v241l115 34v8l-115 34v241z" glyph-name="guillemotright" horiz-adv-x="582" unicode="»"/>
<glyph d="M844 546v-237h-462v237h462zM699 76h485q-14 -112 -86 -168q-73 -57 -191 -75q-119 -18 -312 -18q-203 0 -324 15q-211 26 -246 133q-7 24 -7 51q0 81 41 117q34 28 120 55l111 34q82 27 90 49l2 6h462v-8q-1 -58 -45 -95q-43 -36 -158 -65l-72 -18q-63 -17 -64 -35 q2 -26 84 -26q88 1 110 48z" glyph-name="questiondown" horiz-adv-x="1202" unicode="¿"/>
<glyph d="M912 0l-25 48h-364l-25 -48h-504l389 714h644l389 -714h-504zM709 402h-8q-30 -64 -81 -164h170q-51 101 -81 164zM257 903h534l100 -159h-372z" glyph-name="Agrave" horiz-adv-x="1410" unicode="À"/>
<glyph d="M912 0l-25 48h-364l-25 -48h-504l389 714h644l389 -714h-504zM709 402h-8q-30 -64 -81 -164h170q-51 101 -81 164zM1153 903l-262 -159h-372l99 159h535z" glyph-name="Aacute" horiz-adv-x="1410" unicode="Á"/>
<glyph d="M912 0l-25 48h-364l-25 -48h-504l389 714h644l389 -714h-504zM709 402h-8q-30 -64 -81 -164h170q-51 101 -81 164zM747 744l-38 65h-8l-39 -65h-397l134 159h612l134 -159h-398z" glyph-name="Acircumflex" horiz-adv-x="1410" unicode="Â"/>
<glyph d="M912 0l-25 48h-364l-25 -48h-504l389 714h644l389 -714h-504zM709 402h-8q-30 -64 -81 -164h170q-51 101 -81 164zM723 753q-71 13 -106 13q-26 -1 -31 -20h-253q0 115 77 173q51 38 119 38q60 0 157 -18q71 -13 106 -13q26 1 31 20h253q0 -115 -77 -173 q-51 -38 -119 -38q-60 0 -157 18z" glyph-name="Atilde" horiz-adv-x="1410" unicode="Ã"/>
<glyph d="M912 0l-25 48h-364l-25 -48h-504l389 714h644l389 -714h-504zM709 402h-8q-30 -64 -81 -164h170q-51 101 -81 164zM299 744v158h389v-158h-389zM722 744v158h389v-158h-389z" glyph-name="Adieresis" horiz-adv-x="1410" unicode="Ä"/>
<glyph d="M912 0l-25 48h-364l-25 -48h-504l389 714h644l389 -714h-504zM709 402h-8q-30 -64 -81 -164h170q-51 101 -81 164zM459 893q0 107 122 144q53 15 123 15q182 0 231 -94q15 -30 15 -65q0 -105 -119 -141q-54 -17 -127 -17q-182 0 -230 94q-15 29 -15 64zM761 893 q-2 36 -57 37q-56 -1 -57 -37q2 -36 57 -37q56 1 57 37z" glyph-name="Aring" horiz-adv-x="1410" unicode="Å"/>
<glyph d="M1378 231h552v-231h-1012v48h-339l-35 -48h-550l550 714h1383v-227h-549v-54h512v-148h-512v-54zM726 251h192v236h-20z" glyph-name="AE" horiz-adv-x="1942" unicode="Æ"/>
<glyph d="M755 -33l-34 -24q17 5 69 5q141 0 181 -38q26 -25 26 -71q-3 -63 -52 -87q-63 -31 -270 -32q-138 0 -228 23v96h10q65 -18 207 -18q77 1 79 16q0 13 -49 15h-30q-14 0 -67 -2q-40 -3 -62 -6h-10v62l81 61q-373 10 -505 139q-92 89 -92 251q2 197 135 287q153 102 534 104 q412 0 562 -117q107 -85 110 -245h-556q-15 46 -88 59q-21 4 -45 4q-103 0 -130 -58q-7 -16 -7 -34q0 -65 77 -85q27 -7 60 -7q90 0 125 52q8 12 11 24h555q-5 -195 -151 -282q-141 -83 -446 -92z" glyph-name="Ccedilla" horiz-adv-x="1361" unicode="Ç"/>
<glyph d="M484 508v-54h582v-168h-582v-54h622v-232h-1092v714h1089v-206h-619zM111 903h534l100 -159h-372z" glyph-name="Egrave" horiz-adv-x="1118" unicode="È"/>
<glyph d="M484 508v-54h582v-168h-582v-54h622v-232h-1092v714h1089v-206h-619zM1007 903l-262 -159h-372l99 159h535z" glyph-name="Eacute" horiz-adv-x="1118" unicode="É"/>
<glyph d="M484 508v-54h582v-168h-582v-54h622v-232h-1092v714h1089v-206h-619zM601 744l-38 65h-8l-39 -65h-397l134 159h612l134 -159h-398z" glyph-name="Ecircumflex" horiz-adv-x="1118" unicode="Ê"/>
<glyph d="M484 508v-54h582v-168h-582v-54h622v-232h-1092v714h1089v-206h-619zM153 744v158h389v-158h-389zM576 744v158h389v-158h-389z" glyph-name="Edieresis" horiz-adv-x="1118" unicode="Ë"/>
<glyph d="M484 0h-470v714h470v-714zM-199 903h534l100 -159h-372z" glyph-name="Igrave" horiz-adv-x="498" unicode="Ì"/>
<glyph d="M484 0h-470v714h470v-714zM697 903l-262 -159h-372l99 159h535z" glyph-name="Iacute" horiz-adv-x="498" unicode="Í"/>
<glyph d="M484 0h-470v714h470v-714zM291 744l-38 65h-8l-39 -65h-397l134 159h612l134 -159h-398z" glyph-name="Icircumflex" horiz-adv-x="498" unicode="Î"/>
<glyph d="M484 0h-470v714h470v-714zM-157 744v158h389v-158h-389zM266 744v158h389v-158h-389z" glyph-name="Idieresis" horiz-adv-x="498" unicode="Ï"/>
<glyph d="M1260 357q0 -212 -121 -292q-98 -65 -297 -65h-828v305h-16v104h16v305h828q250 0 344 -106q74 -84 74 -251zM745 357q0 62 -70 67h-14h-177v-30h125v-74h-125v-30h177q81 6 84 67z" glyph-name="Eth" horiz-adv-x="1269" unicode="Ð"/>
<glyph d="M818 714h440v-714h-537l-257 248h-10v-248h-440v714h540l254 -244h10v244zM654 753q-71 13 -106 13q-26 -1 -31 -20h-253q0 115 77 173q51 38 119 38q60 0 157 -18q71 -13 106 -13q26 1 31 20h253q0 -115 -77 -173q-51 -38 -119 -38q-60 0 -157 18z" glyph-name="Ntilde" horiz-adv-x="1272" unicode="Ñ"/>
<glyph d="M1353 357q-3 -195 -132 -284q-152 -104 -540 -107q-391 2 -542 108q-128 91 -130 283q2 195 133 285q152 103 539 106q390 -2 541 -108q128 -90 131 -283zM838 357q0 75 -109 89q-23 3 -48 3q-139 0 -155 -75q-2 -8 -2 -17q0 -75 109 -89q23 -3 48 -3q139 0 155 75 q2 8 2 17zM233 932h534l100 -159h-372z" glyph-name="Ograve" unicode="Ò"/>
<glyph d="M1353 357q-3 -195 -132 -284q-152 -104 -540 -107q-391 2 -542 108q-128 91 -130 283q2 195 133 285q152 103 539 106q390 -2 541 -108q128 -90 131 -283zM838 357q0 75 -109 89q-23 3 -48 3q-139 0 -155 -75q-2 -8 -2 -17q0 -75 109 -89q23 -3 48 -3q139 0 155 75 q2 8 2 17zM1129 932l-262 -159h-372l99 159h535z" glyph-name="Oacute" unicode="Ó"/>
<glyph d="M1353 357q-3 -195 -132 -284q-152 -104 -540 -107q-391 2 -542 108q-128 91 -130 283q2 195 133 285q152 103 539 106q390 -2 541 -108q128 -90 131 -283zM838 357q0 75 -109 89q-23 3 -48 3q-139 0 -155 -75q-2 -8 -2 -17q0 -75 109 -89q23 -3 48 -3q139 0 155 75 q2 8 2 17zM723 773l-38 65h-8l-39 -65h-397l134 159h612l134 -159h-398z" glyph-name="Ocircumflex" unicode="Ô"/>
<glyph d="M1353 357q-3 -195 -132 -284q-152 -104 -540 -107q-391 2 -542 108q-128 91 -130 283q2 195 133 285q152 103 539 106q390 -2 541 -108q128 -90 131 -283zM838 357q0 75 -109 89q-23 3 -48 3q-139 0 -155 -75q-2 -8 -2 -17q0 -75 109 -89q23 -3 48 -3q139 0 155 75 q2 8 2 17zM699 779q-71 13 -106 13q-26 -1 -31 -20h-253q0 115 77 173q51 38 119 38q60 0 157 -18q71 -13 106 -13q26 1 31 20h253q0 -115 -77 -173q-51 -38 -119 -38q-60 0 -157 18z" glyph-name="Otilde" unicode="Õ"/>
<glyph d="M1353 357q-3 -195 -132 -284q-152 -104 -540 -107q-391 2 -542 108q-128 91 -130 283q2 195 133 285q152 103 539 106q390 -2 541 -108q128 -90 131 -283zM838 357q0 75 -109 89q-23 3 -48 3q-139 0 -155 -75q-2 -8 -2 -17q0 -75 109 -89q23 -3 48 -3q139 0 155 75 q2 8 2 17zM275 778v154h389v-154h-389zM698 778v154h389v-154h-389z" glyph-name="Odieresis" unicode="Ö"/>
<glyph d="M676 543l-190 -190l190 -190l-137 -137l-190 190l-190 -190l-137 137l190 190l-190 190l137 137l190 -190l190 190z" glyph-name="multiply" horiz-adv-x="698" unicode="×"/>
<glyph d="M1353 357q-3 -195 -132 -284q-152 -104 -540 -107q-280 0 -433 54l-105 -64l-118 79l92 56q-108 94 -108 266q2 195 133 285q152 103 539 106q280 0 433 -54l105 64l118 -79l-92 -56q108 -94 108 -266zM524 357q0 -21 9 -39l219 132q-31 9 -71 9q-112 0 -146 -60 q-11 -19 -11 -42zM838 357q0 21 -9 39l-219 -132q31 -9 71 -9q112 0 146 60q11 19 11 42z" glyph-name="Oslash" unicode="Ø"/>
<glyph d="M778 714h470v-357q-3 -194 -113 -281q-121 -98 -432 -109q-35 -1 -72 -1q-342 2 -480 92q-121 78 -135 255q-2 22 -2 44v357h470v-322q2 -102 147 -103q146 1 147 103v322zM183 903h534l100 -159h-372z" glyph-name="Ugrave" horiz-adv-x="1262" unicode="Ù"/>
<glyph d="M778 714h470v-357q-3 -194 -113 -281q-121 -98 -432 -109q-35 -1 -72 -1q-342 2 -480 92q-121 78 -135 255q-2 22 -2 44v357h470v-322q2 -102 147 -103q146 1 147 103v322zM1079 903l-262 -159h-372l99 159h535z" glyph-name="Uacute" horiz-adv-x="1262" unicode="Ú"/>
<glyph d="M778 714h470v-357q-3 -194 -113 -281q-121 -98 -432 -109q-35 -1 -72 -1q-342 2 -480 92q-121 78 -135 255q-2 22 -2 44v357h470v-322q2 -102 147 -103q146 1 147 103v322zM673 744l-38 65h-8l-39 -65h-397l134 159h612l134 -159h-398z" glyph-name="Ucircumflex" horiz-adv-x="1262" unicode="Û"/>
<glyph d="M778 714h470v-357q-3 -194 -113 -281q-121 -98 -432 -109q-35 -1 -72 -1q-342 2 -480 92q-121 78 -135 255q-2 22 -2 44v357h470v-322q2 -102 147 -103q146 1 147 103v322zM225 744v158h389v-158h-389zM648 744v158h389v-158h-389z" glyph-name="Udieresis" horiz-adv-x="1262" unicode="Ü"/>
<glyph d="M1329 714l-433 -565v-149h-470v149l-433 565h564l104 -178l104 178h564zM1109 903l-262 -159h-372l99 159h535z" glyph-name="Yacute" horiz-adv-x="1322" unicode="Ý"/>
<glyph d="M1240 357q0 -169 -100 -235q-88 -57 -269 -57h-387v-65h-470v714h470v-55h387q233 0 313 -98q56 -70 56 -204zM725 356q0 46 -51 51q-8 1 -16 1h-174v-104h174q63 8 67 52z" glyph-name="Thorn" horiz-adv-x="1248" unicode="Þ"/>
<glyph d="M1132 424v-12q172 -14 180 -168v-15q-1 -110 -58 -162t-174 -67q-113 -16 -342 -16q-54 0 -124 6q-64 4 -86 10v252q2 0 9 -2q29 -4 54 -9q55 -9 129 -9q97 0 110 16q5 7 5 17q-2 19 -22 24q-30 8 -158 9h-127v137h118q100 0 113 16q4 6 4 13q0 24 -51 30q-30 4 -85 4 q-104 0 -132 -27q-21 -22 -21 -68v-403h-462v435q1 138 63 203q66 65 187 83q122 19 365 19q210 0 345 -14q244 -24 267 -139q2 -14 2 -27q0 -81 -50 -112q-21 -12 -59 -24z" glyph-name="germandbls" horiz-adv-x="1320" unicode="ß"/>
<glyph d="M1185 4v-4h-457q-4 11 -4 53v16q-43 -40 -137 -69q-95 -30 -222 -30q-161 0 -261 41q-97 42 -98 147q0 114 92 155q63 27 182 32l361 17q61 4 62 29q-2 26 -85 26q-79 0 -91 -36q-1 -2 -1 -4h-485q5 81 66 124q62 42 181 59q116 16 319 16q211 0 334 -14 q189 -20 228 -110q12 -29 12 -64v-304q0 -57 4 -80zM718 232v8q-16 -8 -48 -13l-128 -17q-57 -8 -58 -40q2 -31 64 -32q110 0 153 50q17 20 17 44zM159 774h535l99 -170h-372z" glyph-name="agrave" horiz-adv-x="1193" unicode="à"/>
<glyph d="M1185 4v-4h-457q-4 11 -4 53v16q-43 -40 -137 -69q-95 -30 -222 -30q-161 0 -261 41q-97 42 -98 147q0 114 92 155q63 27 182 32l361 17q61 4 62 29q-2 26 -85 26q-79 0 -91 -36q-1 -2 -1 -4h-485q5 81 66 124q62 42 181 59q116 16 319 16q211 0 334 -14 q189 -20 228 -110q12 -29 12 -64v-304q0 -57 4 -80zM718 232v8q-16 -8 -48 -13l-128 -17q-57 -8 -58 -40q2 -31 64 -32q110 0 153 50q17 20 17 44zM1055 774l-262 -170h-372l99 170h535z" glyph-name="aacute" horiz-adv-x="1193" unicode="á"/>
<glyph d="M1185 4v-4h-457q-4 11 -4 53v16q-43 -40 -137 -69q-95 -30 -222 -30q-161 0 -261 41q-97 42 -98 147q0 114 92 155q63 27 182 32l361 17q61 4 62 29q-2 26 -85 26q-79 0 -91 -36q-1 -2 -1 -4h-485q5 81 66 124q62 42 181 59q116 16 319 16q211 0 334 -14 q189 -20 228 -110q12 -29 12 -64v-304q0 -57 4 -80zM718 232v8q-16 -8 -48 -13l-128 -17q-57 -8 -58 -40q2 -31 64 -32q110 0 153 50q17 20 17 44zM650 604l-39 56h-8l-39 -56h-397l145 150h590l145 -150h-397z" glyph-name="acircumflex" horiz-adv-x="1193" unicode="â"/>
<glyph d="M1185 4v-4h-457q-4 11 -4 53v16q-43 -40 -137 -69q-95 -30 -222 -30q-161 0 -261 41q-97 42 -98 147q0 114 92 155q63 27 182 32l361 17q61 4 62 29q-2 26 -85 26q-79 0 -91 -36q-1 -2 -1 -4h-485q5 81 66 124q62 42 181 59q116 16 319 16q211 0 334 -14 q189 -20 228 -110q12 -29 12 -64v-304q0 -57 4 -80zM718 232v8q-16 -8 -48 -13l-128 -17q-57 -8 -58 -40q2 -31 64 -32q110 0 153 50q17 20 17 44zM625 616q-71 13 -106 13q-26 -1 -31 -20h-253q0 115 77 173q51 38 119 38q60 0 157 -18q71 -13 106 -13q26 1 31 20h253 q0 -115 -77 -173q-51 -38 -119 -38q-60 0 -157 18z" glyph-name="atilde" horiz-adv-x="1193" unicode="ã"/>
<glyph d="M1185 4v-4h-457q-4 11 -4 53v16q-43 -40 -137 -69q-95 -30 -222 -30q-161 0 -261 41q-97 42 -98 147q0 114 92 155q63 27 182 32l361 17q61 4 62 29q-2 26 -85 26q-79 0 -91 -36q-1 -2 -1 -4h-485q5 81 66 124q62 42 181 59q116 16 319 16q211 0 334 -14 q189 -20 228 -110q12 -29 12 -64v-304q0 -57 4 -80zM718 232v8q-16 -8 -48 -13l-128 -17q-57 -8 -58 -40q2 -31 64 -32q110 0 153 50q17 20 17 44zM201 604v124h389v-124h-389zM624 604v124h389v-124h-389z" glyph-name="adieresis" horiz-adv-x="1193" unicode="ä"/>
<glyph d="M1185 4v-4h-457q-4 11 -4 53v16q-43 -40 -137 -69q-95 -30 -222 -30q-161 0 -261 41q-97 42 -98 147q0 114 92 155q63 27 182 32l361 17q61 4 62 29q-2 26 -85 26q-79 0 -91 -36q-1 -2 -1 -4h-485q5 81 66 124q62 42 181 59q116 16 319 16q211 0 334 -14 q189 -20 228 -110q12 -29 12 -64v-304q0 -57 4 -80zM718 232v8q-16 -8 -48 -13l-128 -17q-57 -8 -58 -40q2 -31 64 -32q110 0 153 50q17 20 17 44zM361 756q0 107 122 144q53 15 123 15q182 0 231 -94q15 -30 15 -65q0 -105 -119 -141q-54 -17 -127 -17q-182 0 -230 94 q-15 29 -15 64zM663 756q-2 36 -57 37q-56 -1 -57 -37q2 -36 57 -37q56 1 57 37z" glyph-name="aring" horiz-adv-x="1193" unicode="å"/>
<glyph d="M1899 195h-721q11 -61 124 -62q87 0 113 29h479q-6 -62 -51 -102q-43 -39 -172 -65q-126 -25 -369 -25q-322 1 -436 115q-106 -106 -355 -114q-19 -1 -38 -1q-277 1 -376 49q-87 44 -91 139q0 114 93 155q62 27 180 32l359 17q60 4 61 29q-2 26 -83 26q-72 0 -88 -33 q-1 -4 -2 -7h-485q5 81 66 124q61 42 180 59q116 16 318 16q252 0 333 -41q27 -14 42 -33q62 74 322 74q390 -2 519 -110q81 -69 83 -193q0 -50 -5 -78zM1178 356h247q-12 57 -123 57q-111 -1 -124 -57zM714 232v8q-17 -9 -47 -13l-126 -17q-56 -9 -57 -40q2 -31 64 -32 q125 0 157 59q9 16 9 35z" glyph-name="ae" horiz-adv-x="1912" unicode="æ"/>
<glyph d="M708 256h505q-5 -133 -96 -196q-117 -80 -432 -89l-40 -28q17 5 69 5q141 0 181 -38q26 -25 26 -71q-3 -63 -52 -87q-63 -31 -270 -32q-138 0 -228 23v96h10q65 -18 207 -18q77 1 79 16q0 13 -49 15h-30q-14 0 -67 -2q-40 -3 -62 -6h-10v62l86 65q-339 9 -452 111 q-73 67 -75 191q2 148 109 216q134 85 487 87q375 -2 506 -88q93 -63 103 -193h-504q-11 29 -77 36q-15 2 -30 2q-105 0 -115 -51q-1 -5 -1 -9q0 -49 83 -58q16 -2 33 -2q78 0 102 34q3 5 4 9z" glyph-name="ccedilla" horiz-adv-x="1221" unicode="ç"/>
<glyph d="M1214 195h-727q11 -58 114 -62h13q90 0 116 29h479q-6 -62 -51 -102q-45 -39 -173 -65q-126 -25 -371 -25q-378 2 -509 95q-95 69 -97 208q2 146 107 214q135 87 499 89q391 -2 520 -108q83 -69 85 -195q0 -50 -5 -78zM488 356h251q-16 56 -125 57q-112 -1 -126 -57z M166 774h535l99 -170h-372z" glyph-name="egrave" horiz-adv-x="1227" unicode="è"/>
<glyph d="M1214 195h-727q11 -58 114 -62h13q90 0 116 29h479q-6 -62 -51 -102q-45 -39 -173 -65q-126 -25 -371 -25q-378 2 -509 95q-95 69 -97 208q2 146 107 214q135 87 499 89q391 -2 520 -108q83 -69 85 -195q0 -50 -5 -78zM488 356h251q-16 56 -125 57q-112 -1 -126 -57z M1062 774l-262 -170h-372l99 170h535z" glyph-name="eacute" horiz-adv-x="1227" unicode="é"/>
<glyph d="M1214 195h-727q11 -58 114 -62h13q90 0 116 29h479q-6 -62 -51 -102q-45 -39 -173 -65q-126 -25 -371 -25q-378 2 -509 95q-95 69 -97 208q2 146 107 214q135 87 499 89q391 -2 520 -108q83 -69 85 -195q0 -50 -5 -78zM488 356h251q-16 56 -125 57q-112 -1 -126 -57z M657 604l-39 56h-8l-39 -56h-397l145 150h590l145 -150h-397z" glyph-name="ecircumflex" horiz-adv-x="1227" unicode="ê"/>
<glyph d="M1214 195h-727q11 -58 114 -62h13q90 0 116 29h479q-6 -62 -51 -102q-45 -39 -173 -65q-126 -25 -371 -25q-378 2 -509 95q-95 69 -97 208q2 146 107 214q135 87 499 89q391 -2 520 -108q83 -69 85 -195q0 -50 -5 -78zM488 356h251q-16 56 -125 57q-112 -1 -126 -57z M208 604v124h389v-124h-389zM631 604v124h389v-124h-389z" glyph-name="edieresis" horiz-adv-x="1227" unicode="ë"/>
<glyph d="M12 0v546h464v-546h-464zM-204 774h535l99 -200h-372z" glyph-name="igrave" horiz-adv-x="488" unicode="ì"/>
<glyph d="M12 0v546h464v-546h-464zM692 774l-262 -200h-372l99 200h535z" glyph-name="iacute" horiz-adv-x="488" unicode="í"/>
<glyph d="M12 0v546h464v-546h-464zM287 574l-39 62h-8l-39 -62h-397l145 180h590l145 -180h-397z" glyph-name="icircumflex" horiz-adv-x="488" unicode="î"/>
<glyph d="M12 0v546h464v-546h-464zM-162 574v150h389v-150h-389zM261 574v150h389v-150h-389z" glyph-name="idieresis" horiz-adv-x="488" unicode="ï"/>
<glyph d="M1219 320q-1 -145 -57 -218q-57 -74 -190 -103q-137 -29 -389 -29q-340 2 -460 59q-95 45 -111 147q-3 20 -4 43q0 145 119 202q103 49 320 49q71 0 147 -11q73 -10 119 -31h7q-20 60 -143 124l-78 -43l-141 34l109 61q-92 39 -203 70q-107 32 -187 42v8h508q69 -5 86 -8 l99 55l141 -34l-89 -49q178 -48 286 -139q111 -92 111 -229zM712 220q-2 47 -116 47q-103 0 -109 -39q-1 -5 -1 -8q0 -40 73 -46q17 -1 37 -1q115 1 116 47z" glyph-name="eth" horiz-adv-x="1227" unicode="ð"/>
<glyph d="M469 546v-72h8q124 81 289 87q17 1 34 1q267 0 307 -158q7 -31 7 -66v-338h-464v169q0 69 -43 82q-15 4 -35 4q-75 0 -91 -55q-5 -19 -5 -43v-157h-464v546h457zM581 606q-71 13 -106 13q-26 -1 -31 -20h-253q0 115 77 173q51 38 119 38q60 0 157 -18q71 -13 106 -13 q26 1 31 20h253q0 -115 -77 -173q-51 -38 -119 -38q-60 0 -157 18z" glyph-name="ntilde" horiz-adv-x="1126" unicode="ñ"/>
<glyph d="M1190 273q-2 -147 -107 -216q-132 -85 -484 -87q-370 2 -497 96q-92 69 -94 207q2 148 108 216q133 85 483 87q371 -2 499 -98q90 -69 92 -205zM712 273q-2 56 -113 57q-112 -1 -113 -57q2 -56 113 -57q112 1 113 57zM151 774h535l99 -170h-372z" glyph-name="ograve" horiz-adv-x="1198" unicode="ò"/>
<glyph d="M1190 273q-2 -147 -107 -216q-132 -85 -484 -87q-370 2 -497 96q-92 69 -94 207q2 148 108 216q133 85 483 87q371 -2 499 -98q90 -69 92 -205zM712 273q-2 56 -113 57q-112 -1 -113 -57q2 -56 113 -57q112 1 113 57zM1047 774l-262 -170h-372l99 170h535z" glyph-name="oacute" horiz-adv-x="1198" unicode="ó"/>
<glyph d="M1190 273q-2 -147 -107 -216q-132 -85 -484 -87q-370 2 -497 96q-92 69 -94 207q2 148 108 216q133 85 483 87q371 -2 499 -98q90 -69 92 -205zM712 273q-2 56 -113 57q-112 -1 -113 -57q2 -56 113 -57q112 1 113 57zM642 604l-39 56h-8l-39 -56h-397l145 150h590 l145 -150h-397z" glyph-name="ocircumflex" horiz-adv-x="1198" unicode="ô"/>
<glyph d="M1190 273q-2 -147 -107 -216q-132 -85 -484 -87q-370 2 -497 96q-92 69 -94 207q2 148 108 216q133 85 483 87q371 -2 499 -98q90 -69 92 -205zM712 273q-2 56 -113 57q-112 -1 -113 -57q2 -56 113 -57q112 1 113 57zM617 616q-71 13 -106 13q-26 -1 -31 -20h-253 q0 115 77 173q51 38 119 38q60 0 157 -18q71 -13 106 -13q26 1 31 20h253q0 -115 -77 -173q-51 -38 -119 -38q-60 0 -157 18z" glyph-name="otilde" horiz-adv-x="1198" unicode="õ"/>
<glyph d="M1190 273q-2 -147 -107 -216q-132 -85 -484 -87q-370 2 -497 96q-92 69 -94 207q2 148 108 216q133 85 483 87q371 -2 499 -98q90 -69 92 -205zM712 273q-2 56 -113 57q-112 -1 -113 -57q2 -56 113 -57q112 1 113 57zM193 604v124h389v-124h-389zM616 604v124h389v-124 h-389z" glyph-name="odieresis" horiz-adv-x="1198" unicode="ö"/>
<glyph d="M266 614q1 48 35 83q36 35 85 35q50 -1 85 -35q35 -36 35 -83q-1 -49 -35 -84q-35 -34 -85 -34q-51 1 -85 34q-35 36 -35 84zM750 450v-194h-728v194h728zM266 92q1 48 35 83q36 35 85 35q50 -1 85 -35q35 -36 35 -83q-1 -49 -35 -84q-35 -34 -85 -34q-51 1 -85 34 q-35 36 -35 84z" glyph-name="divide" horiz-adv-x="772" unicode="÷"/>
<glyph d="M1190 273q-2 -147 -107 -216q-132 -85 -484 -87q-238 0 -371 39l-105 -58l-110 61l94 52q-99 70 -99 209q2 148 108 216q133 85 483 87q238 0 371 -39l105 58l110 -61l-94 -52q99 -70 99 -209zM486 273q0 -12 4 -19l149 82q-16 4 -40 4q-86 0 -108 -45q-5 -11 -5 -22z M712 273q0 12 -4 19l-149 -82q16 -4 40 -4q86 0 108 45q5 11 5 22z" glyph-name="oslash" horiz-adv-x="1198" unicode="ø"/>
<glyph d="M657 0v72h-8q-124 -81 -289 -87q-17 -1 -34 -1q-267 0 -307 158q-7 31 -7 66v338h464v-169q0 -69 43 -82q15 -4 35 -4q75 0 91 55q5 19 5 43v157h464v-546h-457zM115 774h535l99 -200h-372z" glyph-name="ugrave" horiz-adv-x="1126" unicode="ù"/>
<glyph d="M657 0v72h-8q-124 -81 -289 -87q-17 -1 -34 -1q-267 0 -307 158q-7 31 -7 66v338h464v-169q0 -69 43 -82q15 -4 35 -4q75 0 91 55q5 19 5 43v157h464v-546h-457zM1011 774l-262 -200h-372l99 200h535z" glyph-name="uacute" horiz-adv-x="1126" unicode="ú"/>
<glyph d="M657 0v72h-8q-124 -81 -289 -87q-17 -1 -34 -1q-267 0 -307 158q-7 31 -7 66v338h464v-169q0 -69 43 -82q15 -4 35 -4q75 0 91 55q5 19 5 43v157h464v-546h-457zM606 574l-39 62h-8l-39 -62h-397l145 180h590l145 -180h-397z" glyph-name="ucircumflex" horiz-adv-x="1126" unicode="û"/>
<glyph d="M657 0v72h-8q-124 -81 -289 -87q-17 -1 -34 -1q-267 0 -307 158q-7 31 -7 66v338h464v-169q0 -69 43 -82q15 -4 35 -4q75 0 91 55q5 19 5 43v157h464v-546h-457zM157 574v150h389v-150h-389zM580 574v150h389v-150h-389z" glyph-name="udieresis" horiz-adv-x="1126" unicode="ü"/>
<glyph d="M693 546h521l-299 -452q-82 -122 -142 -178q-63 -59 -141 -83q-79 -24 -206 -24h-347v286h151q51 0 61 13q1 2 2 3l3 5l-300 430h521l20 -37q25 -47 65 -130h8q38 82 64 131zM1053 774l-262 -200h-372l99 200h535z" glyph-name="yacute" horiz-adv-x="1210" unicode="ý"/>
<glyph d="M484 41h-8v-217h-464v900h464v-233h8q115 71 282 71q315 0 393 -156q29 -59 29 -140q0 -205 -190 -266q-93 -30 -232 -30q-168 1 -282 71zM462 266q2 -55 127 -55q120 1 121 55q-2 55 -121 55q-126 -1 -127 -55z" glyph-name="thorn" horiz-adv-x="1196" unicode="þ"/>
</font>
</defs>
</svg>
