<?xml version="1.0" encoding="UTF-8"?>
<!DOCTYPE svg  PUBLIC '-//W3C//DTD SVG 1.1//EN'  'http://www.w3.org/Graphics/SVG/1.1/DTD/svg11.dtd'>
<svg version="1.1" xmlns="http://www.w3.org/2000/svg">
<defs>
<font id="Shapiro-75HeavyWide" horiz-adv-x="746">
<font-face font-family="Shapiro 75 Heavy Wide" font-stretch="expanded" font-weight="600" ascent="788" bbox="-119 -248 1338 1010" cap-height="714" descent="-212" panose-1="2 11 6 3 5 0 0 2 0 4" underline-position="-100" underline-thickness="50" unicode-range="U+0020-00FE" units-per-em="1000" x-height="540"/>
<missing-glyph/>
<glyph glyph-name="space" horiz-adv-x="340" unicode=" "/>
<glyph d="M255 242h-162l-30 341v131h223v-131zM69 0v182h211v-182h-211z" glyph-name="exclam" horiz-adv-x="349" unicode="!"/>
<glyph d="M198 377h-161v337h161v-337zM458 377h-161l1 337h160v-337z" glyph-name="quotedbl" horiz-adv-x="495" unicode='"'/>
<glyph d="M702 415h-117l-31 -130h121l-26 -100h-118l-43 -185h-127l43 185h-139l-43 -185h-127l43 185h-119l25 100h118l30 130h-120l24 101h120l43 184h127l-43 -184h139l43 184h126l-43 -184h119zM428 285l30 130h-139l-31 -130h140z" glyph-name="numbersign" unicode="#"/>
<glyph d="M429 -11v-106h-60v106q-216 6 -294 86q-55 59 -59 162h217q8 -77 80 -98q24 -7 56 -10v155l-116 15q-174 23 -209 129q-10 31 -10 68q1 112 88 161q89 49 247 54v82h60v-82q159 -5 246 -56q90 -52 93 -169h-216q-7 73 -111 87q-6 0 -12 1v-137l145 -17q174 -21 208 -135 q9 -32 9 -70q0 -144 -136 -194q-83 -29 -226 -32zM335 448l34 -4v131q-116 -7 -117 -67q0 -40 51 -54q14 -3 32 -6zM567 202q-1 47 -59 62q-17 4 -38 7l-41 6v-148q137 5 138 73z" glyph-name="dollar" horiz-adv-x="822" unicode="$"/>
<glyph d="M475 510q0 -182 -175 -202q-22 -2 -47 -2q-182 0 -214 133q-8 32 -8 71q0 165 140 196q37 8 82 8q201 0 220 -165q2 -19 2 -39zM727 700h122l-449 -700h-122zM333 510q0 92 -63 101q-8 1 -17 1q-67 0 -78 -67q-3 -16 -3 -35q0 -91 62 -101q9 -1 19 -1q68 0 78 70 q2 15 2 32zM1096 190q0 -170 -150 -198q-33 -6 -72 -6q-201 0 -220 165q-2 19 -2 39q0 182 175 202q22 2 47 2q182 0 214 -133q8 -32 8 -71zM955 190q0 91 -62 101q-9 1 -19 1q-68 0 -78 -70q-2 -15 -2 -32q6 -99 80 -102q71 0 80 76q1 12 1 26z" glyph-name="percent" horiz-adv-x="1127" unicode="%"/>
<glyph d="M952 0h-248l-53 46q-113 -60 -254 -60q-317 0 -356 163q-6 25 -6 52q0 94 68 142q34 24 89 44l41 15l-10 9q-49 42 -69 72q-19 31 -19 76q0 142 210 166q42 5 89 5q284 0 300 -153q1 -10 1 -18q0 -72 -64 -113q-25 -16 -62 -31l-96 -40l127 -108q24 53 24 112h186 q-1 -132 -73 -229zM396 475l12 -9l51 18q61 22 69 53q1 6 1 12q-8 60 -95 63q-93 -2 -95 -63q0 -22 39 -58q8 -7 18 -16zM530 149l-184 157l-5 -2q-87 -35 -88 -98q0 -58 71 -79q32 -10 73 -10q71 0 133 32z" glyph-name="ampersand" horiz-adv-x="953" unicode="&amp;"/>
<glyph d="M198 377h-161v337h161v-337z" glyph-name="quotesingle" horiz-adv-x="234" unicode="'"/>
<glyph d="M406 -172h-178q-77 50 -134 154q-73 136 -72 302q-2 218 120 373q42 53 86 82h178q-72 -63 -121 -181q-52 -128 -51 -274q0 -121 30 -215q52 -159 142 -241z" glyph-name="parenleft" horiz-adv-x="428" unicode="("/>
<glyph d="M22 739h178q77 -50 134 -155q73 -135 72 -300q2 -219 -120 -374q-42 -53 -86 -82h-178q32 29 71 88q81 118 98 296q3 36 3 72q2 221 -111 384q-31 44 -61 71z" glyph-name="parenright" horiz-adv-x="428" unicode=")"/>
<glyph d="M481 571l-133 -83l133 -81l-64 -91l-105 78l2 -130h-117l2 130l-105 -78l-63 91l132 81l-132 83l63 91l105 -77l-2 129h117l-2 -129l105 77z" glyph-name="asterisk" horiz-adv-x="512" unicode="*"/>
<glyph d="M595 392v-132h-194v-199h-139v199h-195v132h195v197h139v-197h194z" glyph-name="plus" horiz-adv-x="662" unicode="+"/>
<glyph d="M279 190v-144q0 -166 -92 -214q-49 -25 -127 -26v75q91 9 94 119h-94v190h219z" glyph-name="comma" horiz-adv-x="339" unicode=","/>
<glyph d="M391 217h-359v144h359v-144z" glyph-name="hyphen" horiz-adv-x="424" unicode="-"/>
<glyph d="M60 0v190h219v-190h-219z" glyph-name="period" horiz-adv-x="339" unicode="."/>
<glyph d="M311 714h158l-301 -714h-157z" glyph-name="slash" horiz-adv-x="491" unicode="/"/>
<glyph d="M862 349q0 -301 -279 -358q-62 -12 -135 -12q-354 0 -405 275q-8 45 -8 95q0 314 299 363q53 8 114 8q351 0 405 -270q9 -47 9 -101zM649 349q0 183 -138 212q-29 6 -63 6q-173 0 -197 -159q-4 -28 -4 -59q0 -190 149 -214q25 -4 52 -4q168 0 195 147q6 33 6 71z" glyph-name="zero" horiz-adv-x="896" unicode="0"/>
<glyph d="M436 699v-699h-203v434h-209v136h54q122 0 165 77q12 23 20 52h173z" glyph-name="one" horiz-adv-x="496" unicode="1"/>
<glyph d="M259 149h528v-149h-761v21q1 100 43 164q59 87 177 137q29 12 66 25l138 50q84 31 103 62q9 16 9 37q-2 75 -144 76q-142 0 -160 -101l-2 -18h-220q12 211 233 255q63 12 141 12q266 0 341 -100q34 -47 34 -117q0 -127 -112 -189q-51 -28 -130 -48l-164 -50 q-92 -29 -118 -63q-1 -3 -2 -4z" glyph-name="two" horiz-adv-x="828" unicode="2"/>
<glyph d="M796 199q0 -126 -100 -175q-91 -45 -293 -45q-238 0 -321 83q-58 58 -64 168h217q7 -95 142 -102q13 -1 26 -1q158 0 170 67q1 7 1 13q0 68 -81 82q-25 4 -59 4h-128v132h134q121 4 124 79q-2 74 -161 74q-144 -1 -155 -94h-207q10 159 158 209q79 27 204 27 q245 0 323 -74q50 -48 50 -132q-2 -125 -110 -145v-5q111 -26 127 -125q3 -19 3 -40z" glyph-name="three" horiz-adv-x="827" unicode="3"/>
<glyph d="M478 145h-460v153l417 401h238v-415h119v-139h-119v-145h-195v145zM478 284v250h-6l-254 -244v-6h260z" glyph-name="four" horiz-adv-x="817" unicode="4"/>
<glyph d="M744 699v-140h-496l-6 -110h6q84 43 192 43q239 0 313 -100q42 -58 42 -152q0 -160 -123 -218q-91 -43 -261 -43q-281 0 -352 125q-25 44 -28 103h222q12 -77 147 -80h11q132 0 157 64q8 20 8 45q0 86 -91 104q-31 6 -71 6q-94 0 -153 -32h-207l21 385h669z" glyph-name="five" horiz-adv-x="826" unicode="5"/>
<glyph d="M815 227q0 -244 -366 -248h-12q-250 0 -340 124q-62 87 -62 245q0 318 290 364q51 8 110 8q257 0 341 -130q26 -40 31 -88h-217q-12 68 -119 77q-14 1 -29 1q-132 0 -173 -80q-20 -40 -24 -100h6q37 27 93 40q58 15 117 15q336 0 353 -205q1 -12 1 -23zM262 221 q4 -101 169 -102q163 1 164 102q-2 98 -164 99q-168 -1 -169 -99z" glyph-name="six" horiz-adv-x="846" unicode="6"/>
<glyph d="M14 699h745v-80q0 -63 -36 -120q-2 -3 -3 -4q-22 -32 -89 -116q-64 -82 -91 -120q-81 -117 -93 -259h-263q8 92 49 172q42 81 95 144q55 62 140 149q35 32 68 69v5h-522v160z" glyph-name="seven" horiz-adv-x="783" unicode="7"/>
<glyph d="M812 514q-2 -110 -117 -145v-5q105 -24 125 -116q5 -25 5 -55q0 -135 -137 -182q-93 -32 -258 -32q-281 0 -358 97q-37 46 -37 117q0 119 89 158q18 8 40 13v5q-116 36 -117 145q0 132 138 177q89 29 245 29q271 0 347 -93q35 -45 35 -113zM260 500q0 -70 138 -76 q16 -1 32 -1q160 0 169 68q1 5 1 9q0 67 -119 76q-23 2 -51 2q-154 0 -168 -62q-2 -8 -2 -16zM602 206q0 64 -82 80q-36 7 -90 7q-142 0 -166 -54q-7 -15 -7 -33q0 -61 75 -78q38 -8 98 -8q135 0 162 46q10 17 10 40z" glyph-name="eight" horiz-adv-x="860" unicode="8"/>
<glyph d="M21 472q0 244 366 248h12q251 0 340 -125q62 -87 62 -245q0 -310 -276 -361q-57 -10 -124 -10q-254 0 -339 126q-28 42 -33 92h217q10 -67 114 -77q16 -1 33 -1q132 0 173 80q20 40 24 100h-5q-36 -26 -94 -41q-61 -14 -117 -14q-312 0 -348 176q-5 25 -5 52zM573 478 q-4 101 -169 102q-163 -1 -164 -102q2 -98 164 -99q168 1 169 99z" glyph-name="nine" horiz-adv-x="835" unicode="9"/>
<glyph d="M60 349v182h211v-182h-211zM60 0v182h211v-182h-211z" glyph-name="colon" horiz-adv-x="331" unicode=":"/>
<glyph d="M60 349v182h211v-182h-211zM271 182v-136q0 -173 -101 -219q-44 -20 -110 -21v75q76 1 85 95q1 12 1 24h-86v182h211z" glyph-name="semicolon" horiz-adv-x="331" unicode=";"/>
<glyph d="M67 378l526 214v-139l-323 -128v-6l323 -128v-139l-526 215v111z" glyph-name="less" horiz-adv-x="660" unicode="&lt;"/>
<glyph d="M595 500v-131h-528v131h528zM595 281v-132h-528v132h528z" glyph-name="equal" horiz-adv-x="662" unicode="="/>
<glyph d="M595 378v-111l-528 -215v139l324 128v6l-324 128v139z" glyph-name="greater" horiz-adv-x="662" unicode="&gt;"/>
<glyph d="M231 478h-208q5 138 96 195q94 57 263 57q340 -1 341 -201q0 -87 -67 -136q-24 -17 -59 -34l-51 -25q-62 -30 -70 -66q-2 -8 -2 -15l-1 -11h-194v24q0 78 48 120q21 18 54 35l66 33q52 27 56 59q1 4 1 8q0 60 -110 64h-13q-144 -2 -150 -107zM271 0v182h211v-182h-211z " glyph-name="question" unicode="?"/>
<glyph d="M638 493h128l-62 -317q-1 -5 -1 -15q6 -20 27 -22q89 0 134 76q30 54 30 134q0 148 -116 230q-96 67 -242 67q-144 3 -253 -98q-108 -100 -123 -249q-2 -26 -2 -50q0 -181 125 -274q93 -69 232 -69q141 0 257 73q3 2 5 3h147q-60 -79 -168 -128q-110 -51 -245 -51 q-210 -2 -343 121q-132 122 -133 320v10q-3 183 117 323q113 132 283 165q52 10 105 9q194 2 332 -103q124 -94 143 -232q3 -25 3 -49q2 -172 -117 -261q-83 -61 -192 -61q-93 0 -114 50q-2 5 -3 9h-5q-54 -59 -147 -59q-110 0 -153 84q-21 41 -21 95q0 112 65 194 q8 11 16 19q67 66 154 66q90 0 118 -56l3 -6h6zM442 362q-45 -61 -45 -132q0 -77 62 -88q9 -1 18 -1q52 1 86 46q45 58 45 132t-59 86q-10 2 -20 2q-51 0 -87 -45z" glyph-name="at" horiz-adv-x="1053" unicode="@"/>
<glyph d="M706 0l-57 125h-372l-57 -125h-219l340 714h247l338 -714h-220zM466 536h-6q-43 -102 -115 -260h236q-84 186 -115 260z" glyph-name="A" horiz-adv-x="927" unicode="A"/>
<glyph d="M854 208q0 -161 -141 -197q-46 -11 -106 -11h-547v714h531q237 -2 238 -185q-1 -111 -94 -141v-5q110 -29 118 -153q1 -11 1 -22zM611 499q-2 65 -77 66h-274v-133h274q73 7 77 67zM635 224q0 64 -59 74q-14 2 -29 2h-287v-152h287q77 0 86 55q2 10 2 21z" glyph-name="B" horiz-adv-x="890" unicode="B"/>
<glyph d="M474 570q-153 0 -201 -112q-19 -45 -19 -101q0 -142 108 -191q49 -22 112 -22q169 0 188 124q2 10 2 20h239q-3 -171 -157 -253q-109 -57 -272 -57q-252 0 -365 142q-74 94 -74 237q0 226 176 321q107 58 263 58q238 0 352 -115q71 -74 75 -180h-235q-6 77 -85 110 q-45 19 -107 19z" glyph-name="C" horiz-adv-x="938" unicode="C"/>
<glyph d="M870 357q0 -258 -197 -328q-82 -29 -199 -29h-414v714h414q286 0 364 -177q32 -74 32 -180zM435 552h-175v-390h175q179 0 209 130q7 30 7 65q0 161 -142 189q-34 6 -74 6z" glyph-name="D" horiz-adv-x="905" unicode="D"/>
<glyph d="M260 557v-119h471v-145h-471v-137h501v-156h-701v714h690v-157h-490z" glyph-name="E" horiz-adv-x="805" unicode="E"/>
<glyph d="M751 552h-491v-144h470v-152h-470v-256h-200v714h691v-162z" glyph-name="F" horiz-adv-x="788" unicode="F"/>
<glyph d="M911 394v-394h-146v84q-96 -106 -273 -106q-213 1 -335 95q-122 97 -122 284q1 188 120 283q122 96 329 96q257 0 364 -123q52 -61 59 -143h-234q-11 38 -50 68q-42 32 -139 32q-166 0 -214 -119q-16 -42 -16 -94q0 -172 153 -209q39 -9 85 -9q124 0 174 69q18 25 20 50 h-179v136h404z" glyph-name="G" horiz-adv-x="966" unicode="G"/>
<glyph d="M652 714h200v-714h-200v285l-392 -1v-284h-200v714h200v-268h392v268z" glyph-name="H" horiz-adv-x="912" unicode="H"/>
<glyph d="M260 0h-200v714h200v-714z" glyph-name="I" horiz-adv-x="320" unicode="I"/>
<glyph d="M761 714v-412q-1 -177 -96 -251q-97 -72 -274 -72q-179 0 -273 72q-94 74 -94 251v54h200v-57q0 -145 145 -154q11 -1 22 -1q169 2 170 155v415h200z" glyph-name="J" horiz-adv-x="822" unicode="J"/>
<glyph d="M560 463l329 -463h-243l-232 334l-154 -136v-198h-200v714h200v-304l331 304h252z" glyph-name="K" horiz-adv-x="891" unicode="K"/>
<glyph d="M753 0h-693v714h200v-552h493v-162z" glyph-name="L" horiz-adv-x="784" unicode="L"/>
<glyph d="M1027 714v-714h-200v520h-5l-200 -520h-162l-203 528h-6v-528h-191v714h320l159 -451h5l158 451h325z" glyph-name="M" horiz-adv-x="1087" unicode="M"/>
<glyph d="M661 714h191v-714h-222l-373 463h-6v-463h-191v714h229l366 -454h6v454z" glyph-name="N" horiz-adv-x="912" unicode="N"/>
<glyph d="M937 357q-1 -188 -121 -284q-123 -95 -330 -95q-208 1 -330 95q-121 97 -121 284q1 189 121 283q122 96 330 96t330 -96q121 -95 121 -283zM718 357q0 149 -123 195q-47 18 -109 18q-174 0 -218 -126q-14 -39 -14 -87q0 -155 131 -198q44 -15 101 -15q166 0 215 117 q17 42 17 96z" glyph-name="O" horiz-adv-x="972" unicode="O"/>
<glyph d="M836 480q0 -168 -127 -214q-57 -21 -142 -21h-307v-245h-200v714h507q198 0 249 -117q20 -48 20 -117zM617 474q0 72 -71 80q-11 1 -23 1h-263v-163h263q88 0 94 70v12z" glyph-name="P" horiz-adv-x="858" unicode="P"/>
<glyph d="M757 35l51 -86l-129 -53l-56 94q-64 -12 -137 -12q-208 1 -330 95q-121 97 -121 284q1 189 121 283q122 96 330 96t330 -96q121 -95 121 -283q-1 -229 -180 -322zM599 300l59 -100q60 56 60 157q0 149 -123 195q-47 18 -109 18q-174 0 -218 -126q-14 -39 -14 -87 q0 -155 131 -198q44 -15 101 -15q26 0 44 2l-60 100z" glyph-name="Q" horiz-adv-x="972" unicode="Q"/>
<glyph d="M696 278l175 -278h-229l-148 246h-234v-246h-200v714h523q204 0 253 -123q17 -44 17 -105q0 -140 -110 -186q-22 -9 -47 -15v-7zM630 473q0 72 -76 77h-12h-282v-154h282q85 5 88 77z" glyph-name="R" horiz-adv-x="889" unicode="R"/>
<glyph d="M409 593q-143 -1 -144 -71q0 -43 54 -56q15 -4 33 -6l250 -29q185 -21 220 -144q9 -33 9 -72q0 -151 -143 -203q-94 -34 -269 -34q-227 1 -317 70q-79 62 -86 191h228q5 -86 93 -107q37 -8 91 -8q165 1 166 78q0 47 -54 64q-20 5 -47 9l-227 29q-190 21 -223 143 q-8 29 -8 63q1 123 101 174q100 52 280 52q179 0 282 -53q102 -53 109 -184h-228q-6 84 -135 93q-17 1 -35 1z" glyph-name="S" horiz-adv-x="861" unicode="S"/>
<glyph d="M774 714v-164h-276v-550h-200v550h-276v164h752z" glyph-name="T" horiz-adv-x="796" unicode="T"/>
<glyph d="M647 714h200v-412q-1 -177 -101 -251q-101 -72 -292 -72q-193 0 -293 72q-101 75 -101 251v412h200v-411q0 -128 118 -153q33 -7 76 -7q158 0 186 102q7 26 7 58v411z" glyph-name="U" horiz-adv-x="908" unicode="U"/>
<glyph d="M641 714h234l-335 -714h-208l-335 714h234l150 -347q27 -61 53 -130h5q27 70 53 130z" glyph-name="V" horiz-adv-x="872" unicode="V"/>
<glyph d="M942 714h222l-230 -714h-214l-95 314q-19 63 -39 138h-5q-19 -74 -39 -138l-96 -314h-218l-227 714h224l88 -316l35 -139h5q22 82 39 139l96 316h190l97 -316q14 -45 38 -139h6q10 43 34 138z" glyph-name="W" horiz-adv-x="1165" unicode="W"/>
<glyph d="M572 378l317 -378h-261l-185 237l-185 -237h-260l317 378l-279 336h254l154 -207l154 207h253z" glyph-name="X" horiz-adv-x="887" unicode="X"/>
<glyph d="M867 714l-335 -468v-246h-201v246l-336 468h239l197 -295l199 295h237z" glyph-name="Y" horiz-adv-x="862" unicode="Y"/>
<glyph d="M777 552l-425 -382h426v-170h-744v162l424 382h-399v170h718v-162z" glyph-name="Z" horiz-adv-x="820" unicode="Z"/>
<glyph d="M254 613v-659h144v-126h-338v911h338v-126h-144z" glyph-name="bracketleft" horiz-adv-x="429" unicode="["/>
<glyph d="M180 714l300 -714h-157l-301 714h158z" glyph-name="backslash" horiz-adv-x="502" unicode="\"/>
<glyph d="M175 613h-144v126h338v-911h-338v126h144v659z" glyph-name="bracketright" horiz-adv-x="429" unicode="]"/>
<glyph d="M361 700l191 -347h-141l-117 225h-5l-117 -225h-141l191 347h139z" glyph-name="asciicircum" horiz-adv-x="582" unicode="^"/>
<glyph d="M748 -105v-60h-750v60h750z" glyph-name="underscore" unicode="_"/>
<glyph d="M60 747h271l81 -148h-170z" glyph-name="grave" horiz-adv-x="472" unicode="`"/>
<glyph d="M711 6v-6h-193q-15 16 -15 56v18q-79 -95 -249 -95q-124 0 -187 68q-41 45 -41 109q0 127 115 161q28 8 63 12l229 23q52 5 57 31q1 4 1 8q-2 43 -108 43q-94 0 -109 -46q-1 -6 -2 -10h-207q6 96 90 140q87 43 226 43q251 0 301 -103q14 -30 14 -67v-304q0 -62 15 -81z M499 235v21q-15 -9 -53 -15l-144 -21q-62 -11 -70 -48q-1 -7 -1 -15q2 -57 88 -58q85 0 138 46q41 37 42 90z" glyph-name="a" unicode="a"/>
<glyph d="M456 553q140 -1 221 -75q82 -75 82 -212q-1 -138 -82 -212q-82 -75 -221 -75q-134 1 -205 83h-6v-62h-193v724h197v-246h5q76 75 202 75zM555 266q0 126 -122 141q-16 2 -32 2q-114 0 -147 -82q-11 -28 -11 -61q0 -101 87 -132q32 -11 71 -11q138 0 152 117q2 13 2 26z " glyph-name="b" horiz-adv-x="790" unicode="b"/>
<glyph d="M528 210h217q-14 -109 -99 -170q-84 -61 -262 -61q-247 0 -324 151q-30 61 -30 140q0 192 166 259q79 32 188 32q179 0 261 -61q84 -61 98 -167h-216q-13 74 -119 82q-12 1 -24 1q-116 0 -142 -93q-7 -25 -7 -53q0 -111 92 -139q26 -8 57 -8q127 0 143 84q1 2 1 3z" glyph-name="c" horiz-adv-x="775" unicode="c"/>
<glyph d="M535 478h6v246h196v-724h-192v62h-6q-75 -83 -205 -83q-140 0 -222 75t-82 212q1 138 82 212q82 75 222 75q126 -1 201 -75zM547 266q0 101 -87 132q-32 11 -71 11q-138 0 -152 -117q-2 -13 -2 -26q0 -126 122 -141q16 -2 32 -2q114 0 147 82q11 28 11 61z" glyph-name="d" horiz-adv-x="790" unicode="d"/>
<glyph d="M743 221h-507q17 -112 153 -113q105 0 132 50q3 5 4 9h213q-7 -80 -86 -134q-81 -54 -263 -54q-253 0 -330 154q-29 60 -29 137q0 195 172 261q78 30 186 30q256 0 331 -157q27 -59 27 -134q0 -28 -3 -49zM241 342h295q-27 88 -148 89q-121 -1 -147 -89z" glyph-name="e" horiz-adv-x="776" unicode="e"/>
<glyph d="M301 551l1 -11h142v-122h-142v-418h-197v418h-91v122h91v38q0 117 99 153q57 20 154 20q16 0 98 -6v-135q-3 0 -13 1q-28 3 -46 3q-79 0 -93 -29q-5 -14 -3 -34z" glyph-name="f" horiz-adv-x="473" unicode="f"/>
<glyph d="M534 540h193v-510q-1 -112 -52 -159q-72 -66 -288 -68q-252 2 -314 105q-21 36 -26 88h214q11 -63 126 -64q109 0 133 44q10 20 10 54v85h-5q-65 -68 -183 -74h-16q-184 0 -258 113q-38 60 -38 143q0 160 131 223q69 33 165 33q126 0 193 -68q5 -5 9 -10h6v65zM534 297 q0 87 -93 109q-27 6 -59 6q-137 0 -146 -102q-1 -7 -1 -13q0 -92 99 -111q22 -4 48 -4q123 0 147 79q5 17 5 36z" glyph-name="g" horiz-adv-x="779" unicode="g"/>
<glyph d="M718 348v-348h-196v286q-2 109 -123 110q-63 -1 -106 -34q-44 -34 -44 -109v-253h-197v724h197v-252h5q83 81 226 81q163 0 216 -105q22 -43 22 -100z" glyph-name="h" horiz-adv-x="771" unicode="h"/>
<glyph d="M52 0v540h197v-540h-197zM50 609v119h201v-119h-201z" glyph-name="i" horiz-adv-x="301" unicode="i"/>
<glyph d="M52 9v531h197v-584q0 -93 -50 -125q-46 -28 -157 -28q-55 0 -86 4v156q27 -2 50 -2q39 0 45 32q1 7 1 16zM50 609v119h201v-119h-201z" glyph-name="j" horiz-adv-x="301" unicode="j"/>
<glyph d="M452 329l260 -329h-234l-157 212l-72 -64v-148h-197v724h197v-377l209 193h232z" glyph-name="k" horiz-adv-x="715" unicode="k"/>
<glyph d="M52 0v724h197v-724h-197z" glyph-name="l" horiz-adv-x="301" unicode="l"/>
<glyph d="M245 540v-71h6q65 79 202 84h15q147 -1 196 -85q77 85 237 85q143 0 197 -96q25 -47 25 -109v-348h-197v299q-2 96 -108 97q-99 0 -124 -75q-8 -24 -8 -51v-270h-197v299q-2 96 -108 97q-99 0 -124 -75q-8 -24 -8 -51v-270h-197v540h193z" glyph-name="m" horiz-adv-x="1175" unicode="m"/>
<glyph d="M245 540v-68h6q89 81 229 81q163 0 216 -105q22 -43 22 -100v-348h-196v286q-2 109 -123 110q-63 -1 -106 -34q-44 -34 -44 -109v-253h-197v540h193z" glyph-name="n" horiz-adv-x="771" unicode="n"/>
<glyph d="M749 270q0 -194 -170 -260q-80 -31 -189 -31q-255 0 -332 156q-28 59 -28 135q0 194 171 261q80 30 189 30q253 0 330 -154q29 -60 29 -137zM545 270q0 115 -102 140q-24 6 -53 6q-125 0 -150 -100q-5 -21 -5 -46q0 -114 99 -140q26 -7 56 -7q123 0 149 97q6 24 6 50z " glyph-name="o" horiz-adv-x="779" unicode="o"/>
<glyph d="M254 55h-5v-238h-197v723h193v-70h6q71 83 205 83q140 -1 221 -75q82 -75 82 -212q-1 -138 -82 -212q-82 -75 -221 -75q-126 1 -202 76zM243 266q0 -101 87 -132q32 -11 71 -11q138 0 152 117q2 13 2 26q0 126 -122 141q-16 2 -32 2q-114 0 -147 -82q-11 -28 -11 -61z " glyph-name="p" horiz-adv-x="790" unicode="p"/>
<glyph d="M334 -21q-140 0 -222 75t-82 212q1 138 82 212q82 75 222 75q131 -1 205 -83h6v70h192v-723h-196v238h-6q-77 -76 -201 -76zM235 266q0 -126 122 -141q16 -2 32 -2q114 0 147 82q11 28 11 61q0 101 -87 132q-32 11 -71 11q-138 0 -152 -117q-2 -13 -2 -26z" glyph-name="q" horiz-adv-x="790" unicode="q"/>
<glyph d="M52 540h193v-71h6q80 85 235 85q24 0 46 -4v-191q-49 11 -90 11q-86 0 -139 -34q-54 -33 -54 -120v-216h-197v540z" glyph-name="r" horiz-adv-x="554" unicode="r"/>
<glyph d="M348 438q-99 -3 -103 -42q0 -25 29 -33q13 -3 32 -5l198 -22q131 -15 172 -67q30 -39 30 -106q0 -117 -116 -157q-79 -27 -228 -27q-163 0 -253 41q-86 43 -91 153h213q4 -50 61 -63q29 -6 75 -6q121 1 122 49q0 27 -31 36q-13 4 -34 7l-184 24q-140 17 -181 75 q-24 35 -24 89q0 170 290 177h26q326 -1 334 -181h-208q-7 58 -129 58z" glyph-name="s" horiz-adv-x="736" unicode="s"/>
<glyph d="M439 152v-152q-72 -9 -122 -9q-141 0 -185 51q-32 37 -32 116v260h-91v122h91v146h196v-146h143v-122h-143v-222q0 -40 45 -46q10 -1 22 -1q50 0 76 3z" glyph-name="t" horiz-adv-x="473" unicode="t"/>
<glyph d="M526 0v67h-6q-91 -81 -229 -81q-162 0 -217 104q-22 44 -22 102v348h197v-286q0 -111 123 -111q62 0 105 33q45 36 45 110v254h196v-540h-192z" glyph-name="u" horiz-adv-x="771" unicode="u"/>
<glyph d="M523 540h222l-268 -540h-205l-268 540h222l93 -212q27 -61 53 -130h5q24 62 53 129z" glyph-name="v" horiz-adv-x="749" unicode="v"/>
<glyph d="M890 540h220l-232 -540h-189l-77 198q-26 64 -48 135h-6q-24 -72 -48 -135l-76 -198h-189l-236 540h221l69 -182q23 -60 48 -137h6q22 66 48 137l70 181h179l73 -183q20 -48 50 -135h5q18 58 46 137z" glyph-name="w" horiz-adv-x="1118" unicode="w"/>
<glyph d="M512 281l245 -281h-253l-121 162l-124 -162h-252l245 281l-219 259h240l110 -151l107 151h240z" glyph-name="x" horiz-adv-x="764" unicode="x"/>
<glyph d="M523 540h222l-279 -562q-55 -104 -100 -137q-46 -32 -150 -37q-15 -1 -32 -1q-81 0 -103 1v160q72 -2 86 -2q59 0 79 25q6 8 11 18l9 20l-262 515h222l93 -212q27 -61 53 -130h5q24 62 53 129z" glyph-name="y" horiz-adv-x="749" unicode="y"/>
<glyph d="M655 0h-626v149l330 249h-308v142h604v-147l-331 -251h331v-142z" glyph-name="z" horiz-adv-x="695" unicode="z"/>
<glyph d="M212 286v-5q103 -20 104 -124v-142q0 -45 23 -55q14 -6 36 -6h50v-126h-136q-158 8 -163 126v167q0 74 -53 88q-18 5 -42 5v139q74 0 89 50q6 18 6 43v168q2 124 163 125h136v-126h-50q-46 0 -55 -27q-4 -12 -4 -34v-143q-2 -103 -104 -123z" glyph-name="braceleft" horiz-adv-x="455" unicode="{"/>
<glyph d="M247 798v-1024h-187v1024h187z" glyph-name="bar" horiz-adv-x="307" unicode="|"/>
<glyph d="M139 409v143q0 44 -20 54q-14 7 -39 7h-50v126h136q162 -2 163 -125v-168q0 -75 55 -89q17 -4 40 -4v-139q-72 0 -88 -46q-7 -20 -7 -47v-167q0 -119 -145 -126h-18h-136v126h50q48 0 56 30q3 12 3 31v142q2 105 104 124v5q-103 21 -104 123z" glyph-name="braceright" horiz-adv-x="454" unicode="}"/>
<glyph d="M595 426v-138q-61 -67 -125 -68q-45 0 -104 28q-3 2 -5 3l-72 36q-56 29 -97 29q-55 -1 -125 -85v138q58 70 125 71q15 0 31 -2.5t29 -7t22 -8.5t17 -8l8 -4l72 -36q57 -30 99 -30q52 0 121 78q3 2 4 4z" glyph-name="asciitilde" horiz-adv-x="662" unicode="~"/>
<glyph glyph-name="uni00A0" horiz-adv-x="138" unicode=" "/>
<glyph d="M69 539h211v-182h-211v182zM255 298l31 -342v-131h-223v131l30 342h162z" glyph-name="exclamdown" horiz-adv-x="349" unicode="¡"/>
<glyph d="M413 -21v-108h-60v109q-235 10 -301 167q-22 55 -22 123q0 194 169 260q66 26 154 30v91h60v-91q163 -5 240 -65t90 -162h-216q-14 72 -114 82v-290q102 11 115 85h217q-29 -219 -332 -231zM353 125v289q-95 -11 -114 -102q-4 -20 -4 -42q0 -114 96 -140q11 -3 22 -5z " glyph-name="cent" horiz-adv-x="775" unicode="¢"/>
<glyph d="M742 192v-179q-42 -27 -140 -27q-110 1 -232 75q-52 -69 -161 -75h-15q-119 0 -151 81q-9 24 -9 53q0 90 75 120q27 10 58 10q39 0 77 -18q-9 29 -29 58h-166v79h107q-63 72 -63 140q0 164 193 196q51 8 115 8q149 0 237 -52q89 -54 104 -186h-196q-15 97 -137 98 q-115 -1 -116 -78q-3 -39 54 -110q10 -12 12 -16h191v-79h-139q23 -37 23 -73q0 -23 -8 -45q87 -28 147 -28q95 0 155 39q8 4 14 9zM245 136q-36 24 -57 24q-43 -7 -47 -43q0 -30 31 -38q8 -2 15 -2q45 0 58 57v2z" glyph-name="sterling" horiz-adv-x="790" unicode="£"/>
<glyph d="M560 220l61 -59l-79 -70l-59 57q-69 -44 -151 -44q-84 1 -150 43l-58 -56l-79 70l60 59q-48 68 -48 148q1 81 48 148l-60 59l79 70l58 -56q67 43 150 43q83 -1 151 -44l59 57l79 -70l-61 -59q47 -69 47 -148q-1 -80 -47 -148zM473 368q0 71 -56 114q-39 30 -85 30 q-68 0 -111 -57q-30 -39 -30 -87q0 -71 56 -114q39 -30 85 -30q68 0 111 57q30 39 30 87z" glyph-name="currency" horiz-adv-x="666" unicode="¤"/>
<glyph d="M850 700l-204 -285h89v-79h-146l-41 -58h187v-79h-213v-199h-198v199h-230v79h203l-42 58h-161v79h105l-204 285h234l194 -289l194 289h233z" glyph-name="yen" horiz-adv-x="845" unicode="¥"/>
<glyph d="M247 798v-437h-187v437h187zM247 210v-436h-187v436h187z" glyph-name="brokenbar" horiz-adv-x="307" unicode="¦"/>
<glyph d="M741 91q20 -35 20 -82q-1 -118 -89 -163q-89 -46 -259 -46q-204 0 -279 72q-56 55 -60 158h194q3 -76 77 -94q31 -7 77 -7q135 1 135 67q0 38 -46 52q-8 3 -17 5l-315 77q-121 28 -154 89q-19 35 -19 87q1 106 110 150q-18 32 -18 75q1 109 83 154q84 45 231 45 q143 0 229 -47q86 -48 89 -162h-194q-6 83 -131 84q-102 -6 -108 -62q0 -32 35 -44q8 -3 16 -5l308 -73q125 -29 161 -97q18 -36 18 -88q-1 -99 -94 -145zM262 268l320 -77q34 -9 50 -16q16 15 16 39q0 43 -56 62q-14 5 -33 9l-287 70q-38 10 -55 17q-29 -16 -30 -46 q0 -33 41 -48q14 -5 34 -10z" glyph-name="section" horiz-adv-x="840" unicode="§"/>
<glyph d="M60 609v119h185v-119h-185zM341 609v119h185v-119h-185z" glyph-name="dieresis" horiz-adv-x="586" unicode="¨"/>
<glyph d="M35 357q-3 136 95 244q95 106 232 125q30 5 60 4q142 3 255 -93q108 -92 128 -224q4 -28 4 -56q3 -137 -96 -246q-97 -105 -234 -124q-29 -4 -57 -3q-143 -3 -256 93q-107 92 -127 223q-5 29 -4 57zM744 357q2 120 -87 212q-89 91 -212 99h-23q-126 2 -222 -86 q-93 -86 -100 -204v-21q-2 -120 87 -212q89 -91 212 -99h23q126 -2 222 86q93 86 100 204v21zM423 139q-129 0 -182 96q-29 52 -29 123q0 138 99 191q48 26 112 26q120 0 171 -74q22 -32 25 -69h-99q-12 64 -97 65q-91 0 -108 -96q-4 -20 -4 -43q0 -121 86 -139q13 -2 26 -2 q92 2 103 84h99q-6 -89 -82 -133q-51 -29 -120 -29z" glyph-name="copyright" horiz-adv-x="843" unicode="©"/>
<glyph d="M464 390v-3h-130q-9 11 -10 32v12q-46 -57 -151 -57q-96 0 -130 56q-13 22 -13 50q0 85 89 102q11 2 22 3l140 13q34 8 36 23q-2 25 -62 25q-54 0 -62 -27q-1 -4 -1 -6h-139q5 111 201 111q163 0 193 -63q8 -18 8 -40v-182q0 -37 9 -49zM323 527v12q-5 -3 -32 -8l-83 -13 q-39 -7 -40 -36q2 -32 50 -33q63 0 92 38q13 18 13 40zM22 110h452v-110h-452v110z" glyph-name="ordfeminine" horiz-adv-x="494" unicode="ª"/>
<glyph d="M41 373l199 146v-164l-113 -80v-5l113 -80v-164l-199 145v202zM287 373l200 146v-164l-113 -80v-5l113 -80v-164l-200 145v202z" glyph-name="guillemotleft" horiz-adv-x="527" unicode="«"/>
<glyph d="M595 436v-282h-139v150h-389v132h528z" glyph-name="logicalnot" horiz-adv-x="662" unicode="¬"/>
<glyph d="M809 357q3 -137 -96 -246q-97 -105 -234 -124q-29 -4 -57 -3q-143 -3 -256 93q-107 92 -127 223q-5 29 -4 57q-3 136 95 244q95 106 232 125q30 5 60 4q142 3 255 -93q108 -92 128 -224q4 -28 4 -56zM744 357q3 119 -86 211q-87 91 -208 99q-15 1 -28 1q-124 3 -220 -84 q-93 -84 -101 -201q-1 -13 -1 -26q-3 -119 86 -211q87 -91 208 -99q15 -1 28 -1q124 -3 220 84q93 84 101 201q1 13 1 26zM520 308l101 -160h-110l-92 151h-82v-151h-96v418h213q114 0 146 -78q10 -25 10 -55q-1 -99 -90 -125zM337 494v-124h99q69 0 75 54q1 5 1 9 q0 49 -53 59q-11 2 -23 2h-99z" glyph-name="registered" horiz-adv-x="843" unicode="®"/>
<glyph d="M515 614h-455v115h455v-115z" glyph-name="overscore" horiz-adv-x="576" unicode="¯"/>
<glyph d="M22 560q0 84 66 127q39 25 88 25q82 0 126 -61q28 -40 28 -91q0 -84 -66 -127q-39 -25 -88 -25q-82 0 -126 61q-28 40 -28 91zM255 560q0 57 -46 77q-15 6 -33 6q-55 0 -73 -48q-6 -17 -6 -35q0 -59 47 -77q15 -6 32 -6q56 0 73 49q6 16 6 34z" glyph-name="degree" horiz-adv-x="352" unicode="°"/>
<glyph d="M595 434v-124h-194v-155h-139v155h-195v124h195v155h139v-155h194zM67 116h528v-116h-528v116z" glyph-name="plusminus" horiz-adv-x="662" unicode="±"/>
<glyph d="M175 392h322v-94h-471v12q0 88 51 132q54 44 129 68l88 28q52 17 59 42q1 6 1 11q0 42 -81 42q-92 -1 -100 -67h-139q6 135 161 156q32 4 69 4q176 0 217 -68q15 -26 15 -62q0 -78 -65 -113q-27 -14 -68 -25l-115 -29q-61 -19 -73 -37z" glyph-name="uni00B2" horiz-adv-x="538" unicode="²"/>
<glyph d="M499 417q0 -81 -70 -110q-57 -22 -174 -22q-163 0 -210 63q-24 33 -27 86h137q8 -56 100 -56q97 4 101 44q0 42 -58 47q-11 1 -23 1h-80v83h83q73 1 74 42q-2 43 -97 43q-86 -1 -91 -54h-131q5 104 112 131q45 11 110 11q171 0 213 -58q19 -26 19 -65q-2 -74 -67 -86v-4 q78 -14 79 -96z" glyph-name="uni00B3" horiz-adv-x="529" unicode="³"/>
<glyph d="M412 747l-182 -148h-170l81 148h271z" glyph-name="acute" horiz-adv-x="472" unicode="´"/>
<glyph d="M665 713v-897h-133v785h-92v-785h-132v455h-15q-218 0 -255 157q-7 30 -7 64q0 181 182 214q38 7 82 7h370z" glyph-name="paragraph" horiz-adv-x="726" unicode="¶"/>
<glyph d="M31 314q1 53 36 89q38 36 89 36q53 -1 88 -37q37 -36 37 -88q-1 -52 -37 -89q-37 -36 -88 -36q-52 1 -89 36q-36 38 -36 89z" glyph-name="middot" horiz-adv-x="311" unicode="·"/>
<glyph d="M60 -231v78h6q37 -11 66 -16t63 -5q54 6 58 31q0 27 -45 30h-13q-46 0 -79 -8h-5v47l78 102h95l-58 -77q11 3 28 3q121 0 140 -65q4 -15 4 -32q0 -73 -80 -94q-43 -11 -115 -11q-81 0 -143 17z" glyph-name="cedilla" horiz-adv-x="459" unicode="¸"/>
<glyph d="M287 713v-415h-129v249h-134v86h35q85 0 111 60q4 10 7 20h110z" glyph-name="uni00B9" horiz-adv-x="348" unicode="¹"/>
<glyph d="M474 549q0 -155 -180 -173q-23 -2 -47 -2q-215 0 -225 160v15q0 149 167 171q28 4 58 4q196 0 223 -133q4 -20 4 -42zM336 549q-2 81 -89 82q-77 0 -87 -65q-1 -9 -1 -17q0 -69 64 -81q12 -2 24 -2q86 5 89 83zM22 110h452v-110h-452v110z" glyph-name="ordmasculine" horiz-adv-x="496" unicode="º"/>
<glyph d="M240 373v-202l-200 -145v164l113 80v5l-113 80v164zM486 373v-202l-199 -145v164l113 80v5l-113 80v164z" glyph-name="guillemotright" horiz-adv-x="521" unicode="»"/>
<glyph d="M474 539v-182h-211v182h211zM513 62h209q-5 -140 -97 -195q-94 -57 -262 -57q-340 1 -341 201q0 84 62 132q25 19 64 38l50 25q63 31 71 64q2 8 2 16v12h194v-25q0 -78 -46 -118q-22 -18 -55 -36l-67 -34q-48 -25 -55 -53q-1 -7 -1 -13q4 -63 122 -64q144 2 150 107z" glyph-name="questiondown" horiz-adv-x="744" unicode="¿"/>
<glyph d="M706 0l-57 125h-372l-57 -125h-219l340 714h247l338 -714h-220zM466 536h-6q-43 -102 -115 -260h236q-84 186 -115 260zM201 925h271l81 -148h-170z" glyph-name="Agrave" horiz-adv-x="927" unicode="À"/>
<glyph d="M706 0l-57 125h-372l-57 -125h-219l340 714h247l338 -714h-220zM466 536h-6q-43 -102 -115 -260h236q-84 186 -115 260zM736 925l-182 -148h-170l81 148h271z" glyph-name="Aacute" horiz-adv-x="927" unicode="Á"/>
<glyph d="M706 0l-57 125h-372l-57 -125h-219l340 714h247l338 -714h-220zM466 536h-6q-43 -102 -115 -260h236q-84 186 -115 260zM529 777l-60 74h-5l-60 -74h-207l134 148h271l133 -148h-206z" glyph-name="Acircumflex" horiz-adv-x="927" unicode="Â"/>
<glyph d="M706 0l-57 125h-372l-57 -125h-219l340 714h247l338 -714h-220zM466 536h-6q-43 -102 -115 -260h236q-84 186 -115 260zM451 789l-32 11q-26 9 -40 9q-26 0 -30 -22q-2 -7 -2 -17h-134q0 102 76 144q34 19 72 19q36 -1 117 -30q49 -20 71 -20q26 0 30 22q2 7 2 17h134 q0 -101 -76 -144q-34 -19 -73 -19t-115 30z" glyph-name="Atilde" horiz-adv-x="927" unicode="Ã"/>
<glyph d="M706 0l-57 125h-372l-57 -125h-219l340 714h247l338 -714h-220zM466 536h-6q-43 -102 -115 -260h236q-84 186 -115 260zM232 778v119h185v-119h-185zM513 778v119h185v-119h-185z" glyph-name="Adieresis" horiz-adv-x="927" unicode="Ä"/>
<glyph d="M706 0l-57 125h-372l-57 -125h-219l340 714h247l338 -714h-220zM466 536h-6q-43 -102 -115 -260h236q-84 186 -115 260zM298 877q0 60 48 96q48 37 119 37q96 0 143 -59q25 -33 25 -74q0 -75 -71 -112q-43 -22 -97 -22q-71 1 -119 36q-48 38 -48 98zM522 877q0 34 -36 45 q-11 3 -21 3q-41 0 -54 -31q-3 -9 -3 -17q0 -34 35 -46q11 -3 22 -3q40 0 53 31q4 9 4 18z" glyph-name="Aring" horiz-adv-x="927" unicode="Å"/>
<glyph d="M876 156h462v-156h-654v125h-360l-85 -125h-239l505 714h821v-157h-450v-119h431v-145h-431v-137zM426 276h258v281h-66z" glyph-name="AE" horiz-adv-x="1381" unicode="Æ"/>
<glyph d="M523 -21l-21 -28q11 3 28 3q124 0 142 -68q3 -13 3 -29q0 -73 -82 -94q-44 -11 -114 -11q-80 0 -142 17v78h5q74 -21 129 -21q56 5 59 31q-10 28 -59 30q-46 0 -78 -8h-6v47l42 53q-180 11 -288 106q-106 95 -106 272q0 226 176 321q107 58 263 58q238 0 352 -115 q71 -74 75 -180h-235q-6 77 -85 110q-45 19 -107 19q-153 0 -201 -112q-19 -45 -19 -101q0 -142 108 -191q49 -22 112 -22q169 0 188 124q2 10 2 20h239q-5 -176 -166 -257q-89 -44 -214 -52z" glyph-name="Ccedilla" horiz-adv-x="938" unicode="Ç"/>
<glyph d="M260 557v-119h471v-145h-471v-137h501v-156h-701v714h690v-157h-490zM141 925h271l81 -148h-170z" glyph-name="Egrave" horiz-adv-x="805" unicode="È"/>
<glyph d="M260 557v-119h471v-145h-471v-137h501v-156h-701v714h690v-157h-490zM676 925l-182 -148h-170l81 148h271z" glyph-name="Eacute" horiz-adv-x="805" unicode="É"/>
<glyph d="M260 557v-119h471v-145h-471v-137h501v-156h-701v714h690v-157h-490zM469 777l-60 74h-5l-60 -74h-207l134 148h271l133 -148h-206z" glyph-name="Ecircumflex" horiz-adv-x="805" unicode="Ê"/>
<glyph d="M260 557v-119h471v-145h-471v-137h501v-156h-701v714h690v-157h-490zM172 778v119h185v-119h-185zM453 778v119h185v-119h-185z" glyph-name="Edieresis" horiz-adv-x="805" unicode="Ë"/>
<glyph d="M260 0h-200v714h200v-714zM-104 925h271l81 -148h-170z" glyph-name="Igrave" horiz-adv-x="320" unicode="Ì"/>
<glyph d="M260 0h-200v714h200v-714zM431 925l-182 -148h-170l81 148h271z" glyph-name="Iacute" horiz-adv-x="320" unicode="Í"/>
<glyph d="M260 0h-200v714h200v-714zM225 777l-60 74h-5l-60 -74h-207l134 148h271l133 -148h-206z" glyph-name="Icircumflex" horiz-adv-x="320" unicode="Î"/>
<glyph d="M260 0h-200v714h200v-714zM-73 778v119h185v-119h-185zM208 778v119h185v-119h-185z" glyph-name="Idieresis" horiz-adv-x="320" unicode="Ï"/>
<glyph d="M884 357q0 -258 -197 -328q-82 -29 -199 -29h-414v297h-74v121h74v296h414q286 0 364 -177q32 -74 32 -180zM665 357q0 161 -142 189q-34 6 -74 6h-175v-134h167v-121h-167v-135h175q179 0 209 130q7 30 7 65z" glyph-name="Eth" horiz-adv-x="919" unicode="Ð"/>
<glyph d="M661 714h191v-714h-222l-373 463h-6v-463h-191v714h229l366 -454h6v454zM443 789l-32 11q-26 9 -40 9q-26 0 -30 -22q-2 -7 -2 -17h-134q0 102 76 144q34 19 72 19q36 -1 117 -30q49 -20 71 -20q26 0 30 22q2 7 2 17h134q0 -101 -76 -144q-34 -19 -73 -19t-115 30z" glyph-name="Ntilde" horiz-adv-x="912" unicode="Ñ"/>
<glyph d="M937 357q-1 -188 -121 -284q-123 -95 -330 -95q-208 1 -330 95q-121 97 -121 284q1 189 121 283q122 96 330 96t330 -96q121 -95 121 -283zM718 357q0 149 -123 195q-47 18 -109 18q-174 0 -218 -126q-14 -39 -14 -87q0 -155 131 -198q44 -15 101 -15q166 0 215 117 q17 42 17 96zM222 925h271l81 -148h-170z" glyph-name="Ograve" horiz-adv-x="972" unicode="Ò"/>
<glyph d="M937 357q-1 -188 -121 -284q-123 -95 -330 -95q-208 1 -330 95q-121 97 -121 284q1 189 121 283q122 96 330 96t330 -96q121 -95 121 -283zM718 357q0 149 -123 195q-47 18 -109 18q-174 0 -218 -126q-14 -39 -14 -87q0 -155 131 -198q44 -15 101 -15q166 0 215 117 q17 42 17 96zM757 925l-182 -148h-170l81 148h271z" glyph-name="Oacute" horiz-adv-x="972" unicode="Ó"/>
<glyph d="M937 357q-1 -188 -121 -284q-123 -95 -330 -95q-208 1 -330 95q-121 97 -121 284q1 189 121 283q122 96 330 96t330 -96q121 -95 121 -283zM718 357q0 149 -123 195q-47 18 -109 18q-174 0 -218 -126q-14 -39 -14 -87q0 -155 131 -198q44 -15 101 -15q166 0 215 117 q17 42 17 96zM550 777l-60 74h-5l-60 -74h-207l134 148h271l133 -148h-206z" glyph-name="Ocircumflex" horiz-adv-x="972" unicode="Ô"/>
<glyph d="M937 357q-1 -188 -121 -284q-123 -95 -330 -95q-208 1 -330 95q-121 97 -121 284q1 189 121 283q122 96 330 96t330 -96q121 -95 121 -283zM718 357q0 149 -123 195q-47 18 -109 18q-174 0 -218 -126q-14 -39 -14 -87q0 -155 131 -198q44 -15 101 -15q166 0 215 117 q17 42 17 96zM472 789l-32 11q-26 9 -40 9q-26 0 -30 -22q-2 -7 -2 -17h-134q0 102 76 144q34 19 72 19q36 -1 117 -30q49 -20 71 -20q26 0 30 22q2 7 2 17h134q0 -101 -76 -144q-34 -19 -73 -19t-115 30z" glyph-name="Otilde" horiz-adv-x="972" unicode="Õ"/>
<glyph d="M937 357q-1 -188 -121 -284q-123 -95 -330 -95q-208 1 -330 95q-121 97 -121 284q1 189 121 283q122 96 330 96t330 -96q121 -95 121 -283zM718 357q0 149 -123 195q-47 18 -109 18q-174 0 -218 -126q-14 -39 -14 -87q0 -155 131 -198q44 -15 101 -15q166 0 215 117 q17 42 17 96zM253 778v119h185v-119h-185zM534 778v119h185v-119h-185z" glyph-name="Odieresis" horiz-adv-x="972" unicode="Ö"/>
<glyph d="M574 486l-160 -160l160 -160l-94 -93l-160 160l-159 -160l-94 93l160 160l-160 160l94 93l159 -160l160 160z" glyph-name="multiply" horiz-adv-x="641" unicode="×"/>
<glyph d="M937 357q-1 -188 -121 -284q-123 -95 -330 -95q-172 0 -283 64l-91 -82l-73 56l90 81q-94 98 -94 260q1 189 121 283q122 96 330 96q172 0 283 -64l91 82l73 -56l-91 -81q95 -99 95 -260zM284 236l338 304q-55 30 -136 30q-174 0 -218 -126q-14 -39 -14 -87 q0 -72 30 -121zM718 357q0 72 -30 121l-338 -304q55 -30 136 -30q166 0 215 117q17 42 17 96z" glyph-name="Oslash" horiz-adv-x="972" unicode="Ø"/>
<glyph d="M647 714h200v-412q-1 -177 -101 -251q-101 -72 -292 -72q-193 0 -293 72q-101 75 -101 251v412h200v-411q0 -128 118 -153q33 -7 76 -7q158 0 186 102q7 26 7 58v411zM190 925h271l81 -148h-170z" glyph-name="Ugrave" horiz-adv-x="908" unicode="Ù"/>
<glyph d="M647 714h200v-412q-1 -177 -101 -251q-101 -72 -292 -72q-193 0 -293 72q-101 75 -101 251v412h200v-411q0 -128 118 -153q33 -7 76 -7q158 0 186 102q7 26 7 58v411zM725 925l-182 -148h-170l81 148h271z" glyph-name="Uacute" horiz-adv-x="908" unicode="Ú"/>
<glyph d="M647 714h200v-412q-1 -177 -101 -251q-101 -72 -292 -72q-193 0 -293 72q-101 75 -101 251v412h200v-411q0 -128 118 -153q33 -7 76 -7q158 0 186 102q7 26 7 58v411zM518 777l-60 74h-5l-60 -74h-207l134 148h271l133 -148h-206z" glyph-name="Ucircumflex" horiz-adv-x="908" unicode="Û"/>
<glyph d="M647 714h200v-412q-1 -177 -101 -251q-101 -72 -292 -72q-193 0 -293 72q-101 75 -101 251v412h200v-411q0 -128 118 -153q33 -7 76 -7q158 0 186 102q7 26 7 58v411zM221 778v119h185v-119h-185zM502 778v119h185v-119h-185z" glyph-name="Udieresis" horiz-adv-x="908" unicode="Ü"/>
<glyph d="M867 714l-335 -468v-246h-201v246l-336 468h239l197 -295l199 295h237zM703 925l-182 -148h-170l81 148h271z" glyph-name="Yacute" horiz-adv-x="862" unicode="Ý"/>
<glyph d="M836 379q0 -168 -127 -214q-57 -21 -142 -21h-307v-144h-200v714h200v-101h307q198 0 249 -117q20 -48 20 -117zM617 373q0 75 -76 81q-9 1 -18 1h-263v-163h263q85 0 93 64q1 9 1 17z" glyph-name="Thorn" horiz-adv-x="871" unicode="Þ"/>
<glyph d="M617 417v-5q147 -16 164 -154q2 -18 2 -36q0 -149 -111 -202q-78 -36 -217 -36q-84 0 -126 14v148q52 -15 112 -15q98 0 127 56q10 19 10 41q0 91 -137 97h-19h-93v122h83q77 0 99 46q7 14 7 30q-2 66 -117 67q-125 0 -146 -87q-5 -21 -5 -45v-458h-198v466 q0 175 129 234q81 37 220 37q175 0 248 -49q72 -49 73 -140q-2 -105 -105 -131z" glyph-name="germandbls" horiz-adv-x="813" unicode="ß"/>
<glyph d="M711 6v-6h-193q-15 16 -15 56v18q-79 -95 -249 -95q-124 0 -187 68q-41 45 -41 109q0 127 115 161q28 8 63 12l229 23q52 5 57 31q1 4 1 8q-2 43 -108 43q-94 0 -109 -46q-1 -6 -2 -10h-207q6 96 90 140q87 43 226 43q251 0 301 -103q14 -30 14 -67v-304q0 -62 15 -81z M499 235v21q-15 -9 -53 -15l-144 -21q-62 -11 -70 -48q-1 -7 -1 -15q2 -57 88 -58q85 0 138 46q41 37 42 90zM118 747h271l81 -148h-170z" glyph-name="agrave" unicode="à"/>
<glyph d="M711 6v-6h-193q-15 16 -15 56v18q-79 -95 -249 -95q-124 0 -187 68q-41 45 -41 109q0 127 115 161q28 8 63 12l229 23q52 5 57 31q1 4 1 8q-2 43 -108 43q-94 0 -109 -46q-1 -6 -2 -10h-207q6 96 90 140q87 43 226 43q251 0 301 -103q14 -30 14 -67v-304q0 -62 15 -81z M499 235v21q-15 -9 -53 -15l-144 -21q-62 -11 -70 -48q-1 -7 -1 -15q2 -57 88 -58q85 0 138 46q41 37 42 90zM644 747l-182 -148h-170l81 148h271z" glyph-name="aacute" unicode="á"/>
<glyph d="M711 6v-6h-193q-15 16 -15 56v18q-79 -95 -249 -95q-124 0 -187 68q-41 45 -41 109q0 127 115 161q28 8 63 12l229 23q52 5 57 31q1 4 1 8q-2 43 -108 43q-94 0 -109 -46q-1 -6 -2 -10h-207q6 96 90 140q87 43 226 43q251 0 301 -103q14 -30 14 -67v-304q0 -62 15 -81z M499 235v21q-15 -9 -53 -15l-144 -21q-62 -11 -70 -48q-1 -7 -1 -15q2 -57 88 -58q85 0 138 46q41 37 42 90zM444 599l-60 74h-5l-60 -74h-207l134 148h271l133 -148h-206z" glyph-name="acircumflex" unicode="â"/>
<glyph d="M711 6v-6h-193q-15 16 -15 56v18q-79 -95 -249 -95q-124 0 -187 68q-41 45 -41 109q0 127 115 161q28 8 63 12l229 23q52 5 57 31q1 4 1 8q-2 43 -108 43q-94 0 -109 -46q-1 -6 -2 -10h-207q6 96 90 140q87 43 226 43q251 0 301 -103q14 -30 14 -67v-304q0 -62 15 -81z M499 235v21q-15 -9 -53 -15l-144 -21q-62 -11 -70 -48q-1 -7 -1 -15q2 -57 88 -58q85 0 138 46q41 37 42 90zM368 611q-53 21 -72 21q-26 0 -30 -22q-2 -7 -2 -17h-134q0 102 76 144q34 19 72 19q36 -1 117 -30q52 -20 71 -20q26 0 30 22q2 7 2 17h134q0 -101 -76 -144 q-34 -19 -73 -19q-39 1 -115 29z" glyph-name="atilde" unicode="ã"/>
<glyph d="M711 6v-6h-193q-15 16 -15 56v18q-79 -95 -249 -95q-124 0 -187 68q-41 45 -41 109q0 127 115 161q28 8 63 12l229 23q52 5 57 31q1 4 1 8q-2 43 -108 43q-94 0 -109 -46q-1 -6 -2 -10h-207q6 96 90 140q87 43 226 43q251 0 301 -103q14 -30 14 -67v-304q0 -62 15 -81z M499 235v21q-15 -9 -53 -15l-144 -21q-62 -11 -70 -48q-1 -7 -1 -15q2 -57 88 -58q85 0 138 46q41 37 42 90zM148 609v119h185v-119h-185zM429 609v119h185v-119h-185z" glyph-name="adieresis" unicode="ä"/>
<glyph d="M711 6v-6h-193q-15 16 -15 56v18q-79 -95 -249 -95q-124 0 -187 68q-41 45 -41 109q0 127 115 161q28 8 63 12l229 23q52 5 57 31q1 4 1 8q-2 43 -108 43q-94 0 -109 -46q-1 -6 -2 -10h-207q6 96 90 140q87 43 226 43q251 0 301 -103q14 -30 14 -67v-304q0 -62 15 -81z M499 235v21q-15 -9 -53 -15l-144 -21q-62 -11 -70 -48q-1 -7 -1 -15q2 -57 88 -58q85 0 138 46q41 37 42 90zM214 721q0 60 48 96q48 37 119 37q96 0 143 -59q25 -33 25 -74q0 -75 -71 -112q-43 -22 -97 -22q-71 1 -119 36q-48 38 -48 98zM438 721q0 34 -36 45q-11 3 -21 3 q-41 0 -54 -31q-3 -9 -3 -17q0 -34 35 -46q11 -3 22 -3q40 0 53 31q4 9 4 18z" glyph-name="aring" unicode="å"/>
<glyph d="M1178 221h-488q15 -112 144 -113q101 0 124 52q1 4 2 7h214q-7 -81 -83 -135q-78 -53 -257 -53q-163 0 -237 75q-13 13 -21 26q-72 -90 -235 -100q-25 -1 -51 -1q-192 0 -246 100q-18 34 -18 77q0 127 115 161q28 8 63 12l229 23q52 5 57 31q1 4 1 8q-2 43 -108 43 q-94 0 -109 -46q-1 -6 -2 -10h-207q6 96 90 140q87 43 226 43q185 -1 233 -63q56 56 193 62q13 1 26 1q251 0 323 -160q25 -57 25 -131q0 -28 -3 -49zM695 342h276q-24 88 -138 89q-112 -1 -138 -89zM499 235v21q-15 -9 -53 -15l-144 -21q-62 -11 -70 -48q-1 -7 -1 -15 q2 -57 88 -58q85 0 138 46q41 37 42 90z" glyph-name="ae" horiz-adv-x="1212" unicode="æ"/>
<glyph d="M437 -19l-23 -30q11 3 28 3q121 0 140 -65q4 -15 4 -32q0 -73 -82 -94q-44 -11 -114 -11q-81 0 -142 17v78h6q37 -11 66 -16t63 -5q54 6 58 31q0 27 -45 30h-13q-46 0 -79 -8h-5v47l42 54q-226 14 -289 169q-22 54 -22 121q0 192 166 259q79 32 188 32q179 0 261 -61 q84 -61 98 -167h-216q-13 74 -119 82q-12 1 -24 1q-116 0 -142 -93q-7 -25 -7 -53q0 -111 92 -139q26 -8 57 -8q127 0 143 84q1 2 1 3h217q-29 -212 -308 -229z" glyph-name="ccedilla" horiz-adv-x="775" unicode="ç"/>
<glyph d="M743 221h-507q17 -112 153 -113q105 0 132 50q3 5 4 9h213q-7 -80 -86 -134q-81 -54 -263 -54q-253 0 -330 154q-29 60 -29 137q0 195 172 261q78 30 186 30q256 0 331 -157q27 -59 27 -134q0 -28 -3 -49zM241 342h295q-27 88 -148 89q-121 -1 -147 -89zM125 747h271 l81 -148h-170z" glyph-name="egrave" horiz-adv-x="776" unicode="è"/>
<glyph d="M743 221h-507q17 -112 153 -113q105 0 132 50q3 5 4 9h213q-7 -80 -86 -134q-81 -54 -263 -54q-253 0 -330 154q-29 60 -29 137q0 195 172 261q78 30 186 30q256 0 331 -157q27 -59 27 -134q0 -28 -3 -49zM241 342h295q-27 88 -148 89q-121 -1 -147 -89zM651 747 l-182 -148h-170l81 148h271z" glyph-name="eacute" horiz-adv-x="776" unicode="é"/>
<glyph d="M743 221h-507q17 -112 153 -113q105 0 132 50q3 5 4 9h213q-7 -80 -86 -134q-81 -54 -263 -54q-253 0 -330 154q-29 60 -29 137q0 195 172 261q78 30 186 30q256 0 331 -157q27 -59 27 -134q0 -28 -3 -49zM241 342h295q-27 88 -148 89q-121 -1 -147 -89zM451 599l-60 74 h-5l-60 -74h-207l134 148h271l133 -148h-206z" glyph-name="ecircumflex" horiz-adv-x="776" unicode="ê"/>
<glyph d="M743 221h-507q17 -112 153 -113q105 0 132 50q3 5 4 9h213q-7 -80 -86 -134q-81 -54 -263 -54q-253 0 -330 154q-29 60 -29 137q0 195 172 261q78 30 186 30q256 0 331 -157q27 -59 27 -134q0 -28 -3 -49zM241 342h295q-27 88 -148 89q-121 -1 -147 -89zM155 609v119h185 v-119h-185zM436 609v119h185v-119h-185z" glyph-name="edieresis" horiz-adv-x="776" unicode="ë"/>
<glyph d="M52 0v540h197v-540h-197zM-113 747h271l81 -148h-170z" glyph-name="igrave" horiz-adv-x="301" unicode="ì"/>
<glyph d="M52 0v540h197v-540h-197zM414 747l-182 -148h-170l81 148h271z" glyph-name="iacute" horiz-adv-x="301" unicode="í"/>
<glyph d="M52 0v540h197v-540h-197zM213 599l-60 74h-5l-60 -74h-207l134 148h271l133 -148h-206z" glyph-name="icircumflex" horiz-adv-x="301" unicode="î"/>
<glyph d="M52 0v540h197v-540h-197zM-82 609v119h185v-119h-185zM199 609v119h185v-119h-185z" glyph-name="idieresis" horiz-adv-x="301" unicode="ï"/>
<glyph d="M740 304q0 -262 -236 -313q-62 -13 -138 -13q-147 0 -242 59q-94 59 -94 193q1 134 94 192q96 59 228 59q88 -1 152 -39h6q-18 65 -110 135l-83 -49l-76 53l81 47q-118 68 -246 90v6h256q60 -12 106 -29l93 54l74 -52l-77 -45q147 -87 194 -234q18 -56 18 -114zM528 230 q-2 106 -147 107q-145 -1 -146 -107q2 -107 146 -108q146 2 147 108z" glyph-name="eth" horiz-adv-x="770" unicode="ð"/>
<glyph d="M245 540v-68h6q89 81 229 81q163 0 216 -105q22 -43 22 -100v-348h-196v286q-2 109 -123 110q-63 -1 -106 -34q-44 -34 -44 -109v-253h-197v540h193zM372 611q-53 21 -72 21q-26 0 -30 -22q-2 -7 -2 -17h-134q0 102 76 144q34 19 72 19q36 -1 117 -30q52 -20 71 -20 q26 0 30 22q2 7 2 17h134q0 -101 -76 -144q-34 -19 -73 -19q-39 1 -115 29z" glyph-name="ntilde" horiz-adv-x="771" unicode="ñ"/>
<glyph d="M749 270q0 -194 -170 -260q-80 -31 -189 -31q-255 0 -332 156q-28 59 -28 135q0 194 171 261q80 30 189 30q253 0 330 -154q29 -60 29 -137zM545 270q0 115 -102 140q-24 6 -53 6q-125 0 -150 -100q-5 -21 -5 -46q0 -114 99 -140q26 -7 56 -7q123 0 149 97q6 24 6 50z M126 747h271l81 -148h-170z" glyph-name="ograve" horiz-adv-x="779" unicode="ò"/>
<glyph d="M749 270q0 -194 -170 -260q-80 -31 -189 -31q-255 0 -332 156q-28 59 -28 135q0 194 171 261q80 30 189 30q253 0 330 -154q29 -60 29 -137zM545 270q0 115 -102 140q-24 6 -53 6q-125 0 -150 -100q-5 -21 -5 -46q0 -114 99 -140q26 -7 56 -7q123 0 149 97q6 24 6 50z M653 747l-182 -148h-170l81 148h271z" glyph-name="oacute" horiz-adv-x="779" unicode="ó"/>
<glyph d="M749 270q0 -194 -170 -260q-80 -31 -189 -31q-255 0 -332 156q-28 59 -28 135q0 194 171 261q80 30 189 30q253 0 330 -154q29 -60 29 -137zM545 270q0 115 -102 140q-24 6 -53 6q-125 0 -150 -100q-5 -21 -5 -46q0 -114 99 -140q26 -7 56 -7q123 0 149 97q6 24 6 50z M452 599l-60 74h-5l-60 -74h-207l134 148h271l133 -148h-206z" glyph-name="ocircumflex" horiz-adv-x="779" unicode="ô"/>
<glyph d="M749 270q0 -194 -170 -260q-80 -31 -189 -31q-255 0 -332 156q-28 59 -28 135q0 194 171 261q80 30 189 30q253 0 330 -154q29 -60 29 -137zM545 270q0 115 -102 140q-24 6 -53 6q-125 0 -150 -100q-5 -21 -5 -46q0 -114 99 -140q26 -7 56 -7q123 0 149 97q6 24 6 50z M376 611q-53 21 -72 21q-26 0 -30 -22q-2 -7 -2 -17h-134q0 102 76 144q34 19 72 19q36 -1 117 -30q52 -20 71 -20q26 0 30 22q2 7 2 17h134q0 -101 -76 -144q-34 -19 -73 -19q-39 1 -115 29z" glyph-name="otilde" horiz-adv-x="779" unicode="õ"/>
<glyph d="M749 270q0 -194 -170 -260q-80 -31 -189 -31q-255 0 -332 156q-28 59 -28 135q0 194 171 261q80 30 189 30q253 0 330 -154q29 -60 29 -137zM545 270q0 115 -102 140q-24 6 -53 6q-125 0 -150 -100q-5 -21 -5 -46q0 -114 99 -140q26 -7 56 -7q123 0 149 97q6 24 6 50z M157 609v119h185v-119h-185zM438 609v119h185v-119h-185z" glyph-name="odieresis" horiz-adv-x="779" unicode="ö"/>
<glyph d="M239 546q0 50 43 78q23 14 49 14q52 0 78 -44q14 -22 14 -48q0 -52 -44 -78q-22 -14 -48 -14q-48 0 -76 42q-16 24 -16 50zM595 392v-132h-528v132h528zM239 106q0 50 43 78q23 14 49 14q52 0 78 -44q14 -22 14 -48q0 -52 -44 -78q-22 -14 -48 -14q-48 0 -76 42 q-16 24 -16 50z" glyph-name="divide" horiz-adv-x="662" unicode="÷"/>
<glyph d="M749 270q0 -194 -170 -260q-80 -31 -189 -31q-144 0 -232 51l-59 -50l-59 42l61 51q-71 75 -71 197q0 194 171 261q80 30 189 30q142 0 232 -51l59 49l58 -41l-61 -52q71 -75 71 -196zM249 197l235 197q-35 22 -94 22q-125 0 -150 -100q-5 -21 -5 -46q0 -44 14 -73z M545 270q0 42 -15 72l-235 -197q39 -22 95 -22q123 0 149 97q6 24 6 50z" glyph-name="oslash" horiz-adv-x="779" unicode="ø"/>
<glyph d="M526 0v67h-6q-91 -81 -229 -81q-162 0 -217 104q-22 44 -22 102v348h197v-286q0 -111 123 -111q62 0 105 33q45 36 45 110v254h196v-540h-192zM122 747h271l81 -148h-170z" glyph-name="ugrave" horiz-adv-x="771" unicode="ù"/>
<glyph d="M526 0v67h-6q-91 -81 -229 -81q-162 0 -217 104q-22 44 -22 102v348h197v-286q0 -111 123 -111q62 0 105 33q45 36 45 110v254h196v-540h-192zM648 747l-182 -148h-170l81 148h271z" glyph-name="uacute" horiz-adv-x="771" unicode="ú"/>
<glyph d="M526 0v67h-6q-91 -81 -229 -81q-162 0 -217 104q-22 44 -22 102v348h197v-286q0 -111 123 -111q62 0 105 33q45 36 45 110v254h196v-540h-192zM448 599l-60 74h-5l-60 -74h-207l134 148h271l133 -148h-206z" glyph-name="ucircumflex" horiz-adv-x="771" unicode="û"/>
<glyph d="M526 0v67h-6q-91 -81 -229 -81q-162 0 -217 104q-22 44 -22 102v348h197v-286q0 -111 123 -111q62 0 105 33q45 36 45 110v254h196v-540h-192zM152 609v119h185v-119h-185zM433 609v119h185v-119h-185z" glyph-name="udieresis" horiz-adv-x="771" unicode="ü"/>
<glyph d="M523 540h222l-279 -562q-55 -104 -100 -137q-46 -32 -150 -37q-15 -1 -32 -1q-81 0 -103 1v160q72 -2 86 -2q59 0 79 25q6 8 11 18l9 20l-262 515h222l93 -212q27 -61 53 -130h5q24 62 53 129zM638 747l-182 -148h-170l81 148h271z" glyph-name="yacute" horiz-adv-x="749" unicode="ý"/>
<glyph d="M254 55h-5v-238h-197v907h197v-246h5q76 75 202 75q140 -1 221 -75q82 -75 82 -212q-1 -138 -82 -212q-82 -75 -221 -75q-126 1 -202 76zM243 266q0 -101 87 -132q32 -11 71 -11q138 0 152 117q2 13 2 26q0 126 -122 141q-16 2 -32 2q-114 0 -147 -82q-11 -28 -11 -61z " glyph-name="thorn" horiz-adv-x="790" unicode="þ"/>
</font>
</defs>
</svg>
